<svg width="100" height="100" viewBox="0 0 100 100" fill="none" xmlns="http://www.w3.org/2000/svg">
<path d="M53.125 9.375V14.0625H6.25V9.375C6.25 7.65625 7.65625 6.25 9.375 6.25H50C51.7188 6.25 53.125 7.65625 53.125 9.375Z" fill="#325068"/>
<path d="M53.125 14.0625V65.625C53.125 67.3438 51.7188 68.75 50 68.75H9.375C7.65625 68.75 6.25 67.3438 6.25 65.625V14.0625H53.125Z" fill="#B8C3D5"/>
<path d="M43.75 28.9062H15.625C14.7656 28.9062 14.0625 28.2031 14.0625 27.3438C14.0625 26.4844 14.7656 25.7812 15.625 25.7812H43.75C44.6094 25.7812 45.3125 26.4844 45.3125 27.3438C45.3125 28.2031 44.6094 28.9062 43.75 28.9062Z" fill="#9DABC4"/>
<path d="M43.75 38.2812H15.625C14.7656 38.2812 14.0625 37.5781 14.0625 36.7188C14.0625 35.8594 14.7656 35.1562 15.625 35.1562H43.75C44.6094 35.1562 45.3125 35.8594 45.3125 36.7188C45.3125 37.5781 44.6094 38.2812 43.75 38.2812Z" fill="#9DABC4"/>
<path d="M43.75 47.6562H15.625C14.7656 47.6562 14.0625 46.9531 14.0625 46.0938C14.0625 45.2344 14.7656 44.5312 15.625 44.5312H43.75C44.6094 44.5312 45.3125 45.2344 45.3125 46.0938C45.3125 46.9531 44.6094 47.6562 43.75 47.6562Z" fill="#9DABC4"/>
<path d="M43.75 57.0312H15.625C14.7656 57.0312 14.0625 56.3281 14.0625 55.4688C14.0625 54.6094 14.7656 53.9062 15.625 53.9062H43.75C44.6094 53.9062 45.3125 54.6094 45.3125 55.4688C45.3125 56.3281 44.6094 57.0312 43.75 57.0312Z" fill="#9DABC4"/>
<path d="M93.75 34.375V39.0625H46.875V34.375C46.875 32.6562 48.2812 31.25 50 31.25H90.625C92.3438 31.25 93.75 32.6562 93.75 34.375Z" fill="#325068"/>
<path d="M93.75 39.0625V90.625C93.75 92.3438 92.3438 93.75 90.625 93.75H50C48.2812 93.75 46.875 92.3438 46.875 90.625V39.0625H93.75Z" fill="#B8C3D5"/>
<path d="M84.375 53.9062H56.25C55.3906 53.9062 54.6875 53.2031 54.6875 52.3438C54.6875 51.4844 55.3906 50.7812 56.25 50.7812H84.375C85.2344 50.7812 85.9375 51.4844 85.9375 52.3438C85.9375 53.2031 85.2344 53.9062 84.375 53.9062Z" fill="#9DABC4"/>
<path d="M84.375 63.2812H56.25C55.3906 63.2812 54.6875 62.5781 54.6875 61.7188C54.6875 60.8594 55.3906 60.1562 56.25 60.1562H84.375C85.2344 60.1562 85.9375 60.8594 85.9375 61.7188C85.9375 62.5781 85.2344 63.2812 84.375 63.2812Z" fill="#9DABC4"/>
<path d="M84.375 72.6562H56.25C55.3906 72.6562 54.6875 71.9531 54.6875 71.0938C54.6875 70.2344 55.3906 69.5312 56.25 69.5312H84.375C85.2344 69.5312 85.9375 70.2344 85.9375 71.0938C85.9375 71.9531 85.2344 72.6562 84.375 72.6562Z" fill="#9DABC4"/>
<path d="M84.375 82.0312H56.25C55.3906 82.0312 54.6875 81.3281 54.6875 80.4688C54.6875 79.6094 55.3906 78.9062 56.25 78.9062H84.375C85.2344 78.9062 85.9375 79.6094 85.9375 80.4688C85.9375 81.3281 85.2344 82.0312 84.375 82.0312Z" fill="#9DABC4"/>
<path d="M73.4375 23.4375V28.125H26.5625V23.4375C26.5625 21.7188 27.9688 20.3125 29.6875 20.3125H70.3125C72.0312 20.3125 73.4375 21.7188 73.4375 23.4375Z" fill="#536882"/>
<path d="M73.4375 28.125V79.6875C73.4375 81.4062 72.0312 82.8125 70.3125 82.8125H29.6875C27.9688 82.8125 26.5625 81.4062 26.5625 79.6875V28.125H73.4375Z" fill="#D3DCE5"/>
<path d="M39.0625 51.125C38.6562 51.125 38.2656 50.9688 37.9531 50.6719C37.3438 50.0625 37.3438 49.0781 37.9531 48.4688L43.6719 42.75C44.2813 42.1406 45.2656 42.1406 45.875 42.75C46.4844 43.3594 46.4844 44.3437 45.875 44.9531L40.1562 50.6719C39.8438 50.9844 39.4531 51.125 39.0469 51.125H39.0625Z" fill="#536882"/>
<path d="M44.7812 51.125C44.375 51.125 43.9844 50.9688 43.6719 50.6719L37.9531 44.9531C37.3438 44.3437 37.3438 43.3594 37.9531 42.75C38.5625 42.1406 39.5469 42.1406 40.1562 42.75L45.875 48.4688C46.4844 49.0781 46.4844 50.0625 45.875 50.6719C45.5625 50.9844 45.1719 51.125 44.7656 51.125H44.7812Z" fill="#536882"/>
<path d="M55.2187 51.125C54.8125 51.125 54.4219 50.9688 54.1094 50.6719C53.5 50.0625 53.5 49.0781 54.1094 48.4688L59.8281 42.75C60.4375 42.1406 61.4219 42.1406 62.0312 42.75C62.6406 43.3594 62.6406 44.3437 62.0312 44.9531L56.3125 50.6719C56 50.9844 55.6094 51.125 55.2031 51.125H55.2187Z" fill="#536882"/>
<path d="M60.9375 51.125C60.5312 51.125 60.1406 50.9688 59.8281 50.6719L54.1094 44.9531C53.5 44.3437 53.5 43.3594 54.1094 42.75C54.7188 42.1406 55.7031 42.1406 56.3125 42.75L62.0312 48.4688C62.6406 49.0781 62.6406 50.0625 62.0312 50.6719C61.7188 50.9844 61.3281 51.125 60.9219 51.125H60.9375Z" fill="#536882"/>
<path d="M60.1094 66.4531C59.5469 66.4531 59.0156 66.1562 58.7344 65.625C57.0156 62.3906 53.6719 60.3906 50.0156 60.3906C46.3594 60.3906 43.0156 62.3906 41.2969 65.625C40.8906 66.3906 39.9375 66.6719 39.1875 66.2656C38.4219 65.8594 38.1406 64.9063 38.5469 64.1563C40.8125 59.9062 45.2031 57.2656 50.0312 57.2656C54.8594 57.2656 59.25 59.9062 61.5156 64.1563C61.9219 64.9219 61.6406 65.8594 60.875 66.2656C60.6406 66.3906 60.3906 66.4531 60.1406 66.4531H60.1094Z" fill="#536882"/>
</svg>
