<svg width="114" height="114" viewBox="0 0 114 114" fill="none" xmlns="http://www.w3.org/2000/svg">
<path d="M94.7336 22.7109V88.0182C94.733 89.066 94.3163 90.0707 93.5752 90.8114C92.8341 91.5521 91.8292 91.9682 90.7814 91.9682H21.3127C20.2658 91.967 19.2623 91.5503 18.5225 90.8097C17.7827 90.0691 17.3672 89.0651 17.3672 88.0182V22.7109C17.3672 21.6653 17.7818 20.6623 18.5202 19.9219C19.2585 19.1814 20.2603 18.764 21.306 18.761H90.7747C91.2941 18.7601 91.8086 18.8616 92.2887 19.0597C92.7688 19.2578 93.2052 19.5486 93.5729 19.9154C93.9405 20.2823 94.2323 20.718 94.4314 21.1977C94.6306 21.6773 94.7333 22.1916 94.7336 22.7109Z" fill="#F5F5F5"/>
<path style="mix-blend-mode:multiply" d="M94.7336 71.6463V88.0205C94.733 89.0682 94.3163 90.0729 93.5752 90.8136C92.8341 91.5543 91.8292 91.9704 90.7814 91.9704H69.1682C67.024 80.6394 75.761 70.09 87.3191 70.09C89.8721 70.0864 92.3976 70.6165 94.7336 71.6463Z" fill="url(#paint0_linear_309_197)"/>
<path d="M90.7814 92.6361H21.3127C20.089 92.6338 18.9163 92.1463 18.0515 91.2807C17.1867 90.4151 16.7004 89.2418 16.6992 88.0182V22.7109C16.7004 21.4885 17.1858 20.3163 18.0491 19.4508C18.9125 18.5854 20.0835 18.0972 21.306 18.093H90.7747C92.0005 18.0925 93.1763 18.5785 94.0439 19.4444C94.9114 20.3103 95.3998 21.4852 95.4015 22.7109V88.0182C95.3998 89.2428 94.9124 90.4167 94.0462 91.2824C93.1801 92.1481 92.006 92.6349 90.7814 92.6361ZM21.306 19.429C20.4377 19.4325 19.6061 19.7798 18.9931 20.3948C18.3802 21.0099 18.0357 21.8426 18.0352 22.7109V88.0182C18.0357 88.8885 18.3817 89.7229 18.9971 90.3383C19.6124 90.9536 20.4469 91.2996 21.3171 91.3002H90.7859C91.6563 91.2996 92.491 90.9537 93.1067 90.3384C93.7224 89.7231 94.0689 88.8887 94.07 88.0182V22.7109C94.0689 21.8405 93.7224 21.0061 93.1067 20.3908C92.491 19.7755 91.6563 19.4296 90.7859 19.429H21.306Z" fill="#5E6175"/>
<path d="M94.7336 22.7109V27.5604H17.3672V22.7109C17.3672 21.6653 17.7818 20.6623 18.5202 19.9219C19.2585 19.1814 20.2603 18.764 21.306 18.761H90.7747C91.2941 18.7601 91.8086 18.8616 92.2887 19.0597C92.7688 19.2578 93.2052 19.5486 93.5729 19.9154C93.9405 20.2823 94.2323 20.718 94.4314 21.1977C94.6306 21.6773 94.7333 22.1916 94.7336 22.7109Z" fill="#5E6175"/>
<path d="M23.3077 24.8707C24.2521 24.8707 25.0177 24.1051 25.0177 23.1607C25.0177 22.2163 24.2521 21.4507 23.3077 21.4507C22.3632 21.4507 21.5977 22.2163 21.5977 23.1607C21.5977 24.1051 22.3632 24.8707 23.3077 24.8707Z" fill="#F5F5F5"/>
<path d="M29.7825 24.8707C30.7269 24.8707 31.4925 24.1051 31.4925 23.1607C31.4925 22.2163 30.7269 21.4507 29.7825 21.4507C28.8381 21.4507 28.0725 22.2163 28.0725 23.1607C28.0725 24.1051 28.8381 24.8707 29.7825 24.8707Z" fill="#F5F5F5"/>
<path d="M56.5814 75.9525C68.7751 75.9525 78.66 66.0676 78.66 53.8739C78.66 41.6802 68.7751 31.7953 56.5814 31.7953C44.3877 31.7953 34.5028 41.6802 34.5028 53.8739C34.5028 66.0676 44.3877 75.9525 56.5814 75.9525Z" fill="#DEE1EC"/>
<path d="M60.7852 86.7936H52.3777C51.7783 86.7936 51.2035 86.5555 50.7797 86.1317C50.3558 85.7079 50.1177 85.1331 50.1177 84.5337C50.1177 83.9343 50.3558 83.3595 50.7797 82.9356C51.2035 82.5118 51.7783 82.2737 52.3777 82.2737H60.7852C61.3846 82.2737 61.9594 82.5118 62.3832 82.9356C62.8071 83.3595 63.0452 83.9343 63.0452 84.5337C63.0452 85.1331 62.8071 85.7079 62.3832 86.1317C61.9594 86.5555 61.3846 86.7936 60.7852 86.7936Z" fill="#A9AFC4"/>
<path d="M87.3191 103.687C95.6749 103.687 102.449 96.9129 102.449 88.5571C102.449 80.2013 95.6749 73.4276 87.3191 73.4276C78.9633 73.4276 72.1896 80.2013 72.1896 88.5571C72.1896 96.9129 78.9633 103.687 87.3191 103.687Z" fill="#F5F5F5"/>
<path d="M87.3191 104.352C84.1945 104.353 81.1399 103.427 78.5417 101.691C75.9434 99.9552 73.9183 97.488 72.7224 94.6013C71.5264 91.7146 71.2134 88.5381 71.8229 85.4735C72.4323 82.4089 73.9369 79.5938 76.1464 77.3844C78.3558 75.1749 81.1709 73.6703 84.2355 73.0608C87.3001 72.4514 90.4766 72.7644 93.3633 73.9603C96.25 75.1563 98.7172 77.1814 100.453 79.7796C102.189 82.3779 103.115 85.4324 103.114 88.5571C103.111 92.7451 101.446 96.7607 98.4841 99.7221C95.5227 102.684 91.5072 104.349 87.3191 104.352ZM87.3191 74.0956C84.4593 74.0951 81.6635 74.9426 79.2853 76.5309C76.907 78.1192 75.0531 80.377 73.9579 83.0188C72.8627 85.6606 72.5753 88.5678 73.1322 91.3729C73.689 94.178 75.065 96.7551 77.0863 98.7782C79.1076 100.801 81.6834 102.18 84.4879 102.739C87.2925 103.299 90.2 103.014 92.8428 101.921C95.4857 100.828 97.7451 98.9766 99.3356 96.5998C100.926 94.223 101.776 91.428 101.778 88.5682C101.778 84.7321 100.255 81.053 97.5442 78.3392C94.8329 75.6255 91.1552 74.0991 87.3191 74.0956Z" fill="#5E6175"/>
<path d="M54.2391 59.1932C54.274 57.5306 54.6944 55.8989 55.4671 54.4264C56.2399 52.954 57.3439 51.681 58.6922 50.7077C59.1907 50.35 59.5906 49.872 59.8546 49.3181C60.1185 48.7642 60.2381 48.1526 60.202 47.5401C60.166 46.9276 59.9755 46.3342 59.6484 45.8151C59.3213 45.296 58.8681 44.8682 58.3311 44.5714C57.7941 44.2746 57.1907 44.1185 56.5772 44.1177C55.9636 44.1169 55.3598 44.2714 54.822 44.5667C54.2843 44.8621 53.83 45.2887 53.5014 45.8069C53.1729 46.3251 52.9809 46.918 52.9432 47.5304H48.2585C48.2964 46.1142 48.6951 44.731 49.4169 43.5118C50.1387 42.2927 51.1596 41.2779 52.3832 40.5635C53.6067 39.8492 54.9923 39.4589 56.4087 39.4297C57.8252 39.4004 59.2258 39.7331 60.4777 40.3963C61.7297 41.0595 62.7917 42.0313 63.5632 43.2196C64.3347 44.4079 64.7902 45.7734 64.8865 47.187C64.9829 48.6005 64.7169 50.0152 64.1137 51.2972C63.5106 52.5792 62.5902 53.686 61.4398 54.5129C60.6939 55.0506 60.0803 55.7511 59.6455 56.5612C59.2107 57.3714 58.9662 58.27 58.9305 59.1887L54.2391 59.1932Z" fill="#5E6175"/>
<path d="M54.179 63.6084H58.8904V68.3198H54.179V63.6084Z" fill="#5E6175"/>
<path d="M91.2535 90.0177C92.1264 88.5992 92.4482 86.9095 92.1577 85.2694C91.8672 83.6294 90.9847 82.153 89.6776 81.1206C88.3706 80.0882 86.73 79.5716 85.0672 79.6689C83.4045 79.7662 81.8353 80.4705 80.6575 81.6483C79.4797 82.8261 78.7754 84.3952 78.6781 86.058C78.5808 87.7208 79.0974 89.3614 80.1298 90.6684C81.1622 91.9755 82.6386 92.858 84.2787 93.1485C85.9187 93.439 87.6084 93.1172 89.0269 92.2443C90.423 94.6178 91.6053 95.6576 93.6203 97.6726C94.8309 96.8493 95.8618 95.7888 96.6507 94.5554C94.6713 92.6027 93.6203 91.4115 91.2535 90.0177ZM87.9136 88.9044C87.4297 89.3861 86.814 89.7136 86.1441 89.8456C85.4742 89.9776 84.7802 89.9083 84.1497 89.6462C83.5192 89.3842 82.9805 88.9413 82.6015 88.3734C82.2225 87.8054 82.0203 87.138 82.0203 86.4552C82.0203 85.7724 82.2225 85.105 82.6015 84.537C82.9805 83.9691 83.5192 83.5262 84.1497 83.2642C84.7802 83.0022 85.4742 82.9328 86.1441 83.0648C86.814 83.1968 87.4297 83.5243 87.9136 84.006C88.2352 84.328 88.4901 84.7103 88.6637 85.1309C88.8372 85.5516 88.9261 86.0024 88.925 86.4575C88.924 86.9126 88.8331 87.363 88.6577 87.7829C88.4822 88.2028 88.2256 88.5839 87.9025 88.9044H87.9136Z" fill="#E1830E"/>
<path d="M75.0685 102.302H73.7326V100.966H75.0685V102.302ZM71.506 102.302H70.1701V100.966H71.506V102.302ZM67.9435 102.302H66.6076V100.966H67.9435V102.302ZM64.381 102.302H63.0451V100.966H64.381V102.302ZM60.8185 102.302H59.4826V100.966H60.8185V102.302ZM57.256 102.302H55.9201V100.966H57.256V102.302ZM53.6935 102.302H52.3576V100.966H53.6935V102.302ZM50.131 102.302H48.7951V100.966H50.131V102.302ZM46.5685 102.302H45.2326V100.966H46.5685V102.302ZM43.006 102.302H41.6701V100.966H43.006V102.302Z" fill="#A9AFC4"/>
<path d="M43.0105 98.964H41.6746V97.6281H43.0105V98.964ZM43.0105 95.4015H41.6746V94.1658H43.0105V95.4015Z" fill="#A9AFC4"/>
<path d="M96.3417 16.2685L99.3137 13.2964L100.258 14.2409L97.2862 17.213L96.3417 16.2685Z" fill="#5E6175"/>
<path d="M92.6829 10.3157H94.0188V14.5194H92.6829V10.3157Z" fill="#5E6175"/>
<path d="M99.1355 19.2664H103.339V20.6024H99.1355V19.2664Z" fill="#5E6175"/>
<path d="M12.0925 95.4973C11.677 95.4977 11.2708 95.3749 10.9251 95.1443C10.5795 94.9138 10.31 94.5859 10.1509 94.2022C9.99166 93.8184 9.94989 93.396 10.0308 92.9885C10.1118 92.581 10.3118 92.2067 10.6056 91.913C10.8993 91.6192 11.2737 91.4192 11.6812 91.3382C12.0887 91.2573 12.511 91.299 12.8948 91.4582C13.2785 91.6174 13.6064 91.8869 13.837 92.2325C14.0675 92.5781 14.1903 92.9844 14.1899 93.3999C14.1887 93.9558 13.9674 94.4886 13.5743 94.8816C13.1812 95.2747 12.6484 95.4961 12.0925 95.4973ZM12.0925 92.6361C11.9413 92.6357 11.7935 92.6801 11.6676 92.7638C11.5417 92.8474 11.4435 92.9665 11.3853 93.106C11.3272 93.2456 11.3117 93.3992 11.3409 93.5475C11.3702 93.6958 11.4427 93.8321 11.5494 93.9391C11.6562 94.0461 11.7922 94.1191 11.9404 94.1487C12.0886 94.1784 12.2423 94.1634 12.382 94.1056C12.5217 94.0479 12.6411 93.95 12.7251 93.8244C12.8091 93.6987 12.854 93.551 12.854 93.3999C12.8534 93.1979 12.773 93.0043 12.6304 92.8613C12.4878 92.7182 12.2945 92.6373 12.0925 92.6361Z" fill="#5E6175"/>
<path d="M21.8426 102.921C21.2734 102.922 20.7168 102.754 20.2432 102.438C19.7695 102.122 19.4001 101.673 19.1817 101.148C18.9633 100.622 18.9057 100.044 19.0162 99.4854C19.1267 98.9271 19.4003 98.4141 19.8024 98.0113C20.2046 97.6086 20.7171 97.3342 21.2753 97.2228C21.8334 97.1114 22.4121 97.1681 22.938 97.3857C23.4639 97.6033 23.9134 97.9721 24.2297 98.4452C24.546 98.9184 24.7149 99.4748 24.7149 100.044C24.7143 100.806 24.4116 101.537 23.8732 102.076C23.3348 102.615 22.6046 102.919 21.8426 102.921ZM21.8426 98.5054C21.5377 98.5049 21.2395 98.595 20.9857 98.7641C20.732 98.9332 20.5342 99.1738 20.4173 99.4555C20.3004 99.7371 20.2697 100.047 20.3291 100.346C20.3885 100.645 20.5353 100.92 20.7509 101.136C20.9665 101.351 21.2412 101.498 21.5403 101.557C21.8394 101.617 22.1494 101.586 22.431 101.469C22.7127 101.352 22.9533 101.154 23.1224 100.901C23.2915 100.647 23.3816 100.349 23.3812 100.044C23.3806 99.636 23.2183 99.245 22.9299 98.9566C22.6415 98.6682 22.2505 98.5059 21.8426 98.5054Z" fill="#5E6175"/>
<path d="M43.0105 89.9175H41.6746V88.5816H43.0105V89.9175ZM43.0105 86.355H41.6746V85.0191H43.0105V86.355ZM43.0105 82.7925H41.6746V81.4566H43.0105V82.7925ZM43.0105 79.23H41.6746V77.8941H43.0105V79.23ZM43.0105 75.6675H41.6746V74.3316H43.0105V75.6675Z" fill="#A9AFC4"/>
<defs>
<linearGradient id="paint0_linear_309_197" x1="68.8431" y1="81.0291" x2="94.7336" y2="81.0291" gradientUnits="userSpaceOnUse">
<stop stop-color="#CACFDD"/>
<stop offset="1" stop-color="#EEF0F1"/>
</linearGradient>
</defs>
</svg>
