<svg width="43" height="43" viewBox="0 0 43 43" fill="none" xmlns="http://www.w3.org/2000/svg">
<g clip-path="url(#clip0_122_235)">
<path d="M42.9326 20.4857C42.8713 20.026 42.4485 19.7031 41.9891 19.7644C41.5293 19.8257 41.2063 20.2481 41.2677 20.7079C41.3026 20.9698 41.3203 21.2363 41.3203 21.5C41.3203 24.3257 39.322 27.0191 35.6935 29.0841C31.9159 31.234 26.8753 32.418 21.5 32.418C18.1034 32.418 14.8409 31.9447 11.9458 31.0542C11.0553 28.1591 10.582 24.8966 10.582 21.5C10.582 16.1248 11.766 11.0841 13.9159 7.30647C15.9809 3.67793 18.6743 1.67969 21.5 1.67969C23.8712 1.67969 25.7594 3.04712 27.1189 4.55053H26.2587C25.795 4.55053 25.4189 4.92652 25.4189 5.39037C25.4189 5.85421 25.795 6.23021 26.2587 6.23021H28.8643C29.3281 6.23021 29.7042 5.85421 29.7042 5.39037V2.78467C29.7042 2.32082 29.3281 1.94483 28.8643 1.94483C28.4006 1.94483 28.0245 2.32082 28.0245 2.78467V3.06761C26.0767 1.07483 23.8167 0 21.5 0C18.0444 0 14.8326 2.29974 12.456 6.47562C10.1644 10.5024 8.90234 15.8381 8.90234 21.5C8.90234 24.6109 9.28414 27.6228 10.0076 30.3737C9.0515 29.9932 8.14749 29.5628 7.30647 29.084C3.67801 27.0191 1.67969 24.3257 1.67969 21.5C1.67969 19.1148 3.06325 17.2181 4.57715 15.8567V16.7125C4.57715 17.1763 4.95323 17.5523 5.41699 17.5523C5.88075 17.5523 6.25684 17.1763 6.25684 16.7125V14.1068C6.25684 13.6429 5.88075 13.2669 5.41699 13.2669H2.81138C2.34762 13.2669 1.97153 13.6429 1.97153 14.1068C1.97153 14.5706 2.34762 14.9466 2.81138 14.9466H3.0976C1.08575 16.901 0 19.1718 0 21.5C0 24.9555 2.29974 28.1674 6.47562 30.5439C7.73656 31.2615 9.12583 31.8781 10.6133 32.3866C11.1218 33.8741 11.7384 35.2634 12.456 36.5243C14.8326 40.7003 18.0444 43 21.5 43C23.4811 43 25.4484 42.2123 27.1892 40.722C27.5415 40.4203 27.5827 39.8902 27.2811 39.5378C26.9795 39.1855 26.4493 39.1444 26.0969 39.4459C24.6441 40.6898 23.0975 41.3203 21.5 41.3203C18.6743 41.3203 15.9809 39.3221 13.9159 35.6935C13.4372 34.8524 13.0067 33.9484 12.6263 32.9924C15.3772 33.7159 18.3891 34.0977 21.5 34.0977C27.1619 34.0977 32.4976 32.8356 36.5244 30.5439C40.7003 28.1674 43 24.9555 43 21.5C43 21.1622 42.9772 20.821 42.9326 20.4857Z" fill="white"/>
<path d="M41.9002 17.4787C41.8994 17.4773 41.898 17.4747 41.8967 17.4724C41.6738 17.0698 41.1675 16.9214 40.762 17.141C40.3542 17.3618 40.2026 17.8715 40.4236 18.2794C40.4248 18.2815 40.4292 18.2896 40.4305 18.2918C40.5837 18.5689 40.8704 18.7252 41.1661 18.7252C41.3037 18.7252 41.4431 18.6914 41.5719 18.6202C41.9777 18.3957 42.1248 17.8846 41.9002 17.4787Z" fill="white"/>
<path d="M29.3439 36.9374C28.9672 36.6676 28.4396 36.7591 28.1691 37.1349C28.1677 37.137 28.1663 37.1389 28.1649 37.1409C27.8976 37.5191 27.983 38.0479 28.3607 38.3159C28.5068 38.4196 28.6751 38.4692 28.8424 38.4692C29.1075 38.4692 29.3696 38.3445 29.5346 38.1133C29.8035 37.7363 29.7204 37.2072 29.3439 36.9374Z" fill="white"/>
<path d="M27.4222 19.0807C27.408 17.8996 26.4386 16.9387 25.2614 16.9387H22.2992V14.7236C22.2992 14.463 22.5111 14.2511 22.7716 14.2511H25.2067C25.6705 14.2511 26.0466 13.8751 26.0466 13.4113C26.0466 12.9475 25.6705 12.5715 25.2067 12.5715H22.7716C21.5849 12.5715 20.6195 13.5369 20.6195 14.7236V21.5035C20.6195 22.6902 21.5849 23.6556 22.7716 23.6556H25.2614C26.4386 23.6556 27.408 22.6948 27.4222 21.5137C27.4223 21.5102 27.4223 21.5069 27.4223 21.5035V19.0908C27.4223 19.0874 27.4223 19.084 27.4222 19.0807ZM25.7425 21.4971C25.7372 21.7614 25.5222 21.9759 25.2613 21.9759H22.7715C22.511 21.9759 22.2991 21.764 22.2991 21.5034V18.6183H25.2613C25.5222 18.6183 25.7373 18.8328 25.7425 19.0971V21.4971Z" fill="white"/>
<path d="M32.9967 12.5715H30.4982C29.3115 12.5715 28.3461 13.5369 28.3461 14.7236V21.5035C28.3461 22.6902 29.3115 23.6556 30.4982 23.6556H32.9967C34.1834 23.6556 35.1488 22.6902 35.1488 21.5035V14.7236C35.1488 13.5369 34.1834 12.5715 32.9967 12.5715ZM33.4691 21.5035C33.4691 21.764 33.2572 21.9759 32.9967 21.9759H30.4982C30.2376 21.9759 30.0258 21.764 30.0258 21.5035V14.7236C30.0258 14.463 30.2376 14.2511 30.4982 14.2511H32.9967C33.2572 14.2511 33.4691 14.463 33.4691 14.7236V21.5035Z" fill="white"/>
<path d="M17.5423 12.5715H15.3981C14.2114 12.5715 13.246 13.5369 13.246 14.7236V14.7532C13.246 15.217 13.6221 15.593 14.0858 15.593C14.5496 15.593 14.9257 15.217 14.9257 14.7532V14.7236C14.9257 14.463 15.1376 14.2511 15.3981 14.2511H17.5423C17.8028 14.2511 18.0147 14.463 18.0147 14.7236V17.2737H15.8605C15.3967 17.2737 15.0206 17.6497 15.0206 18.1136C15.0206 18.5774 15.3967 18.9534 15.8605 18.9534H18.0147V21.5035C18.0147 21.764 17.8028 21.9759 17.5423 21.9759H15.3981C15.1376 21.9759 14.9257 21.764 14.9257 21.5035V21.3873C14.9257 20.9235 14.5496 20.5475 14.0858 20.5475C13.6221 20.5475 13.246 20.9235 13.246 21.3873V21.5035C13.246 22.6902 14.2114 23.6556 15.3981 23.6556H17.5423C18.729 23.6556 19.6944 22.6902 19.6944 21.5035V14.7236C19.6944 13.5369 18.729 12.5715 17.5423 12.5715Z" fill="white"/>
<path d="M38.5446 11.1836C37.3162 11.1836 36.3169 12.1829 36.3169 13.4113C36.3169 14.6397 37.3162 15.639 38.5446 15.639C39.7729 15.639 40.7723 14.6397 40.7723 13.4113C40.7723 12.1829 39.7729 11.1836 38.5446 11.1836ZM38.5446 13.9592C38.2425 13.9592 37.9966 13.7134 37.9966 13.4112C37.9966 13.109 38.2425 12.8632 38.5446 12.8632C38.8468 12.8632 39.0926 13.109 39.0926 13.4112C39.0926 13.7134 38.8467 13.9592 38.5446 13.9592Z" fill="white"/>
</g>
<defs>
<clipPath id="clip0_122_235">
<rect width="43" height="43" fill="white"/>
</clipPath>
</defs>
</svg>
