<svg width="51" height="53" viewBox="0 0 51 53" fill="none" xmlns="http://www.w3.org/2000/svg">
<path d="M25.5 4.4574C21.2972 4.4574 17.1887 5.74504 13.6941 8.1575C10.1996 10.57 7.47593 13.9989 5.86757 18.0107C4.25921 22.0224 3.83839 26.4369 4.65832 30.6958C5.47826 34.9546 7.50212 38.8667 10.474 41.9371C13.4459 45.0076 17.2322 47.0986 21.3543 47.9458C25.4764 48.7929 29.7491 48.3582 33.632 46.6964C37.515 45.0347 40.8338 42.2206 43.1687 38.6101C45.5037 34.9996 46.75 30.7548 46.75 26.4125C46.75 23.5293 46.2004 20.6744 45.1325 18.0107C44.0645 15.3469 42.4993 12.9266 40.526 10.8879C38.5528 8.84918 36.2102 7.23198 33.632 6.12863C31.0539 5.02528 28.2906 4.4574 25.5 4.4574ZM34 28.608H27.625V35.1946C27.625 35.7769 27.4011 36.3353 27.0026 36.747C26.6041 37.1588 26.0636 37.3901 25.5 37.3901C24.9364 37.3901 24.3959 37.1588 23.9974 36.747C23.5989 36.3353 23.375 35.7769 23.375 35.1946V28.608H17C16.4364 28.608 15.8959 28.3767 15.4974 27.965C15.0989 27.5532 14.875 26.9948 14.875 26.4125C14.875 25.8302 15.0989 25.2718 15.4974 24.8601C15.8959 24.4483 16.4364 24.217 17 24.217H23.375V17.6305C23.375 17.0482 23.5989 16.4898 23.9974 16.078C24.3959 15.6663 24.9364 15.435 25.5 15.435C26.0636 15.435 26.6041 15.6663 27.0026 16.078C27.4011 16.4898 27.625 17.0482 27.625 17.6305V24.217H34C34.5636 24.217 35.1041 24.4483 35.5026 24.8601C35.9011 25.2718 36.125 25.8302 36.125 26.4125C36.125 26.9948 35.9011 27.5532 35.5026 27.965C35.1041 28.3767 34.5636 28.608 34 28.608Z" fill="white"/>
</svg>
