<svg width="16" height="25" viewBox="0 0 16 25" fill="none" xmlns="http://www.w3.org/2000/svg">
<path d="M5.37659 12.5053L15.5651 3.15244C15.8457 2.89553 16 2.55203 16 2.18577C16 1.81931 15.8457 1.47602 15.5651 1.2187L14.6724 0.399594C14.3923 0.14187 14.0178 0 13.6188 0C13.2198 0 12.8458 0.14187 12.5655 0.399594L0.434437 11.535C0.153009 11.7931 -0.00110118 12.138 5.9322e-06 12.5047C-0.00110118 12.873 0.152787 13.2175 0.434437 13.4758L12.5542 24.6004C12.8345 24.8581 13.2085 25 13.6078 25C14.0068 25 14.3807 24.8581 14.6613 24.6004L15.5538 23.7813C16.1346 23.2482 16.1346 22.3803 15.5538 21.8474L5.37659 12.5053Z" fill="black"/>
</svg>
