<svg width="24" height="24" viewBox="0 0 24 24" fill="none" xmlns="http://www.w3.org/2000/svg">
<path d="M10 20H14C14 20.5304 13.7893 21.0391 13.4142 21.4142C13.0391 21.7893 12.5304 22 12 22C11.4696 22 10.9609 21.7893 10.5858 21.4142C10.2107 21.0391 10 20.5304 10 20ZM18 16V10C17.9986 8.58312 17.4958 7.21247 16.5806 6.13077C15.6655 5.04908 14.3971 4.32615 13 4.09V3C13 2.73478 12.8946 2.48043 12.7071 2.29289C12.5196 2.10536 12.2652 2 12 2C11.7348 2 11.4804 2.10536 11.2929 2.29289C11.1054 2.48043 11 2.73478 11 3V4.09C9.60294 4.32615 8.33452 5.04908 7.41939 6.13077C6.50425 7.21247 6.00144 8.58312 6 10V16L4 18H20L18 16Z" fill="#2772AF"/>
</svg>
