<svg width="51" height="53" viewBox="0 0 51 53" fill="none" xmlns="http://www.w3.org/2000/svg">
<path d="M34 4.4574L42.5 13.2394H34V4.4574ZM29.75 17.6305H42.5V46.1721C42.5 46.7544 42.2761 47.3129 41.8776 47.7246C41.4791 48.1363 40.9386 48.3676 40.375 48.3676H10.625C10.0614 48.3676 9.52091 48.1363 9.1224 47.7246C8.72388 47.3129 8.5 46.7544 8.5 46.1721V6.65291C8.5 6.07062 8.72388 5.51219 9.1224 5.10045C9.52091 4.68871 10.0614 4.4574 10.625 4.4574H29.75V17.6305ZM14.875 13.2394C14.875 13.8217 15.0989 14.3802 15.4974 14.7919C15.8959 15.2036 16.4364 15.435 17 15.435H23.375C23.9386 15.435 24.4791 15.2036 24.8776 14.7919C25.2761 14.3802 25.5 13.8217 25.5 13.2394C25.5 12.6572 25.2761 12.0987 24.8776 11.687C24.4791 11.2752 23.9386 11.0439 23.375 11.0439H17C16.4364 11.0439 15.8959 11.2752 15.4974 11.687C15.0989 12.0987 14.875 12.6572 14.875 13.2394ZM36.125 39.5856C36.125 39.0033 35.9011 38.4449 35.5026 38.0331C35.1041 37.6214 34.5636 37.3901 34 37.3901H17C16.4364 37.3901 15.8959 37.6214 15.4974 38.0331C15.0989 38.4449 14.875 39.0033 14.875 39.5856C14.875 40.1679 15.0989 40.7263 15.4974 41.1381C15.8959 41.5498 16.4364 41.7811 17 41.7811H34C34.5636 41.7811 35.1041 41.5498 35.5026 41.1381C35.9011 40.7263 36.125 40.1679 36.125 39.5856ZM17 28.608C16.4364 28.608 15.8959 28.8393 15.4974 29.2511C15.0989 29.6628 14.875 30.2213 14.875 30.8035C14.875 31.3858 15.0989 31.9443 15.4974 32.356C15.8959 32.7677 16.4364 32.9991 17 32.9991H34C34.5636 32.9991 35.1041 32.7677 35.5026 32.356C35.9011 31.9443 36.125 31.3858 36.125 30.8035C36.125 30.2213 35.9011 29.6628 35.5026 29.2511C35.1041 28.8393 34.5636 28.608 34 28.608H17Z" fill="white"/>
</svg>
