<svg height="512pt" viewBox="-26 0 512 512.00049" width="512pt" xmlns="http://www.w3.org/2000/svg"><path d="m435.621094 409.113281c-14.441406-1.988281-28.074219 7.109375-31.84375 21.191407-.890625 3.328124-1.878906 6.417968-2.941406 8.839843-5.40625 12.289063-12.480469 14.394531-19.324219 14.839844-10.957031.710937-18.40625-8.253906-35.230469-35.550781-18.28125-29.664063-43.320312-70.289063-96.339844-73.46875-15.863281-.949219-29.652344.855468-41.769531 4.4375 9.550781 4.839844 20.21875 7.78125 31.507813 8.316406.65625 15.527344-6.355469 25.898438-14.679688 32.683594-19.5-3.226563-37.3125-11.507813-52.074219-23.425782-12.375 8.90625-22.382812 19.144532-31.105469 28.082032-17.742187 18.179687-27.773437 27.683594-44.261718 27.851562-6.199219.070313-10.910156-2.070312-15.738282-7.164062-5.402343-5.6875-10.378906-14.730469-14.394531-26.144532-8.0625-22.929687-9.484375-47.070312-9.5-47.3125-.851562-15.957031-14.46875-28.214843-30.433593-27.390624-.132813.007812-.261719.011718-.390626.023437-15.796874 1.023437-27.878906 14.5625-27.0624995 30.417969.0664065 1.277344 1.7382815 31.605468 12.2539065 62.207031 22.125 64.371094 63.3125 73.574219 85.894531 73.332031 41.3125-.457031 65.605469-25.339844 85.121094-45.335937 21.488281-22.023438 35.011718-34.402344 63.164062-32.714844 21.839844 1.308594 33.402344 18.339844 50.460938 46.019531 8.835937 14.335938 17.976562 29.164063 30.265625 40.976563 16.671875 16.019531 36.207031 23.421875 58.070312 22.003906 32.046875-2.082031 56.773438-20.4375 69.621094-51.6875 2.171875-5.28125 3.792969-10.84375 5-16.234375 3.683594-16.4375-7.582031-32.492188-24.269531-34.792969zm0 0" fill="#ffa799"/><path d="m454.890625 437.113281c-12.851563 31.253907-37.578125 49.609375-69.621094 51.6875-21.863281 1.421875-41.398437-5.984375-58.074219-22.003906-12.289062-11.8125-21.425781-26.636719-30.261718-40.976563-17.058594-27.679687-28.621094-44.710937-50.460938-46.019531-4.429687-.265625-8.496094-.179687-12.289062.234375-2.542969 4.136719-5.746094 7.5625-9.183594 10.367188-4.398438-.726563-8.703125-1.722656-12.910156-2.949219-9.46875 5.640625-18.152344 14.167969-28.78125 25.066406-19.515625 19.996094-43.808594 44.875-85.125 45.332031-22.582032.242188-63.765625-8.957031-85.890625-73.332031-6.425781-18.691406-9.542969-37.269531-11.015625-49.199219-.972656 3.15625-1.417969 6.53125-1.2382815 10.019532.0664065 1.277344 1.7382815 31.605468 12.2539065 62.207031 22.125 64.371094 63.308593 73.574219 85.890625 73.332031 41.316406-.457031 65.609375-25.339844 85.125-45.335937 21.488281-22.023438 35.011718-34.402344 63.164062-32.714844 21.839844 1.308594 33.402344 18.339844 50.460938 46.019531 8.835937 14.335938 17.972656 29.164063 30.261718 40.976563 16.671876 16.019531 36.210938 23.421875 58.074219 22.003906 32.042969-2.082031 56.769531-20.4375 69.621094-51.6875 2.171875-5.28125 3.789063-10.847656 4.996094-16.234375 1.347656-6 .691406-11.941406-1.480469-17.191406-.976562 3.503906-2.121094 7.011718-3.515625 10.398437zm0 0" fill="#ff9084"/><path d="m165.292969 284.707031 21.511719 16.957031c7.394531 5.832032 18.121093 4.566407 23.953124-2.832031 5.832032-7.398437 4.566407-18.121093-2.832031-23.953125l-49.296875-38.871094c-5.132812-4.046874-12.125-4.804687-18.003906-1.953124-5.882812 2.851562-9.617188 8.8125-9.617188 15.347656v30.105468c0 55.710938 40.742188 102.078126 93.992188 110.894532 8.324219-6.789063 15.335938-17.15625 14.679688-32.6875-39.714844-1.878906-71.785157-33.484375-74.386719-73.007813zm0 0" fill="#d8d1d7"/><path d="m321.722656 104.972656v174.535156c0 31.246094-18.40625 58.265626-44.9375 70.816407 12.863282 4.585937 23.601563 11.683593 32.785156 20.015625 28.019532-20.464844 46.265626-53.554688 46.265626-90.832032v-174.535156c21.371093-7.152344 36.820312-27.347656 36.820312-51.09375 0-29.707031-24.167969-53.878906-53.878906-53.878906-29.707032 0-53.878906 24.171875-53.878906 53.878906.003906 23.746094 15.453124 43.941406 36.824218 51.09375zm17.054688-70.859375c10.898437 0 19.765625 8.867188 19.765625 19.765625 0 10.898438-8.867188 19.761719-19.765625 19.761719-10.898438 0-19.765625-8.863281-19.765625-19.761719 0-10.898437 8.867187-19.765625 19.765625-19.765625zm0 0" fill="#d8d1d7"/><path d="m338.777344 0c-3.179688 0-6.289063.292969-9.316406.824219 25.28125 4.425781 44.5625 26.523437 44.5625 53.054687 0 23.746094-15.449219 43.941406-36.824219 51.09375v174.535156c0 32.972657-14.277344 62.660157-36.964844 83.242188 3.28125 2.375 6.386719 4.917969 9.335937 7.589844 28.019532-20.464844 46.265626-53.554688 46.265626-90.832032v-174.535156c21.371093-7.152344 36.820312-27.347656 36.820312-51.09375 0-29.707031-24.167969-53.878906-53.878906-53.878906zm0 0" fill="#cac0c9"/><path d="m81.820312 415.746094c-5.402343-5.6875-10.382812-14.730469-14.394531-26.144532-1.355469-3.859374-2.519531-7.75-3.527343-11.554687-20.515626 10.410156-40.28125 14.078125-56.015626 14.902344 1.265626 4.78125 2.722657 9.683593 4.410157 14.597656 10.25 29.824219 24.59375 47.800781 39.28125 58.484375 39.96875-14.910156 45.984375-43.117188 45.984375-43.117188-6.203125.066407-10.910156-2.078124-15.738282-7.167968zm0 0" fill="#ff6c55"/><path d="m352.183594 427.839844c-24.382813 13.019531-36.835938 27.507812-43 40.15625 5.359375 7.804687 11.203125 15.28125 18.015625 21.828125 16.671875 16.019531 36.207031 23.421875 58.070312 22.003906 8.011719-.519531 15.566407-2.058594 22.589844-4.558594-34.246094-11.179687-26.347656-53.285156-26.347656-53.285156-9.585938.621094-16.488281-6.160156-29.328125-26.144531zm0 0" fill="#ff6c55"/><g fill="#ff544d"><path d="m15.195312 392.367188c-2.515624.261718-4.964843.457031-7.3125.582031 1.265626 4.777343 2.722657 9.683593 4.410157 14.597656 10.25 29.824219 24.59375 47.800781 39.28125 58.484375 9.085937-3.386719 16.398437-7.464844 22.304687-11.742188-19.972656-6.269531-43.109375-22.570312-58.683594-61.921874zm0 0"/><path d="m385.941406 488.746094c-.226562.019531-.445312.042968-.671875.058594-21.863281 1.417968-41.398437-5.984376-58.074219-22.007813-3.632812-3.492187-6.988281-7.253906-10.144531-11.183594-3.363281 4.242188-5.929687 8.40625-7.871093 12.386719 5.363281 7.800781 11.203124 15.277344 18.015624 21.824219 16.671876 16.019531 36.210938 23.425781 58.074219 22.003906 8.011719-.519531 15.566407-2.054687 22.589844-4.558594-11.289063-3.6875-17.996094-10.730469-21.917969-18.523437zm0 0"/></g></svg>