<svg width="16" height="16" viewBox="0 0 16 16" fill="none" xmlns="http://www.w3.org/2000/svg">
<path d="M2.44381 7.40785C2.16767 7.40862 1.89739 7.48756 1.66424 7.63553C1.4311 7.7835 1.24461 7.99446 1.12636 8.244C1.0081 8.49354 0.962916 8.77146 0.996023 9.0456C1.02913 9.31975 1.13918 9.57892 1.31344 9.79314L5.02821 14.3437C5.16066 14.5082 5.33043 14.6387 5.52344 14.7243C5.71645 14.81 5.92711 14.8484 6.13793 14.8363C6.58882 14.8121 6.9959 14.5709 7.25544 14.1743L14.972 1.74686C14.9732 1.7448 14.9745 1.74274 14.9759 1.74071C15.0483 1.62954 15.0248 1.40923 14.8754 1.27083C14.8343 1.23282 14.7859 1.20362 14.7332 1.18503C14.6804 1.16643 14.6244 1.15884 14.5686 1.16271C14.5128 1.16658 14.4583 1.18184 14.4086 1.20754C14.3589 1.23324 14.315 1.26884 14.2796 1.31215C14.2769 1.31556 14.274 1.31891 14.2711 1.32221L6.48885 10.115C6.45924 10.1484 6.42327 10.1757 6.38305 10.1951C6.34282 10.2145 6.29912 10.2258 6.25451 10.2282C6.20989 10.2306 6.16524 10.2241 6.12315 10.2092C6.08106 10.1942 6.04236 10.171 6.00931 10.1409L3.42654 7.79055C3.1583 7.54466 2.8077 7.40812 2.44381 7.40785Z" fill="#2B577B"/>
</svg>
