<svg width="13" height="13" viewBox="0 0 13 13" fill="none" xmlns="http://www.w3.org/2000/svg">
<g opacity="0.7" clip-path="url(#clip0_40_346)">
<path d="M12.8854 2.10452L10.8948 0.113892C10.7424 -0.0384521 10.4954 -0.0384521 10.3429 0.113892L6.49974 3.95742L2.65641 0.114095C2.50406 -0.038249 2.25706 -0.038249 2.10452 0.114095L0.113892 2.10472C-0.0384521 2.25706 -0.0384521 2.50406 0.113892 2.65661L3.95742 6.49974L0.114095 10.3431C-0.038249 10.4954 -0.038249 10.7424 0.114095 10.895L2.10472 12.8856C2.25706 13.0379 2.50406 13.0379 2.65661 12.8856L6.49974 9.04205L10.3431 12.8854C10.4954 13.0377 10.7424 13.0377 10.895 12.8854L12.8856 10.8948C13.0379 10.7424 13.0379 10.4954 12.8856 10.3429L9.04205 6.49974L12.8854 2.65641C13.0379 2.50427 13.0379 2.25706 12.8854 2.10452Z" fill="#F74354"/>
</g>
<defs>
<clipPath id="clip0_40_346">
<rect width="13" height="13" fill="white"/>
</clipPath>
</defs>
</svg>
