<svg width="54" height="56" viewBox="0 0 54 56" fill="none" xmlns="http://www.w3.org/2000/svg">
<path d="M13.5 51.1425H40.5C42.2902 51.1425 44.0071 50.4078 45.273 49.0999C46.5388 47.792 47.25 46.0182 47.25 44.1686V16.2726C47.25 15.0395 46.7759 13.857 45.932 12.9851C45.0881 12.1131 43.9435 11.6233 42.75 11.6233H38.25V6.97398C38.25 6.35744 38.0129 5.76616 37.591 5.3302C37.169 4.89424 36.5967 4.64932 36 4.64932C35.4033 4.64932 34.831 4.89424 34.409 5.3302C33.9871 5.76616 33.75 6.35744 33.75 6.97398V11.6233H20.25V6.97398C20.25 6.35744 20.0129 5.76616 19.591 5.3302C19.169 4.89424 18.5967 4.64932 18 4.64932C17.4033 4.64932 16.831 4.89424 16.409 5.3302C15.9871 5.76616 15.75 6.35744 15.75 6.97398V11.6233H11.25C10.0565 11.6233 8.91193 12.1131 8.06802 12.9851C7.22411 13.857 6.75 15.0395 6.75 16.2726V44.1686C6.75 46.0182 7.46116 47.792 8.72703 49.0999C9.9929 50.4078 11.7098 51.1425 13.5 51.1425ZM11.25 29.0583C11.25 28.75 11.3685 28.4543 11.5795 28.2364C11.7905 28.0184 12.0766 27.8959 12.375 27.8959H41.625C41.9234 27.8959 42.2095 28.0184 42.4205 28.2364C42.6315 28.4543 42.75 28.75 42.75 29.0583V44.1686C42.75 44.7851 42.5129 45.3764 42.091 45.8123C41.669 46.2483 41.0967 46.4932 40.5 46.4932H13.5C12.9033 46.4932 12.331 46.2483 11.909 45.8123C11.4871 45.3764 11.25 44.7851 11.25 44.1686V29.0583Z" fill="white"/>
</svg>
