<svg height="512" viewBox="0 0 58 40" width="512" xmlns="http://www.w3.org/2000/svg"><g id="Page-1" fill="none" fill-rule="evenodd"><g id="019---Business-Card"><rect id="Rectangle" fill="#b0d3f0" height="40" rx="4" width="58"/><path id="Path" d="m30.97 33.35v.01c-.1798592.9475035-1.0055901 1.6349141-1.97 1.64h-22c-.96440988-.0050859-1.79014081-.6924965-1.97-1.64v-.01c.30012932-1.178225.82285473-2.2881679 1.54-3.27 1.51778567-1.9423782 3.8449435-3.0782968 6.31-3.08h10.24c2.4650565.0017032 4.7922143 1.1376218 6.31 3.08.7171453.9818321 1.2398707 2.091775 1.54 3.27z" fill="#ecf0f1"/><path id="Path" d="m12.9999998 27 .0000002 2.56c-.0002374.5992835.2682707 1.167092.7316242 1.5471503s1.072716.5323093 1.6603758.4148497l2.608-.522 2.608.522c.5876598.1174596 1.1970223-.0347914 1.6603758-.4148497s.7318616-.9478668.7316242-1.5471503l.0000002-2.56z" fill="#fff"/><path id="Rectangle" d="m17 27h2v8h-2z" fill="#d1d4d1"/><path id="Path" d="m31 7v26c.0003736.1173244-.0096657.2344505-.03.35-.3001293-1.178225-.8228547-2.2881679-1.54-3.27-1.5177857-1.9423782-3.8449435-3.0782968-6.31-3.08h-10.24c-2.4650565.0017032-4.79221433 1.1376218-6.31 3.08-.71714527.9818321-1.23987068 2.091775-1.54 3.27-.02033426-.1155495-.03037364-.2326756-.03-.35v-26c.0032948-1.10320187.89679813-1.9967052 2-2h22c1.1032019.0032948 1.9967052.89679813 2 2z" fill="#3b97d3"/><path id="Path" d="m25 16v2c-4 0-5-4-5-4 0 4-9 3-9 3v-1c0-2.5008592 1.3341924-4.8117483 3.5-6.06217791 2.1658075-1.25042959 4.8341925-1.25042959 7 0 2.1658076 1.25042961 3.5 3.56131871 3.5 6.06217791z" fill="#cb8252"/><path id="Path" d="m25 18v3c-.0000001 3.8659932-3.1340068 6.9999999-7 6.9999999s-6.9999999-3.1340067-7-6.9999999v-4s9 1 9-3c0 0 1 4 5 4z" fill="#fdd7ad"/><path id="Path" d="m10.5 17h.5v5h-.5c-1.38071187 0-2.5-1.1192881-2.5-2.5s1.11928813-2.5 2.5-2.5z" fill="#f9c795"/><path id="Path" d="m27.5 17h.5v5h-.5c-1.3807119 0-2.5-1.1192881-2.5-2.5s1.1192881-2.5 2.5-2.5z" fill="#f9c795" transform="matrix(-1 0 0 -1 53 39)"/><g fill="#35495e"><path id="Path" d="m54 9h-19c-.5522847 0-1-.44771525-1-1s.4477153-1 1-1h19c.5522847 0 1 .44771525 1 1s-.4477153 1-1 1z"/><path id="Path" d="m43 13h-8c-.5522847 0-1-.4477153-1-1s.4477153-1 1-1h8c.5522847 0 1 .4477153 1 1s-.4477153 1-1 1z"/><path id="Path" d="m40 23h-5c-.5522847 0-1-.4477153-1-1s.4477153-1 1-1h5c.5522847 0 1 .4477153 1 1s-.4477153 1-1 1z"/><path id="Path" d="m54 23h-10c-.5522847 0-1-.4477153-1-1s.4477153-1 1-1h10c.5522847 0 1 .4477153 1 1s-.4477153 1-1 1z"/><path id="Path" d="m54 27h-19c-.5522847 0-1-.4477153-1-1s.4477153-1 1-1h19c.5522847 0 1 .4477153 1 1s-.4477153 1-1 1z"/><path id="Path" d="m42 31h-7c-.5522847 0-1-.4477153-1-1s.4477153-1 1-1h7c.5522847 0 1 .4477153 1 1s-.4477153 1-1 1z"/></g></g></g></svg>