<svg width="40" height="40" viewBox="0 0 40 40" fill="none" xmlns="http://www.w3.org/2000/svg">
<g clip-path="url(#clip0_122_209)">
<path d="M14.2247 2.44116C10.9703 -0.81376 5.69488 -0.81376 2.44143 2.44116C-0.813485 5.69617 -0.813485 10.9725 2.44143 14.2244C4.02685 15.8129 6.0939 16.6109 8.17228 16.6499C7.69182 15.2954 6.93978 14.0134 5.85582 12.9294L4.79783 11.8679C2.84484 9.91445 2.84435 6.75103 4.79783 4.79804C6.75131 2.84506 9.91521 2.84506 11.8682 4.79804L12.9277 5.85554C13.9961 6.92603 15.2691 7.71098 16.6526 8.20247C16.6206 6.11316 15.8197 4.03615 14.2247 2.44116Z" fill="white"/>
<path d="M37.5582 2.44175C34.3052 -0.813165 29.0289 -0.813165 25.7749 2.44175C24.1879 4.02717 23.3889 6.09422 23.35 8.17416C24.7054 7.69214 25.9864 6.9402 27.0704 5.85624L28.1308 4.79825C30.0843 2.84526 33.2498 2.84526 35.2012 4.79825C37.1542 6.75173 37.1542 9.91514 35.2012 11.8681L34.1447 12.9296C33.0742 13.9966 32.2877 15.2696 31.7982 16.6531C33.8862 16.6211 35.9647 15.8201 37.5581 14.2251C40.8137 10.97 40.8137 5.69716 37.5582 2.44175Z" fill="white"/>
<path d="M37.5598 25.7748C35.9728 24.1893 33.9053 23.3883 31.8273 23.3493C32.3094 24.7064 33.0594 25.9858 34.1433 27.0698L35.2018 28.1308C37.1548 30.0843 37.1548 33.2512 35.2018 35.2012C33.2499 37.1542 30.0844 37.1542 28.1314 35.2012L27.072 34.1467C26.0029 33.0757 24.73 32.2882 23.3466 31.7998C23.3791 33.8863 24.181 35.9662 25.7745 37.5582C29.0295 40.8136 34.3044 40.8136 37.5599 37.5582C40.8132 34.3061 40.8132 29.0302 37.5598 25.7748Z" fill="white"/>
<path d="M12.9297 34.1431L11.8693 35.2016C9.91577 37.1545 6.74982 37.1545 4.79888 35.2016C2.84589 33.2511 2.84589 30.0842 4.79888 28.1312L5.85482 27.0732C6.92531 26.0027 7.71181 24.7298 8.20175 23.3463C6.11331 23.3783 4.03483 24.1823 2.44131 25.7743C-0.813607 29.0297 -0.813607 34.3057 2.44131 37.5611C5.69427 40.813 10.9711 40.813 14.2246 37.5611C15.8116 35.9726 16.6111 33.9051 16.65 31.8287C15.2941 32.3106 14.0136 33.0591 12.9297 34.1431Z" fill="white"/>
<path d="M31.7848 10.573L34.0227 8.33362L31.6662 5.97713L29.4283 8.21361C24.2213 13.4215 15.7776 13.4215 10.5727 8.21361L8.33172 5.97713L5.97522 8.33362L8.21316 10.573C13.418 15.7744 13.4196 24.2117 8.22166 29.4201L5.97571 31.6661L8.3322 34.0226L10.5716 31.7861C15.7781 26.5782 24.2204 26.5782 29.4267 31.7861L31.6661 34.0226L34.0226 31.6661L31.7847 29.4267C26.5783 24.2218 26.5783 15.7779 31.7848 10.573Z" fill="white"/>
</g>
<defs>
<clipPath id="clip0_122_209">
<rect width="40" height="40" fill="white"/>
</clipPath>
</defs>
</svg>
