<svg id="edit_1_" data-name="edit (1)" xmlns="http://www.w3.org/2000/svg" width="13.828" height="13.828" viewBox="0 0 13.828 13.828">
  <path id="Path_511" data-name="Path 511" d="M12.868.555,5.843,7.579A2.861,2.861,0,0,0,5,9.616v.774a.576.576,0,0,0,.576.576H6.35a2.861,2.861,0,0,0,2.037-.843L15.411,3.1a1.8,1.8,0,0,0,0-2.543,1.84,1.84,0,0,0-2.543,0ZM14.6,2.283,7.572,9.308a1.74,1.74,0,0,1-1.222.506h-.2v-.2a1.74,1.74,0,0,1,.506-1.222L13.683,1.37a.661.661,0,0,1,.914,0,.647.647,0,0,1,0,.914Z" transform="translate(-2.119 -0.019)" fill="#464646"/>
  <path id="Path_512" data-name="Path 512" d="M13.251,5.173a.576.576,0,0,0-.576.576V8.642h-2.3a1.728,1.728,0,0,0-1.728,1.728v2.3H2.881a1.728,1.728,0,0,1-1.728-1.728V2.881A1.728,1.728,0,0,1,2.881,1.152H8.09A.576.576,0,1,0,8.09,0H2.881A2.884,2.884,0,0,0,0,2.881v8.066a2.884,2.884,0,0,0,2.881,2.881H9.416a2.862,2.862,0,0,0,2.037-.843l1.53-1.531a2.862,2.862,0,0,0,.844-2.037V5.749A.576.576,0,0,0,13.251,5.173Zm-2.613,7a1.714,1.714,0,0,1-.844.461v-2.26a.576.576,0,0,1,.576-.576h2.261a1.738,1.738,0,0,1-.461.843Z" fill="#464646"/>
</svg>
