<svg width="50" height="52" viewBox="0 0 50 52" fill="none" xmlns="http://www.w3.org/2000/svg">
<path d="M45.8334 10.895V19.5049L25 28.1147L4.16669 19.5049V10.895C4.16669 10.3242 4.38618 9.77668 4.77688 9.37301C5.16758 8.96935 5.69749 8.74257 6.25002 8.74257H43.75C44.3026 8.74257 44.8325 8.96935 45.2232 9.37301C45.6139 9.77668 45.8334 10.3242 45.8334 10.895ZM4.16669 24.1413V41.0295C4.16669 41.6004 4.38618 42.1479 4.77688 42.5515C5.16758 42.9552 5.69749 43.182 6.25002 43.182H43.75C44.3026 43.182 44.8325 42.9552 45.2232 42.5515C45.6139 42.1479 45.8334 41.6004 45.8334 41.0295V24.1413L25 32.7511L4.16669 24.1413Z" fill="white"/>
</svg>
