<svg xmlns="http://www.w3.org/2000/svg" width="17.187" height="12.89" viewBox="0 0 17.187 12.89">
  <g id="eye_1_" data-name="eye (1)" transform="translate(0 -3)">
    <path id="Path_513" data-name="Path 513" d="M17.059,8.859h0C16.43,7.484,13.965,3,8.594,3S.757,7.484.128,8.859a1.41,1.41,0,0,0,0,1.174c.629,1.374,3.094,5.857,8.465,5.857s7.837-4.484,8.465-5.859A1.409,1.409,0,0,0,17.059,8.859ZM8.594,13.742a4.3,4.3,0,1,1,4.3-4.3A4.3,4.3,0,0,1,8.594,13.742Z" transform="translate(0 0)" fill="#464646"/>
    <circle id="Ellipse_80" data-name="Ellipse 80" cx="2.5" cy="2.5" r="2.5" transform="translate(6 7)" fill="#464646"/>
  </g>
</svg>
