<svg id="Capa_1" enable-background="new 0 0 512 512" height="512" viewBox="0 0 512 512" width="512" xmlns="http://www.w3.org/2000/svg" xmlns:xlink="http://www.w3.org/1999/xlink"><linearGradient id="SVGID_1_" gradientUnits="userSpaceOnUse" x1="115" x2="115" y1="512" y2="282"><stop offset="0" stop-color="#ffc8d1"/><stop offset="1" stop-color="#fff6f7"/></linearGradient><linearGradient id="SVGID_00000155834586922955094200000004859336049300652421_" gradientUnits="userSpaceOnUse" x1="257" x2="257" y1="462" y2="0"><stop offset="0" stop-color="#fd3a84"/><stop offset="1" stop-color="#ffa68d"/></linearGradient><g><circle cx="115" cy="397" fill="url(#SVGID_1_)" r="115"/><path d="m512 147c0 59.17-41.899 129.977-124.535 210.451-60.186 58.612-119.391 100.112-121.882 101.851-2.578 1.799-5.581 2.698-8.583 2.698s-6.005-.899-8.583-2.698c-.555-.387-10.651-7.448-26.597-19.71 5.273-13.179 8.18-27.552 8.18-42.592 0-63.411-51.589-115-115-115-17.103 0-33.343 3.759-47.946 10.485-43.185-54.15-65.054-103.021-65.054-145.485 0-81.056 65.944-147 147-147 41.211 0 80.34 17.433 108 47.412 27.66-29.979 66.789-47.412 108-47.412 81.056 0 147 65.944 147 147zm-357 235h-25v-25c0-8.284-6.716-15-15-15s-15 6.716-15 15v25h-25c-8.284 0-15 6.716-15 15s6.716 15 15 15h25v25c0 8.284 6.716 15 15 15s15-6.716 15-15v-25h25c8.284 0 15-6.716 15-15s-6.716-15-15-15z" fill="url(#SVGID_00000155834586922955094200000004859336049300652421_)"/></g></svg>