<svg width="27" height="27" viewBox="0 0 27 27" fill="none" xmlns="http://www.w3.org/2000/svg">
<g clip-path="url(#clip0_56_49)">
<path d="M13.5 27C20.9558 27 27 20.9558 27 13.5C27 6.04416 20.9558 0 13.5 0C6.04416 0 0 6.04416 0 13.5C0 20.9558 6.04416 27 13.5 27Z" fill="#F2F6FA"/>
<path fill-rule="evenodd" clip-rule="evenodd" d="M14.2162 8.62708C15.7786 6.93726 18.3404 6.93151 19.9082 8.62708C21.4736 10.3201 21.4736 13.0901 19.9083 14.7831C17.9097 16.9446 15.9115 19.1059 13.913 21.2673C13.8027 21.3866 13.6627 21.4479 13.5 21.4479C13.3374 21.4479 13.1975 21.3866 13.0871 21.2673C11.0886 19.1059 9.09019 16.9446 7.09171 14.7832C5.5264 13.0903 5.5264 10.3202 7.09171 8.62729C8.65713 6.93425 11.2184 6.93425 12.7838 8.62719L13.4999 9.40175L14.2162 8.62708Z" fill="#E86767"/>
</g>
<defs>
<clipPath id="clip0_56_49">
<rect width="27" height="27" fill="white"/>
</clipPath>
</defs>
</svg>
