<svg width="23" height="23" viewBox="0 0 23 23" fill="none" xmlns="http://www.w3.org/2000/svg">
<g clip-path="url(#clip0_72_235)">
<path d="M22.0406 18.4472H19.4189C18.9014 16.5433 16.9386 15.4194 15.0347 15.9369C13.8119 16.2692 12.8567 17.2244 12.5244 18.4472H0.959414C0.430197 18.4472 0.00118828 18.8762 0.00118828 19.4054C0.00118828 19.9347 0.430197 20.3637 0.959414 20.3637H12.5244C13.0418 22.2676 15.0047 23.3915 16.9085 22.8741C18.1313 22.5417 19.0865 21.5865 19.4189 20.3637H22.0406C22.5698 20.3637 22.9989 19.9347 22.9989 19.4055C22.9989 18.8763 22.5698 18.4472 22.0406 18.4472Z" fill="#2772AF"/>
<path d="M0.959383 12.4582H3.58112C4.09754 14.3618 6.0593 15.4864 7.9629 14.97C9.18668 14.638 10.1427 13.6821 10.4747 12.4582H22.0406C22.5698 12.4582 22.9988 12.0292 22.9988 11.5C22.9988 10.9708 22.5698 10.5418 22.0406 10.5418H10.4747C9.95827 8.63819 7.9965 7.51364 6.0929 8.03001C4.86913 8.362 3.91311 9.31797 3.58112 10.5418H0.959383C0.430166 10.5418 0.00115776 10.9708 0.00115776 11.5C0.00115776 12.0292 0.430166 12.4582 0.959383 12.4582Z" fill="#2772AF"/>
<path d="M0.959383 4.55278H12.5244C13.0418 6.45665 15.0046 7.58057 16.9085 7.06312C18.1313 6.73078 19.0865 5.77557 19.4189 4.55278H22.0406C22.5698 4.55278 22.9988 4.12377 22.9988 3.59456C22.9988 3.06534 22.5698 2.63633 22.0406 2.63633H19.4189C18.9014 0.732465 16.9386 -0.391458 15.0347 0.12599C13.8119 0.458334 12.8567 1.41355 12.5244 2.63633H0.959383C0.430166 2.63633 0.00115776 3.06534 0.00115776 3.59456C0.00115776 4.12377 0.430166 4.55278 0.959383 4.55278Z" fill="#2772AF"/>
</g>
<defs>
<clipPath id="clip0_72_235">
<rect width="23" height="23" fill="white" transform="matrix(-1 0 0 -1 23 23)"/>
</clipPath>
</defs>
</svg>
