<svg height="511pt" viewBox="0 -13 511.99984 511" width="511pt" xmlns="http://www.w3.org/2000/svg"><path d="m491.570312 361.59375c-11.265624 0-20.429687-9.164062-20.429687-20.429688v-308.109374c0-3.144532 2.550781-5.691407 5.695313-5.691407 3.140624 0 5.691406 2.546875 5.691406 5.691407v308.109374c0 4.984376 4.058594 9.042969 9.042968 9.042969 4.984376 0 9.042969-4.058593 9.042969-9.042969v-7.445312c0-3.140625 2.546875-5.691406 5.691407-5.691406 3.144531 0 5.695312 2.550781 5.695312 5.691406v7.445312c0 11.265626-9.164062 20.429688-20.429688 20.429688zm0 0" fill="#a5c8cd"/><path d="m323.089844 204.871094-66.136719-16.644532c-2.558594-.644531-4.945313-1.855468-6.976563-3.542968l-67.894531-56.367188c-7.511719-6.234375-8.546875-17.382812-2.3125-24.890625 6.238281-7.511719 17.382813-8.546875 24.894531-2.3125l64.808594 53.808594 62.25 15.664063c9.464844 2.386718 15.210938 11.992187 12.824219 21.457031-2.382813 9.46875-11.992187 15.210937-21.457031 12.828125zm0 0" fill="#e69b83"/><path d="m112.980469 440.933594c-10.628907-4.925782-15.25-17.539063-10.320313-28.164063l41.328125-89.132812-4-75.449219c.554688-8.296875 8.691407-21.160156 20.394531-21.746094 11.699219-.582031 21.65625 8.429688 22.242188 20.132813l3.996094 80.179687c.171875 3.4375-.496094 6.859375-1.941406 9.980469l-43.53125 93.878906c-4.925782 10.625-17.539063 15.25-28.167969 10.320313zm0 0" fill="#5f6e9b"/><path d="m225.320312 423.535156-8.90625-102.042968-27.171874-80.800782c-3.734376-11.105468 2.242187-23.132812 13.34375-26.867187 11.105468-3.734375 23.136718 2.242187 26.867187 13.34375l27.980469 83.199219c.535156 1.589843.878906 3.242187 1.023437 4.914062l9.128907 104.566406c1.019531 11.671875-7.617188 21.957032-19.289063 22.976563-11.71875 1.019531-21.960937-7.664063-22.976563-19.289063zm0 0" fill="#414b82"/><path d="m139.988281 248.183594 98.792969 6.609375 8.957031-133.980469c.964844-14.421875-9.945312-26.894531-24.367187-27.859375l-46.566406-3.113281c-14.421876-.964844-26.894532 9.945312-27.859376 24.367187zm0 0" fill="#64afff"/><path d="m211.398438.585938c-21.347657-1.425782-39.8125 14.722656-41.238282 36.074218-1.429687 21.347656 14.722656 39.8125 36.070313 41.238282 21.351562 1.429687 39.816406-14.722657 41.242187-36.070313 1.425782-21.351563-14.722656-39.816406-36.074218-41.242187zm0 0" fill="#ffb69e"/><path d="m270.339844 209.667969c-2.515625 0-5.003906-1.089844-6.714844-3.191407-3.015625-3.703124-2.453125-9.152343 1.25-12.167968l221.238281-179.949219c3.703125-3.011719 9.152344-2.453125 12.167969 1.253906 3.011719 3.703125 2.453125 9.152344-1.253906 12.167969l-221.234375 179.949219c-1.605469 1.304687-3.535157 1.9375-5.453125 1.9375zm0 0" fill="#55879b"/><path d="m322.875 182.910156c-6.1875-7.980468-4.730469-19.5 3.246094-25.6875 7.992187-6.199218 19.480468-4.753906 25.683594 3.242188 6.203124 7.996094 4.75 19.484375-3.242188 25.6875-7.976562 6.1875-19.472656 4.765625-25.6875-3.242188zm11.195312-15.4375c-2.324218 1.804688-2.746093 5.160156-.945312 7.484375s5.160156 2.75 7.484375.945313c2.328125-1.804688 2.75-5.152344.945313-7.480469-1.8125-2.339844-5.164063-2.75-7.484376-.949219zm0 0" fill="#46738c"/><path d="m269.507812 236.875-61.210937-37.660156c-3.464844-2.132813-6.089844-5.394532-7.429687-9.238282l-9.292969-26.6875 11.878906-21.621093 21.183594 9.070312 7.546875 21.664063 55.847656 34.359375c8.316406 5.117187 10.910156 16.003906 5.796875 24.320312-5.132813 8.335938-16.027344 10.894531-24.320313 5.792969zm0 0" fill="#ffb69e"/><path d="m224.636719 150.738281-14.574219-41.835937c-3.210938-9.21875-13.289062-14.09375-22.507812-10.878906-9.21875 3.210937-14.089844 13.285156-10.878907 22.507812l14.894531 42.761719zm0 0" fill="#4699f2"/><path d="m43.152344 474.363281h345.207031c2.046875-2.574219 3.890625-5.34375 5.496094-8.289062 15.871093-29.167969 34.644531-61.890625 37.585937-96.671875.960938-11.34375-8.03125-21.074219-19.417968-21.074219h-392.535157c-11.382812 0-20.378906 9.730469-19.4179685 21.074219 2.9414065 34.78125 21.7148435 67.503906 37.5859375 96.671875 1.601562 2.945312 3.449219 5.714843 5.496094 8.289062zm0 0" fill="#965028"/><path d="m385.148438 486.140625c-8.625 0-17.25-2.132813-23.96875-6.390625-7.285157-4.621094-20.066407-4.621094-27.351563-.003906-13.4375 8.523437-34.496094 8.523437-47.933594.003906-7.285156-4.621094-20.066406-4.621094-27.351562 0-13.4375 8.519531-34.492188 8.519531-47.933594 0-7.28125-4.621094-20.066406-4.621094-27.351563-.003906-13.4375 8.523437-34.496093 8.523437-47.933593.003906-7.285157-4.621094-20.066407-4.621094-27.351563 0-13.4375 8.519531-34.492187 8.519531-47.933594 0-7.285156-4.621094-20.066406-4.621094-27.351562 0-4.480469 2.839844-10.417969 1.511719-13.257812-2.96875-2.84375-4.480469-1.511719-10.417969 2.96875-13.261719 13.4375-8.523437 34.492187-8.523437 47.933593 0 7.285157 4.621094 20.066407 4.621094 27.351563 0 13.4375-8.519531 34.492187-8.519531 47.933594 0 7.285156 4.621094 20.066406 4.621094 27.351562 0 13.4375-8.523437 34.492188-8.523437 47.933594 0 7.285156 4.621094 20.066406 4.621094 27.351562 0 13.4375-8.519531 34.492188-8.519531 47.933594 0 7.285156 4.621094 20.066406 4.621094 27.351562 0 13.4375-8.519531 34.492188-8.523437 47.933594 0 7.28125 4.621094 20.066406 4.621094 27.351563 0 4.480469-2.839843 10.414062-1.511719 13.257812 2.96875 2.839844 4.484375 1.511719 10.417969-2.96875 13.261719-6.71875 4.257812-15.34375 6.390625-23.964843 6.390625zm0 0" fill="#73c8f0"/></svg>