<svg width="32" height="14" viewBox="0 0 32 14" fill="none" xmlns="http://www.w3.org/2000/svg">
<g clip-path="url(#clip0_616_5)">
<path d="M31.8662 7.46825C27.0608 15.0569 11.4087 16.2945 4.21866 9.80044L1.83134 11.8216C1.61639 12.0037 1.28203 11.9388 1.1552 11.6903L0.0284524 9.48377C-0.000377335 9.42805 -0.00703035 9.36428 0.00815218 9.30516C0.0171082 9.27067 0.0358731 9.23916 0.0604381 9.21262L2.09857 7.01203L2.10522 7.01734C2.10479 7.01394 2.10479 7.01012 2.10479 7.00672L2.09857 7.01203L0.0604381 4.81135C0.0358731 4.78482 0.0171082 4.75331 0.00815218 4.71882C-0.00703035 4.65961 -0.00046263 4.59634 0.0284524 4.54021L1.1552 2.33356C1.28203 2.08514 1.61639 2.02029 1.83134 2.2023L4.20501 4.2121C11.3888 -2.2964 27.0576 -1.06215 31.8662 6.53143C32.0449 6.8136 32.0449 7.18566 31.8662 7.46825Z" fill="url(#paint0_linear_616_5)"/>
<path d="M24.7329 6.31263C25.5669 6.31263 26.243 5.65535 26.243 4.84455C26.243 4.03375 25.5669 3.37646 24.7329 3.37646C23.8988 3.37646 23.2227 4.03375 23.2227 4.84455C23.2227 5.65535 23.8988 6.31263 24.7329 6.31263Z" fill="white"/>
</g>
<defs>
<linearGradient id="paint0_linear_616_5" x1="16.0002" y1="-0.00012207" x2="16.0002" y2="13.9999" gradientUnits="userSpaceOnUse">
<stop stop-color="#2772AF"/>
<stop offset="1" stop-color="#174A73"/>
</linearGradient>
<clipPath id="clip0_616_5">
<rect width="32" height="14" fill="white"/>
</clipPath>
</defs>
</svg>
