<?xml version="1.0" encoding="UTF-8"?>
<svg id="Layer_2" data-name="Layer 2" xmlns="http://www.w3.org/2000/svg" viewBox="0 0 3751.68 1688.39">
  <defs>
    <style>
      .cls-1 {
        fill: #fff;
      }

      .cls-2 {
        fill: #797a7a;
      }
    </style>
  </defs>
  <g id="Layer_2-2" data-name="Layer 2">
    <g id="Layer_1-2" data-name="Layer 1-2">
      <path class="cls-2" d="m3735.97,900.68c-563.39,915.19-2398.44,1064.44-3241.4,281.26l-279.89,243.75c-25.2,21.96-64.4,14.13-79.27-15.83L3.31,1143.75c-3.38-6.72-4.16-14.41-2.38-21.54,1.05-4.16,3.25-7.96,6.13-11.16l238.95-265.39.78.64c-.05-.41-.05-.87-.05-1.28l-.73.64L7.06,580.26c-2.88-3.2-5.08-7-6.13-11.16-1.78-7.14-1.01-14.77,2.38-21.54l132.1-266.12c14.87-29.96,54.07-37.78,79.27-15.83l278.29,242.38C1335.2-276.93,3172.21-128.08,3735.97,787.7c20.95,34.03,20.95,78.9,0,112.98Z"/>
      <circle class="cls-1" cx="2899.68" cy="584.25" r="177.05"/>
    </g>
  </g>
</svg>