<svg width="32" height="14" viewBox="0 0 32 14" fill="none" xmlns="http://www.w3.org/2000/svg">
<g clip-path="url(#clip0_72_54)">
<path d="M31.8661 7.46837C27.0606 15.0571 11.4085 16.2946 4.21849 9.80056L1.83117 11.8217C1.61622 12.0038 1.28187 11.9389 1.15503 11.6905L0.0282846 9.48389C-0.000545181 9.42817 -0.0071982 9.3644 0.00798433 9.30528C0.0169403 9.27079 0.0357052 9.23928 0.0602702 9.21275L2.0984 7.01215L2.10505 7.01746C2.10462 7.01406 2.10462 7.01024 2.10462 7.00685L2.0984 7.01215L0.0602702 4.81148C0.0357052 4.78494 0.0169403 4.75343 0.00798433 4.71894C-0.0071982 4.65973 -0.000630476 4.59647 0.0282846 4.54033L1.15503 2.33368C1.28187 2.08526 1.61622 2.02041 1.83117 2.20242L4.20484 4.21222C11.3887 -2.29628 27.0575 -1.06203 31.8661 6.53155C32.0447 6.81373 32.0447 7.18578 31.8661 7.46837Z" fill="#174A73"/>
<path d="M24.7329 6.3127C25.5669 6.3127 26.243 5.65541 26.243 4.84461C26.243 4.03381 25.5669 3.37653 24.7329 3.37653C23.8988 3.37653 23.2227 4.03381 23.2227 4.84461C23.2227 5.65541 23.8988 6.3127 24.7329 6.3127Z" fill="white"/>
</g>
<defs>
<clipPath id="clip0_72_54">
<rect width="32" height="14" fill="white"/>
</clipPath>
</defs>
</svg>
