<svg height="512pt" viewBox="0 -48 512.00103 512" width="512pt" xmlns="http://www.w3.org/2000/svg"><path d="m326.125 407.96875-9.554688-47.894531c-.398437-1.988281-1.582031-3.734375-3.285156-4.839844-1.703125-1.101563-3.78125-1.46875-5.757812-1.019531-12.023438 2.738281-24.445313 4.125-36.914063 4.125-12.414062 0-24.558593-1.023438-36.105469-3.042969-1-.175781-2.0625-.136719-3.050781.09375-2.308593.539063-4.226562 2.132813-5.179687 4.304687-.949219 2.171876-.820313 4.664063.347656 6.726563 1.078125 1.894531 27.070312 46.449219 91.65625 50.523437.15625.007813.3125.015626.472656.015626 2.160156 0 4.226563-.933594 5.660156-2.570313 1.535157-1.757813 2.167969-4.128906 1.710938-6.421875zm0 0" fill="#ff7c66"/><path d="m316.570312 360.074219c-.398437-1.988281-1.582031-3.734375-3.285156-4.839844-1.703125-1.101563-3.78125-1.46875-5.757812-1.019531-12.023438 2.738281-24.445313 4.125-36.914063 4.125-12.414062 0-24.558593-1.023438-36.105469-3.042969-1-.175781-2.0625-.136719-3.050781.09375-2.308593.539063-4.226562 2.132813-5.179687 4.304687-.949219 2.171876-.820313 4.664063.347656 6.726563.53125.933594 7.101562 12.199219 21.332031 23.886719 7.234375.714844 14.773438 1.113281 22.65625 1.113281 17.351563 0 34.3125-2.417969 50.769531-7.222656zm0 0" fill="#ff6c55"/><path d="m348.855469 104.035156c-1.359375-1.5-3.273438-2.386718-5.296875-2.460937-86.210938-3.085938-128.695313 43.628906-130.460938 45.617187-1.714844 1.933594-2.308594 4.613282-1.585937 7.09375.722656 2.484375 2.675781 4.421875 5.160156 5.132813 1.285156.363281 2.636719.382812 3.929687.054687 15.621094-3.996094 32.445313-6.023437 50.011719-6.023437 33.621094 0 65.648438 9.910156 95.183594 29.457031 1.253906.832031 2.699219 1.25 4.148437 1.25 1.300782 0 2.601563-.335938 3.769532-1.011719 2.46875-1.429687 3.917968-4.136719 3.734375-6.984375-2.746094-43.167968-27.539063-70.960937-28.59375-72.125zm0 0" fill="#ff7c66"/><path d="m373.714844 183.144531c2.46875-1.433593 3.917968-4.136719 3.734375-6.984375-.558594-8.761718-2.03125-16.875-4.023438-24.273437-1.457031-.957031-2.921875-1.902344-4.398437-2.820313-30.636719-19.042968-63.746094-28.699218-98.414063-28.699218-7.613281 0-14.898437.375-21.90625 1.039062-22.964843 11.847656-34.699219 24.761719-35.609375 25.785156-1.714844 1.933594-2.308594 4.613282-1.585937 7.09375.722656 2.484375 2.675781 4.421875 5.160156 5.132813 1.285156.363281 2.636719.382812 3.929687.054687 15.621094-3.996094 32.445313-6.023437 50.011719-6.023437 33.621094 0 65.648438 9.910156 95.183594 29.457031 1.253906.832031 2.699219 1.25 4.148437 1.25 1.300782 0 2.601563-.335938 3.769532-1.011719zm0 0" fill="#ff6c55"/><path d="m43.46875 165.609375c-4.152344 0-7.515625-3.367187-7.515625-7.519531v-150.570313c0-4.152343 3.363281-7.519531 7.515625-7.519531s7.519531 3.367188 7.519531 7.519531v150.570313c0 4.152344-3.367187 7.519531-7.519531 7.519531zm0 0" fill="#7b7179"/><path d="m72.601562 373.257812c-20.207031 0-36.648437-16.441406-36.648437-36.648437v-91.882813c0-4.152343 3.363281-7.515624 7.515625-7.515624s7.519531 3.363281 7.519531 7.515624v91.882813c0 11.917969 9.695313 21.613281 21.613281 21.613281 11.921876 0 21.617188-9.695312 21.617188-21.613281v-2.671875l-.929688.808594c-3.121093 2.738281-7.871093 2.421875-10.609374-.703125-2.734376-3.121094-2.417969-7.871094.707031-10.609375l13.394531-11.730469c2.222656-1.941406 5.375-2.410156 8.0625-1.191406 2.683594 1.21875 4.410156 3.898437 4.410156 6.847656v19.25c0 20.207031-16.441406 36.648437-36.652344 36.648437zm0 0" fill="#7b7179"/><path d="m510.21875 332.84375c-.308594-.367188-30.964844-37.050781-30.964844-76.953125 0-39.761719 30.660156-76.589844 30.972656-76.957031 2.023438-2.398438 2.347657-5.800782.808594-8.535156-1.539062-2.738282-4.613281-4.234376-7.71875-3.746094-39.753906 6.238281-65.210937 27.433594-80.605468 46.707031-16.234376-18.636719-34.257813-34.167969-53.683594-46.246094-30.636719-19.046875-63.746094-28.703125-98.414063-28.703125-71.34375 0-115.699219 31.183594-140.339843 57.347656-26.714844 28.359376-36.429688 56.546876-36.832032 57.730469-.527344 1.5625-.527344 3.25 0 4.8125.398438 1.183594 10.113282 29.371094 36.832032 57.730469 24.644531 26.160156 68.996093 57.347656 140.339843 57.347656 34.667969 0 67.78125-9.65625 98.414063-28.703125 19.429687-12.078125 37.453125-27.613281 53.683594-46.25 15.398437 19.273438 40.851562 40.464844 80.605468 46.703125 3.101563.488282 6.179688-1.007812 7.71875-3.746094 1.539063-2.738281 1.214844-6.144531-.816406-8.539062zm0 0" fill="#ffb541"/><path d="m493.53125 307.132812c-30.855469-7.140624-52.210938-23.503906-66.441406-39.589843-2.378906-2.6875-6.535156-2.726563-8.957032-.082031-15.019531 16.375-31.484374 30.171874-49.105468 41.125-30.632813 19.046874-63.746094 28.703124-98.414063 28.703124-71.34375 0-115.699219-31.183593-140.339843-57.347656-14.664063-15.5625-24.195313-31.066406-29.886719-42.09375-4.679688 9.0625-6.765625 15.105469-6.945313 15.640625-.527344 1.5625-.527344 3.25 0 4.8125.402344 1.183594 10.117188 29.371094 36.832032 57.730469 24.644531 26.160156 68.996093 57.347656 140.339843 57.347656 34.667969 0 67.78125-9.65625 98.414063-28.703125 19.429687-12.078125 37.453125-27.613281 53.683594-46.25 15.398437 19.273438 40.855468 40.464844 80.605468 46.703125 3.105469.488282 6.179688-1.007812 7.71875-3.746094 1.539063-2.738281 1.214844-6.144531-.816406-8.539062-.160156-.191406-8.644531-10.351562-16.6875-25.710938zm0 0" fill="#ffa812"/><path d="m43.46875 150.570312c-25.1875 0-43.46875 18.285157-43.46875 43.472657 0 27.527343 17.851562 58.203125 43.46875 58.203125 25.621094 0 43.472656-30.675782 43.472656-58.203125 0-25.1875-18.28125-43.472657-43.472656-43.472657zm0 0" fill="#e6e2e6"/><path d="m43.46875 150.570312c-6.207031 0-11.992188 1.117188-17.191406 3.167969 15.890625 6.269531 26.273437 21.324219 26.273437 40.304688 0 20.820312-10.214843 43.429687-26.273437 53.21875 5.171875 3.152343 10.949218 4.984375 17.191406 4.984375 25.621094 0 43.472656-30.675782 43.472656-58.203125 0-25.1875-18.28125-43.472657-43.472656-43.472657zm0 0" fill="#d8d1d7"/><path d="m43.46875 150.570312c-25.1875 0-43.46875 18.285157-43.46875 43.472657 0 2.695312.164062 5.449219.488281 8.183593.335938 2.84375 2.253907 5.246094 4.949219 6.203126 10.992188 3.902343 24.863281 6.140624 38.054688 6.140624 13.164062 0 27.019531-2.234374 38.003906-6.121093 2.695312-.957031 4.617187-3.363281 4.957031-6.203125.324219-2.742188.488281-5.5.488281-8.207032 0-25.183593-18.28125-43.46875-43.472656-43.46875zm0 0" fill="#ff6c55"/><path d="m137.90625 79.074219c-14.5625 0-26.410156 11.847656-26.410156 26.414062 0 14.5625 11.847656 26.410157 26.410156 26.410157 14.566406 0 26.414062-11.847657 26.414062-26.410157 0-14.566406-11.847656-26.414062-26.414062-26.414062zm0 0" fill="#8bcaff"/><path d="m137.90625 109.214844c-10.507812 0-19.597656-6.164063-23.847656-15.070313-1.640625 3.4375-2.5625 7.285157-2.5625 11.339844 0 14.566406 11.847656 26.414063 26.410156 26.414063 14.566406 0 26.414062-11.847657 26.414062-26.414063 0-4.054687-.921874-7.902344-2.566406-11.339844-4.25 8.90625-13.339844 15.070313-23.847656 15.070313zm0 0" fill="#60b8ff"/><path d="m227.585938 3.804688c-19.601563 0-35.546876 15.945312-35.546876 35.546874 0 19.601563 15.945313 35.546876 35.546876 35.546876 19.597656 0 35.542968-15.945313 35.542968-35.546876 0-19.601562-15.945312-35.546874-35.542968-35.546874zm0 0" fill="#8bcaff"/><path d="m227.585938 48.855469c-15.003907 0-27.859376-9.351563-33.066407-22.527344-1.59375 4.039063-2.480469 8.425781-2.480469 13.023437 0 19.601563 15.945313 35.546876 35.546876 35.546876 19.597656 0 35.542968-15.945313 35.542968-35.546876 0-4.597656-.886718-8.984374-2.480468-13.023437-5.207032 13.175781-18.058594 22.527344-33.0625 22.527344zm0 0" fill="#60b8ff"/><path d="m188.621094 162.167969c-2.019532-3.4375-6.363282-4.703125-9.910156-2.886719-63.886719 32.734375-84.425782 91.710938-85.269532 94.207031-.527344 1.558594-.527344 3.25 0 4.8125.84375 2.496094 21.382813 61.472657 85.269532 94.203125 1.09375.5625 2.265624.828125 3.421874.828125 2.585938 0 5.097657-1.335937 6.488282-3.710937 15.796875-26.890625 24.144531-59.300782 24.144531-93.726563-.003906-34.429687-8.351563-66.839843-24.144531-93.726562zm0 0" fill="#ffcf86"/><path d="m130.273438 279.941406c-14.679688-15.578125-24.214844-31.097656-29.90625-42.125-4.578126 8.90625-6.667969 14.910156-6.925782 15.671875-.527344 1.558594-.527344 3.25 0 4.8125.84375 2.496094 21.382813 61.472657 85.269532 94.203125 1.097656.5625 2.265624.828125 3.425781.828125 2.585937 0 5.09375-1.335937 6.488281-3.710937 4.453125-7.585938 8.296875-15.625 11.546875-24.011719-31.949219-11.460937-54.6875-29.515625-69.898437-45.667969zm0 0" fill="#ffc265"/><path d="m43.46875 150.570312c-6.207031 0-11.992188 1.117188-17.191406 3.167969 15.890625 6.269531 26.273437 21.324219 26.273437 40.304688 0 6.769531-1.082031 13.726562-3.089843 20.371093 11.296874-.558593 22.699218-2.660156 32.035156-5.964843 2.695312-.957031 4.617187-3.363281 4.957031-6.203125.324219-2.742188.488281-5.5.488281-8.207032 0-25.183593-18.28125-43.46875-43.472656-43.46875zm0 0" fill="#ff544d"/><path d="m170.308594 255.683594c0 7.355468-5.960938 13.320312-13.320313 13.320312-7.355469 0-13.316406-5.964844-13.316406-13.320312 0-7.355469 5.960937-13.316406 13.316406-13.316406 7.359375 0 13.320313 5.960937 13.320313 13.316406zm0 0" fill="#7b7179"/><path d="m130.273438 279.941406c-14.679688-15.578125-24.214844-31.097656-29.90625-42.125-4.578126 8.90625-6.667969 14.910156-6.925782 15.671875-.527344 1.558594-.527344 3.25 0 4.8125.84375 2.496094 21.382813 61.472657 85.269532 94.203125 1.097656.5625 2.265624.828125 3.425781.828125 2.585937 0 5.09375-1.335937 6.488281-3.710937 4.453125-7.585938 8.296875-15.625 11.546875-24.011719-31.949219-11.460937-54.6875-29.515625-69.898437-45.667969zm0 0" fill="#ffc265"/></svg>