<svg width="23" height="23" viewBox="0 0 23 23" fill="none" xmlns="http://www.w3.org/2000/svg">
<g clip-path="url(#clip0_29_473)">
<path d="M7.93286 17.561L22.3106 17.5898L22.3015 22.1711L7.9237 22.1424L7.93286 17.561Z" fill="#95BCF4"/>
<path d="M7.93101 19.2994L7.9256 22.1416L22.3034 22.1691L22.3089 19.2994H7.93101Z" fill="#6997E0"/>
<path d="M18.1436 10.4151C17.9672 9.47792 18.0415 8.51082 18.3588 7.61157C18.6549 6.8076 19.1523 6.09309 19.8036 5.53643C22.1912 3.45689 21.9705 1.21033 21.9683 1.18787L22.3045 1.15033C22.3155 1.24916 22.546 3.59672 20.0262 5.79146C19.4185 6.31002 18.9541 6.97587 18.6774 7.72529C18.38 8.56915 18.3107 9.47657 18.4764 10.3558L18.1436 10.4151Z" fill="#E6E6E6"/>
<path d="M4.64059 11.0967L6.73568 10.7746C7.00059 10.7346 7.24979 10.6238 7.457 10.454C7.75661 10.2072 8.50276 9.79176 9.17524 10.1298L8.37139 11.67L4.91009 12.544L4.21955 11.725L4.64059 11.0967Z" fill="#E5897A"/>
<path d="M8.19138 11.4936C8.19138 11.4936 10.3923 2.11603 22.0469 0.83256C22.0842 0.828341 22.122 0.832052 22.1578 0.843449C22.1936 0.854846 22.2266 0.873673 22.2546 0.898698C22.2826 0.923723 22.305 0.954383 22.3204 0.98867C22.3357 1.02296 22.3437 1.0601 22.3437 1.09767C22.3436 1.16158 22.3206 1.22332 22.2787 1.27161C22.2368 1.3199 22.179 1.35149 22.1157 1.36061C20.6198 1.57377 12.161 3.15732 9.17213 11.9961L8.19138 11.4936Z" fill="#72645A"/>
<path d="M6.33745 3.80648C6.33745 3.80648 6.51806 5.47939 5.82259 6.75555C5.48983 7.36614 4.724 7.61846 4.11646 7.28002C4.09339 7.2671 4.07039 7.2535 4.04766 7.23943L4.04617 7.98883C4.04617 7.98883 4.99607 9.04412 4.99364 10.3197L4.98789 13.3172L2.08874 14.8505L2.09841 9.81002C2.09917 9.43251 2.15773 9.05735 2.27206 8.69757L2.29371 8.62951C2.40807 8.26976 2.46664 7.89461 2.46736 7.51712L2.47115 5.53507L2.47446 3.79938L6.33745 3.80648Z" fill="#F9BEAC"/>
<path d="M2.47446 3.79913L2.47338 4.39355H6.35801C6.36181 4.19764 6.35504 4.00168 6.33772 3.80651L2.47446 3.79913Z" fill="#E5897A"/>
<path d="M1.34144 3.79693C1.34144 3.79693 1.19505 5.63362 2.48982 6.36556L2.70027 6.19211C2.79091 6.1184 2.85177 6.01435 2.87158 5.89922C2.89139 5.78408 2.86882 5.66567 2.80803 5.5659C2.80526 5.56151 2.80255 5.55711 2.79985 5.55237C2.51241 5.07756 3.04689 4.51311 3.52746 4.79074C3.65068 4.86546 3.75644 4.96573 3.83762 5.0848C3.83762 5.0848 4.62009 4.44533 4.43968 3.45261L1.68529 3.44727L1.34144 3.79693Z" fill="#313847"/>
<path d="M6.14025 3.80618L7.64608 3.80902C7.71962 3.80917 7.79247 3.79484 7.86047 3.76683C7.92847 3.73882 7.99028 3.69769 8.04238 3.64579C8.09448 3.59389 8.13585 3.53224 8.16412 3.46435C8.19239 3.39646 8.20701 3.32366 8.20714 3.25012C8.20729 3.17658 8.19294 3.10374 8.16493 3.03574C8.13692 2.96775 8.09579 2.90594 8.04389 2.85384C7.992 2.80174 7.93034 2.76037 7.86246 2.7321C7.79457 2.70382 7.72178 2.6892 7.64824 2.68906L5.93988 2.68561L6.14025 3.80618Z" fill="#F96262"/>
<path d="M1.34144 3.79694L6.33745 3.80648C6.33745 3.80648 6.44108 1.89051 4.87451 1.2317C4.49345 1.07213 4.07947 1.00697 3.66782 1.04177C3.25616 1.07656 2.85899 1.21027 2.51011 1.43153C1.92733 1.80325 1.34388 2.4994 1.34144 3.79694Z" fill="#F96262"/>
<path d="M2.08874 14.8505C2.08874 14.8505 2.31549 16.4575 3.99212 16.4605L8.04716 16.4683L8.05169 14.0899L4.98789 13.3167L2.08874 14.8505Z" fill="#F96262"/>
<path d="M4.99093 11.6091C4.83419 11.5098 4.7219 11.2598 4.7219 11.2598L4.13675 9.72525C3.81983 8.78638 3.00813 9.00819 3.00813 9.00819L3.39696 11.2732L4.21955 12.4701L4.9887 12.9098L4.99093 11.6091Z" fill="#E5897A"/>
<path d="M8.05169 14.0901L10.1074 14.6089C10.375 14.6764 10.6106 14.8353 10.7734 15.058C10.9363 15.2808 11.0162 15.5534 10.9994 15.8289L10.7775 19.4768C10.7691 19.6149 10.7942 19.753 10.8508 19.8793C10.9074 20.0056 10.9938 20.1162 11.1025 20.2019L11.6995 20.6721C11.7921 20.7451 11.86 20.8448 11.894 20.9577C11.9281 21.0706 11.9266 21.1912 11.8898 21.3032C11.864 21.3815 11.8216 21.4533 11.7656 21.5138C11.7096 21.5743 11.6412 21.6221 11.5652 21.6538C11.4891 21.6856 11.4071 21.7006 11.3247 21.6979C11.2423 21.6951 11.1614 21.6747 11.0876 21.638L9.92071 21.0567C9.75366 20.9735 9.61318 20.8453 9.5151 20.6865C9.41702 20.5277 9.36524 20.3447 9.3656 20.158L9.37142 17.1045C9.37159 17.0213 9.35537 16.9389 9.32369 16.862C9.29201 16.7851 9.24549 16.7152 9.18679 16.6562C9.12809 16.5973 9.05835 16.5505 8.98156 16.5185C8.90477 16.4865 8.82244 16.47 8.73925 16.4698L8.04696 16.4685L8.05169 14.0901Z" fill="#F9BEAC"/>
<path d="M17.6725 10.5394C17.2477 11.3961 16.9045 12.7355 17.9066 14.0076C17.9066 14.0076 17.0487 14.8432 17.4654 15.8524L18.4183 15.0932L19.3492 15.8561C19.3492 15.8561 19.8272 14.6582 18.8033 13.9837C18.8033 13.9837 20.0142 12.2336 18.9668 10.4826C18.8977 10.3698 18.7997 10.2777 18.683 10.2156C18.5662 10.1536 18.435 10.1239 18.3029 10.1297C18.1709 10.1355 18.0427 10.1766 17.9319 10.2486C17.821 10.3207 17.7315 10.421 17.6725 10.5394Z" fill="#B7DFF4"/>
<path d="M0.665733 16.4545L8.72926 16.4707C8.90089 16.471 9.06535 16.5395 9.18646 16.6611C9.30758 16.7827 9.37542 16.9474 9.37508 17.1191L9.36503 22.1452L0.654387 22.1278L0.665733 16.4545Z" fill="#FFE4D2"/>
<path d="M9.17213 11.9961C9.2895 11.6491 9.4162 11.3145 9.54967 10.9894C9.24472 10.5825 8.77315 10.5216 8.5079 10.5235C8.38305 10.8401 8.27735 11.164 8.19138 11.4933L9.17213 11.9961Z" fill="#564941"/>
<path d="M4.98789 13.3169L3.64171 14.0291C3.87477 14.3126 4.1864 14.5208 4.53743 14.6277C4.88846 14.7345 5.26325 14.7353 5.61471 14.6298L7.7029 14.0022L4.98789 13.3169Z" fill="#D34242"/>
<path d="M4.98911 12.691L4.36676 12.7268L2.76907 9.94409L2.09808 9.99185L2.09652 10.7983L3.38614 13.6207C3.4532 13.7673 3.53902 13.9046 3.64144 14.0291L4.98762 13.3168L4.98911 12.691Z" fill="#E5897A"/>
<path d="M3.56324 9.24226C3.71335 9.38202 3.83451 9.64997 3.98597 10.016L4.54744 11.5182C4.61474 11.6982 4.74333 11.8488 4.91062 11.9434C5.07791 12.038 5.27319 12.0707 5.46216 12.0356L7.08062 11.7353C7.41148 11.674 7.7117 11.5021 7.93216 11.2479C8.06287 11.0971 8.2436 10.9986 8.44114 10.9704C8.63868 10.9422 8.83975 10.9863 9.00741 11.0944C9.18542 11.2093 9.31266 11.388 9.36299 11.5938C9.41332 11.7996 9.3829 12.0169 9.278 12.2009C9.03584 12.626 8.63532 12.9379 8.16392 13.0686C7.49563 13.2538 6.3938 13.52 5.37341 13.7027C5.01522 13.7658 4.64634 13.721 4.31368 13.574C3.98101 13.4269 3.69957 13.1843 3.50513 12.8769C3.08944 12.2238 2.56639 11.3317 2.19596 10.4582C2.13324 10.315 2.10001 10.1607 2.09825 10.0044C2.0965 9.8481 2.12625 9.69305 2.18574 9.5485C2.19395 9.52933 2.20268 9.51019 2.21192 9.49107C2.26948 9.3699 2.35497 9.26413 2.46138 9.18244C2.56778 9.10076 2.69205 9.0455 2.82398 9.02121C2.9559 8.99692 3.09171 9.00429 3.22023 9.04272C3.34875 9.08115 3.46631 9.14954 3.56324 9.24226Z" fill="#F9BEAC"/>
<path d="M18.8033 13.9837C19.0819 13.5433 19.2683 13.051 19.3513 12.5365C19.0045 13.0485 18.4718 13.5643 17.6922 13.7015C17.7579 13.8074 17.8294 13.9096 17.9064 14.0076C17.9064 14.0076 17.0485 14.8431 17.4653 15.8524L18.4181 15.0932L19.349 15.8561C19.349 15.8561 19.8274 14.6582 18.8033 13.9837Z" fill="#92B9CB"/>
<path d="M17.9326 11.4817C18.0137 11.73 18.1495 12.0303 18.3639 12.2087C18.5364 12.0027 18.6727 11.7689 18.7669 11.5173C18.7722 11.5028 18.7723 11.487 18.7673 11.4724C18.7623 11.4578 18.7524 11.4455 18.7393 11.4374C18.7262 11.4293 18.7107 11.4259 18.6954 11.428C18.6801 11.43 18.666 11.4372 18.6554 11.4484C18.6202 11.4862 18.5824 11.5252 18.5436 11.5622C18.5168 11.5878 18.4851 11.6078 18.4504 11.6209C18.4156 11.6339 18.3786 11.6399 18.3416 11.6383C18.3045 11.6368 18.2682 11.6277 18.2347 11.6118C18.2012 11.5958 18.1712 11.5733 18.1467 11.5455C18.1142 11.5088 18.0797 11.4676 18.0452 11.423C18.036 11.4109 18.0228 11.4025 18.008 11.3992C17.9932 11.3959 17.9777 11.398 17.9642 11.405C17.9507 11.412 17.9402 11.4236 17.9344 11.4376C17.9286 11.4516 17.928 11.4672 17.9326 11.4817Z" fill="#92B9CB"/>
<path d="M3.53558 6.84837C3.51964 6.83616 3.49992 6.82993 3.47986 6.83076C3.4598 6.83159 3.44066 6.83944 3.42579 6.85293C3.41092 6.86642 3.40125 6.88469 3.39846 6.90458C3.39568 6.92446 3.39996 6.9447 3.41056 6.96175L4.04645 7.9885L4.04787 7.2391L3.53558 6.84837Z" fill="#E5897A"/>
<path d="M5.41616 1.55591C5.4378 1.87135 5.33747 2.18306 5.1359 2.42666C5.11727 2.45027 5.10566 2.47864 5.10239 2.50853C5.09912 2.53842 5.10432 2.56863 5.1174 2.5957C5.13048 2.62278 5.15091 2.64563 5.17636 2.66165C5.20181 2.67767 5.23125 2.68621 5.26132 2.68629H6.16779C6.03044 2.2454 5.7696 1.85311 5.41616 1.55591Z" fill="#D34242"/>
<path d="M5.15565 5.47609C5.09285 5.47627 5.03193 5.45467 4.98327 5.41496C4.93461 5.37526 4.90123 5.31991 4.88881 5.25834C4.87639 5.19678 4.88571 5.13281 4.91518 5.07735C4.94465 5.02189 4.99244 4.97836 5.05041 4.95419C5.10837 4.93002 5.17293 4.9267 5.23307 4.9448C5.29321 4.9629 5.34521 5.0013 5.38021 5.05345C5.41521 5.1056 5.43103 5.16827 5.425 5.23078C5.41896 5.29329 5.39143 5.35178 5.3471 5.39626C5.32202 5.42153 5.2922 5.44158 5.25934 5.45528C5.22649 5.46898 5.19125 5.47605 5.15565 5.47609Z" fill="#313847"/>
<path d="M18.5322 18.7337H16.9185C16.8465 18.7337 16.7774 18.7051 16.7265 18.6542C16.6756 18.6032 16.647 18.5342 16.647 18.4621C16.647 18.3901 16.6756 18.3211 16.7265 18.2701C16.7774 18.2192 16.8465 18.1906 16.9185 18.1906H18.5325C18.6045 18.1906 18.6736 18.2192 18.7245 18.2701C18.7754 18.3211 18.8041 18.3901 18.8041 18.4621C18.8041 18.5342 18.7754 18.6032 18.7245 18.6542C18.6736 18.7051 18.6045 18.7337 18.5325 18.7337H18.5322Z" fill="white"/>
<path d="M14.4847 20.7255H13.0791C13.0073 20.7255 12.9385 20.697 12.8878 20.6462C12.837 20.5955 12.8085 20.5267 12.8085 20.4549C12.8085 20.3831 12.837 20.3143 12.8878 20.2636C12.9385 20.2128 13.0073 20.1843 13.0791 20.1843H14.4847C14.5564 20.1843 14.6252 20.2128 14.676 20.2636C14.7267 20.3143 14.7552 20.3831 14.7552 20.4549C14.7552 20.5267 14.7267 20.5955 14.676 20.6462C14.6252 20.697 14.5564 20.7255 14.4847 20.7255Z" fill="white"/>
<path d="M15.0697 18.7337H14.2023C14.1303 18.7337 14.0612 18.7051 14.0103 18.6542C13.9594 18.6032 13.9308 18.5342 13.9308 18.4621C13.9308 18.3901 13.9594 18.3211 14.0103 18.2701C14.0612 18.2192 14.1303 18.1906 14.2023 18.1906H15.0697C15.1417 18.1906 15.2108 18.2192 15.2617 18.2701C15.3126 18.3211 15.3412 18.3901 15.3412 18.4621C15.3412 18.5342 15.3126 18.6032 15.2617 18.6542C15.2108 18.7051 15.1417 18.7337 15.0697 18.7337Z" fill="white"/>
<path d="M20.2374 20.7342H20.0488C19.9768 20.7342 19.9077 20.7056 19.8568 20.6547C19.8059 20.6038 19.7773 20.5347 19.7773 20.4627C19.7773 20.3907 19.8059 20.3216 19.8568 20.2707C19.9077 20.2198 19.9768 20.1912 20.0488 20.1912H20.2374C20.3094 20.1912 20.3784 20.2198 20.4294 20.2707C20.4803 20.3216 20.5089 20.3907 20.5089 20.4627C20.5089 20.5347 20.4803 20.6038 20.4294 20.6547C20.3784 20.7056 20.3094 20.7342 20.2374 20.7342Z" fill="white"/>
<path d="M17.5789 20.7255H16.3763C16.3045 20.7255 16.2357 20.697 16.1849 20.6462C16.1342 20.5955 16.1057 20.5267 16.1057 20.4549C16.1057 20.3831 16.1342 20.3143 16.1849 20.2636C16.2357 20.2128 16.3045 20.1843 16.3763 20.1843H17.5789C17.6507 20.1843 17.7195 20.2128 17.7702 20.2636C17.821 20.3143 17.8495 20.3831 17.8495 20.4549C17.8495 20.5267 17.821 20.5955 17.7702 20.6462C17.7195 20.697 17.6507 20.7255 17.5789 20.7255Z" fill="white"/>
</g>
<defs>
<clipPath id="clip0_29_473">
<rect width="23" height="23" fill="white"/>
</clipPath>
</defs>
</svg>
