<svg width="34" height="34" viewBox="0 0 34 34" fill="none" xmlns="http://www.w3.org/2000/svg">
<circle cx="17" cy="17" r="16.5" fill="#174A73" stroke="#D9EEFF"/>
<g clip-path="url(#clip0_277_2)">
<path d="M29.8954 17.868C26.1411 23.8305 13.9129 24.8029 8.29571 19.7004L6.43061 21.2885C6.26269 21.4315 6.00147 21.3805 5.90238 21.1853L5.02211 19.4516C4.99959 19.4078 4.99439 19.3577 5.00625 19.3113C5.01325 19.2842 5.02791 19.2594 5.0471 19.2386L6.63939 17.5095L6.64458 17.5137C6.64425 17.511 6.64425 17.508 6.64425 17.5053L6.63939 17.5095L5.0471 15.7804C5.02791 15.7596 5.01325 15.7348 5.00625 15.7077C4.99439 15.6612 4.99952 15.6115 5.02211 15.5674L5.90238 13.8336C6.00147 13.6384 6.26269 13.5874 6.43061 13.7304L8.28505 15.3096C13.8974 10.1958 26.1386 11.1655 29.8954 17.1319C30.035 17.3536 30.035 17.6459 29.8954 17.868Z" fill="white"/>
<path d="M24.3225 16.9599C24.9741 16.9599 25.5023 16.4435 25.5023 15.8064C25.5023 15.1694 24.9741 14.653 24.3225 14.653C23.6709 14.653 23.1427 15.1694 23.1427 15.8064C23.1427 16.4435 23.6709 16.9599 24.3225 16.9599Z" fill="#2772AF"/>
</g>
<defs>
<clipPath id="clip0_277_2">
<rect width="25" height="11" fill="white" transform="translate(5 12)"/>
</clipPath>
</defs>
</svg>
