<svg width="22" height="22" viewBox="0 0 22 22" fill="none" xmlns="http://www.w3.org/2000/svg">
<g clip-path="url(#clip0_21_1532)">
<path d="M16.1333 3.11665L14.3631 19.25H7.27027L5.5 3.11665H16.1333Z" fill="#4482C3"/>
<path d="M6.6 0.18335H15.0334C15.4384 0.18335 15.7667 0.511674 15.7667 0.916697V2.38335H5.8667V0.916654C5.86666 0.511674 6.19498 0.18335 6.6 0.18335Z" fill="#E6E7E8"/>
<path d="M5.50003 1.65H16.1334C16.5384 1.65 16.8667 1.97833 16.8667 2.38335V3.1167C16.8667 3.31921 16.7026 3.48335 16.5001 3.48335H5.13338C4.93086 3.48335 4.76672 3.31917 4.76672 3.1167V2.38335C4.76668 1.97833 5.095 1.65 5.50003 1.65Z" fill="#D1D4D1"/>
<path d="M13.9334 15.2167V18.5167H12.2504C12.1542 18.5174 12.0622 18.5555 11.9937 18.623L10.2667 20.35L8.53966 18.623C8.47117 18.5555 8.37913 18.5174 8.28301 18.5167H2.20001V15.2167H13.9334Z" fill="#14A085"/>
<path d="M13.9334 13.7536C13.9127 13.7506 13.8919 13.7494 13.871 13.75H2.20001C1.89438 13.7502 1.60262 13.8775 1.39465 14.1015C1.18668 14.3254 1.08128 14.6258 1.10367 14.9306C1.16657 15.5198 1.66999 15.9627 2.26232 15.95H13.9333C14.239 15.9498 14.5307 15.8225 14.7387 15.5985C14.9467 15.3746 15.0521 15.0742 15.0297 14.7693C14.9705 14.2038 14.5018 13.7695 13.9334 13.7536Z" fill="#804537"/>
<path d="M13.9334 11.1833V13.7537C13.9127 13.7506 13.8919 13.7494 13.871 13.75H8.58366C8.48754 13.7508 8.3955 13.7889 8.32701 13.8564L6.23336 15.95L4.13971 13.8563C4.07122 13.7889 3.97918 13.7508 3.88306 13.75H2.20001V11.1833H13.9334Z" fill="#F0C419"/>
<path d="M14.6666 11.9167H1.46663C1.26412 11.9167 1.09998 11.7525 1.09998 11.55V11.1834C1.09998 10.2109 1.48626 9.27824 2.17394 8.59062C2.86161 7.90299 3.7942 7.51665 4.76667 7.51665H11.3667C13.3917 7.51665 15.0333 9.15828 15.0333 11.1833V11.55C15.0333 11.7525 14.8691 11.9167 14.6666 11.9167Z" fill="#F29C1F"/>
<path d="M15.0333 18.15V19.25C15.0333 20.465 14.0484 21.45 12.8333 21.45H3.29998C2.08495 21.45 1.09998 20.465 1.09998 19.25V18.15C1.09998 17.9475 1.26416 17.7833 1.46663 17.7833H8.28298C8.3791 17.7841 8.47114 17.8222 8.53963 17.8897L10.2666 19.6167L11.9936 17.8897C12.0621 17.8222 12.1542 17.7841 12.2503 17.7833H14.6666C14.8691 17.7833 15.0333 17.9475 15.0333 18.15Z" fill="#F29C1F"/>
<path d="M5.13333 8.98335H4.76668C4.56416 8.98335 4.40002 9.14754 4.40002 9.35001C4.40002 9.55252 4.56421 9.71666 4.76668 9.71666H5.13333C5.33584 9.71666 5.49998 9.55247 5.49998 9.35001C5.49998 9.14749 5.3358 8.98335 5.13333 8.98335Z" fill="#E57E25"/>
<path d="M7.33334 9.71666H6.96669C6.76418 9.71666 6.60004 9.88084 6.60004 10.0833C6.60004 10.2858 6.76422 10.45 6.96669 10.45H7.33334C7.53585 10.45 7.69999 10.2858 7.69999 10.0833C7.69999 9.88084 7.53585 9.71666 7.33334 9.71666Z" fill="#E57E25"/>
<path d="M11.7333 9.71666H11.3667C11.1641 9.71666 11 9.88084 11 10.0833C11 10.2858 11.1642 10.45 11.3667 10.45H11.7333C11.9358 10.45 12.1 10.2858 12.1 10.0833C12.1 9.88084 11.9358 9.71666 11.7333 9.71666Z" fill="#E57E25"/>
<path d="M9.53335 8.98335H9.1667C8.96419 8.98335 8.80005 9.14754 8.80005 9.35001C8.80005 9.55252 8.96419 9.71666 9.1667 9.71666H9.53335C9.73587 9.71666 9.90001 9.55247 9.90001 9.35001C9.90001 9.14749 9.73582 8.98335 9.53335 8.98335Z" fill="#E57E25"/>
<path d="M10.6334 11.924C10.5894 11.9203 10.549 11.9167 10.505 11.9167H10.1897C10.1052 11.9165 10.0248 11.9533 9.96977 12.0175C9.91477 12.0817 9.89062 12.1668 9.90368 12.2503L11.3113 21.45H19.4843L20.896 12.2467C20.9083 12.163 20.8832 12.0782 20.8275 12.0147C20.7717 11.9512 20.6909 11.9153 20.6063 11.9167H20.2947C20.1261 11.9166 19.9588 11.9451 19.7997 12.001L10.6334 11.924Z" fill="#E64C3C"/>
<path d="M16.1366 15.037C15.5179 15.1366 14.8853 15.1091 14.2776 14.9563L14.3 14.85V8.536C14.3002 8.37813 14.4281 8.25021 14.586 8.25H15.8473C16.0052 8.25021 16.1331 8.37813 16.1333 8.536V15.0113L16.1366 15.037Z" fill="#F0C419"/>
<path d="M12.4666 10.45V13.8416C12.208 13.5351 12.0012 13.1883 11.8543 12.815C11.6482 12.3113 11.1759 11.9667 10.6333 11.924V10.736C10.6335 10.5781 10.7614 10.4502 10.9193 10.45H12.4666Z" fill="#F0C419"/>
<path d="M14.3 8.98335V14.85L14.278 14.9564H14.2743C13.5677 14.7884 12.934 14.3976 12.4667 13.8417V9.26935C12.4669 9.11149 12.5948 8.98357 12.7527 8.98335H14.3Z" fill="#F3D55B"/>
<path d="M18.0033 14.1754C17.4802 14.6411 16.8307 14.941 16.137 15.037L16.1333 15.0114V8.98335H17.6C17.8025 8.98335 17.9666 9.14754 17.9666 9.35001V14.1314L18.0033 14.1754Z" fill="#F3D55B"/>
<path d="M19.8 10.3694V12.001C19.4113 12.1367 19.1 12.4334 18.9456 12.815C18.7429 13.3354 18.4215 13.8012 18.007 14.1754H18.0033L17.9667 14.1314V10.0834H19.514C19.6718 10.0835 19.7998 10.2115 19.8 10.3694Z" fill="#F0C419"/>
<path d="M15.2163 19.9833C16.1276 19.9833 16.8663 19.2446 16.8663 18.3333C16.8663 17.4221 16.1276 16.6833 15.2163 16.6833C14.305 16.6833 13.5663 17.4221 13.5663 18.3333C13.5663 19.2446 14.305 19.9833 15.2163 19.9833Z" fill="#E6E7E8"/>
<path d="M21.6334 21.8167H0.366652C0.164184 21.8167 0 21.6525 0 21.45C0 21.2475 0.164184 21.0834 0.366652 21.0834H21.6333C21.8358 21.0834 22 21.2475 22 21.45C22 21.6525 21.8359 21.8167 21.6334 21.8167Z" fill="#804537"/>
</g>
<defs>
<clipPath id="clip0_21_1532">
<rect width="22" height="22" fill="white"/>
</clipPath>
</defs>
</svg>
