<svg xmlns="http://www.w3.org/2000/svg" width="30" height="30.005" viewBox="0 0 30 30.005">
  <g id="gift" transform="translate(-0.04 0)">
    <path id="Path_326" data-name="Path 326" d="M110.117,241.69v14.129a.871.871,0,0,1-.879.879H91.65a.871.871,0,0,1-.879-.879V243.062a.887.887,0,0,1,.44-.756l2.374-1.372a.835.835,0,0,1,.44-.123h3.781l2.638,2.251,2.638-2.251h6.156a.871.871,0,0,1,.879.879Z" transform="translate(-85.412 -226.694)" fill="#e63950"/>
    <path id="Path_327" data-name="Path 327" d="M265.444,241.69v14.129a.871.871,0,0,1-.879.879h-8.794V243.062l2.638-2.251h6.156a.871.871,0,0,1,.879.879Z" transform="translate(-240.739 -226.694)" fill="#d0004f"/>
    <path id="Path_328" data-name="Path 328" d="M38.335,1.759a2.759,2.759,0,0,0-.6-.739,3.308,3.308,0,0,0-1.53-.9,3.463,3.463,0,0,0-2.673.352,3.535,3.535,0,0,0-1.759,3.166c.018.176.106,2.791.106,2.791-.193-.106-2.2-1.354-2.2-1.354a3.492,3.492,0,0,0-3.764-.158,3.546,3.546,0,0,0-1.636,2.128,3.463,3.463,0,0,0,.352,2.673A3.512,3.512,0,0,0,29.436,11L31.7,9.7l-3.154-.21a1.753,1.753,0,0,1-2.386-.641A1.705,1.705,0,0,1,25.98,7.5a1.79,1.79,0,0,1,.828-1.068,1.629,1.629,0,0,1,.834-.25,2.047,2.047,0,0,1,1.034.342l.112.064c.276.172,2.064,1.281,2.249,1.383l.066.036-.015.009h.024l2.11,1.231.41-2.7.01-.032-.005-.151s-.1-2.726-.114-2.91A1.757,1.757,0,0,1,34.413,2a1.685,1.685,0,0,1,.866-.24,1.81,1.81,0,0,1,.471.064,1.544,1.544,0,0,1,.718.417l.132.125a.971.971,0,0,1,.2.256,1.834,1.834,0,0,1-.288,2.214,2.03,2.03,0,0,1-.335.246l-.087.05L35.856,7.3l1.2-.69a3.858,3.858,0,0,0,.686-.51,3.575,3.575,0,0,0,.6-4.338Z" transform="translate(-22.704 0)" fill="#fed843"/>
    <g id="Group_58" data-name="Group 58" transform="translate(12.394 14.117)">
      <g id="Group_57" data-name="Group 57">
        <path id="Path_329" data-name="Path 329" d="M210.771,240.811v9.732a.877.877,0,0,0,.545.809.84.84,0,0,0,.95-.193l1.143-1.126,1.143,1.126a.84.84,0,0,0,.95.193.877.877,0,0,0,.545-.809v-9.732Z" transform="translate(-210.771 -240.811)" fill="#fed843"/>
      </g>
    </g>
    <path id="Path_330" data-name="Path 330" d="M426.168,152.57h-.879v-.879a.879.879,0,1,0-1.759,0v.879h-.879a.879.879,0,1,0,0,1.759h.879v.879a.879.879,0,1,0,1.759,0v-.879h.879a.879.879,0,1,0,0-1.759Z" transform="translate(-397.007 -141.97)" fill="#ffb64c"/>
    <g id="Group_59" data-name="Group 59" transform="translate(24.706 5.324)">
      <circle id="Ellipse_39" data-name="Ellipse 39" cx="0.879" cy="0.879" r="0.879" fill="#ffb64c"/>
    </g>
    <g id="Group_60" data-name="Group 60" transform="translate(21.188 10.6)">
      <circle id="Ellipse_40" data-name="Ellipse 40" cx="0.879" cy="0.879" r="0.879" fill="#ffb64c"/>
    </g>
    <path id="Path_331" data-name="Path 331" d="M255.771,240.811h2.638v9.732a.877.877,0,0,1-.545.809.84.84,0,0,1-.95-.193l-1.143-1.126Z" transform="translate(-240.739 -226.694)" fill="#ffb64c"/>
    <path id="Path_332" data-name="Path 332" d="M255.771,22.487V17.41a2.758,2.758,0,0,1,.6.739A3.575,3.575,0,0,1,255.771,22.487Z" transform="translate(-240.738 -16.39)" fill="#ffb64c"/>
    <path id="Path_333" data-name="Path 333" d="M22.648,37.354,20.01,32.781a.888.888,0,0,0-1.214-.317l-3.764,2.181-.5.291-10,5.77L.523,43.017a.883.883,0,0,0-.375,1.2l2.7,4.573a.868.868,0,0,0,1.2.317l10.992-6.349,7.281-4.2a.889.889,0,0,0,.334-1.2Z" transform="translate(0 -30.447)" fill="#ff641a"/>
    <path id="Path_334" data-name="Path 334" d="M263.052,38.55l-7.281,4.2V34.645l3.764-2.181a.888.888,0,0,1,1.214.317l2.638,4.573A.889.889,0,0,1,263.052,38.55Z" transform="translate(-240.739 -30.447)" fill="#e63950"/>
  </g>
</svg>
