<svg id="gift-box" xmlns="http://www.w3.org/2000/svg" xmlns:xlink="http://www.w3.org/1999/xlink" width="38.756" height="38.756" viewBox="0 0 38.756 38.756">
  <defs>
    <linearGradient id="linear-gradient" x1="0.167" y1="0.378" x2="0.941" y2="0.864" gradientUnits="objectBoundingBox">
      <stop offset="0" stop-color="#fee45a"/>
      <stop offset="1" stop-color="#fea613"/>
    </linearGradient>
    <linearGradient id="linear-gradient-2" x1="0.473" y1="0.27" x2="0.559" y2="0.63" gradientUnits="objectBoundingBox">
      <stop offset="0" stop-color="#fea613" stop-opacity="0"/>
      <stop offset="1" stop-color="#e94444"/>
    </linearGradient>
    <linearGradient id="linear-gradient-3" x1="0.605" y1="0.346" x2="1.36" y2="-0.221" xlink:href="#linear-gradient-2"/>
    <linearGradient id="linear-gradient-4" x1="0.493" y1="0.566" x2="0.622" y2="-0.576" xlink:href="#linear-gradient-2"/>
    <linearGradient id="linear-gradient-5" x1="0.43" y1="0.391" x2="1.126" y2="0.828" xlink:href="#linear-gradient"/>
    <linearGradient id="linear-gradient-6" x1="0.556" y1="0.229" x2="0.432" y2="0.6" xlink:href="#linear-gradient-2"/>
    <linearGradient id="linear-gradient-7" x1="-23.162" y1="0.346" x2="-22.407" y2="-0.221" xlink:href="#linear-gradient-2"/>
    <linearGradient id="linear-gradient-8" x1="-24.671" y1="0.566" x2="-24.542" y2="-0.576" xlink:href="#linear-gradient-2"/>
    <linearGradient id="linear-gradient-9" x1="11.379" y1="7.7" x2="11.421" y2="8.505" xlink:href="#linear-gradient"/>
    <linearGradient id="linear-gradient-10" x1="0.385" y1="0.132" x2="0.705" y2="1.156" gradientUnits="objectBoundingBox">
      <stop offset="0" stop-color="#d9b1ee"/>
      <stop offset="1" stop-color="#814aa0"/>
    </linearGradient>
    <linearGradient id="linear-gradient-11" x1="0.5" y1="0.675" x2="0.5" y2="0.099" gradientUnits="objectBoundingBox">
      <stop offset="0" stop-color="#5b3374" stop-opacity="0"/>
      <stop offset="1" stop-color="#5b3374"/>
    </linearGradient>
    <linearGradient id="linear-gradient-12" x1="0.735" y1="0.5" x2="0.27" y2="0.5" xlink:href="#linear-gradient-11"/>
    <linearGradient id="linear-gradient-13" x1="0.5" y1="0.573" x2="0.5" y2="0.956" xlink:href="#linear-gradient-11"/>
    <linearGradient id="linear-gradient-14" x1="0" y1="0.5" x2="1" y2="0.5" xlink:href="#linear-gradient"/>
    <linearGradient id="linear-gradient-15" x1="0.5" y1="0.455" x2="0.5" y2="0.124" xlink:href="#linear-gradient-2"/>
    <linearGradient id="linear-gradient-16" x1="0.5" y1="0.04" x2="0.5" y2="1.07" xlink:href="#linear-gradient-10"/>
    <linearGradient id="linear-gradient-17" x1="0.518" y1="0.35" x2="0.323" y2="-0.593" xlink:href="#linear-gradient-11"/>
    <linearGradient id="linear-gradient-19" x1="0.524" y1="1.169" x2="0.369" y2="0.064" xlink:href="#linear-gradient-11"/>
    <linearGradient id="linear-gradient-20" x1="0.244" y1="0.355" x2="0.853" y2="0.7" xlink:href="#linear-gradient"/>
    <linearGradient id="linear-gradient-21" x1="0.717" y1="0.794" x2="0.29" y2="0.097" xlink:href="#linear-gradient-2"/>
    <linearGradient id="linear-gradient-22" x1="0.376" y1="0.225" x2="0.593" y2="0.532" xlink:href="#linear-gradient"/>
    <linearGradient id="linear-gradient-23" x1="-1.792" y1="0.225" x2="-1.574" y2="0.532" xlink:href="#linear-gradient"/>
  </defs>
  <g id="Group_83" data-name="Group 83" transform="translate(9.516 0)">
    <g id="Group_81" data-name="Group 81" transform="translate(0 0)">
      <g id="Group_78" data-name="Group 78" transform="translate(0 0)">
        <path id="Path_422" data-name="Path 422" d="M133.895,6.944V9.559a2.625,2.625,0,0,1-1.492,2.368l-3.511,1.68a2,2,0,0,1-2.858-1.622l-.136-1.477a3.453,3.453,0,0,1,.379-1.92,2.683,2.683,0,0,0-.142-2.727,5.456,5.456,0,0,1-.812-4.024A2.253,2.253,0,0,1,127.538,0h0a4.8,4.8,0,0,1,3.4,1.407l1.138,1.138A6.222,6.222,0,0,1,133.895,6.944Z" transform="translate(-125.229 0)" fill="url(#linear-gradient)"/>
      </g>
      <path id="Path_423" data-name="Path 423" d="M139.334,66.67h-7.9a5.515,5.515,0,0,0,.435.794,2.682,2.682,0,0,1,.142,2.727,3.457,3.457,0,0,0-.379,1.92l.136,1.477a2,2,0,0,0,2.857,1.622l3.511-1.68a2.624,2.624,0,0,0,1.492-2.367V68.547A6.21,6.21,0,0,0,139.334,66.67Z" transform="translate(-130.959 -61.604)" fill="url(#linear-gradient-2)"/>
      <path id="Path_424" data-name="Path 424" d="M140.372,59.418a4.436,4.436,0,0,0-4.616-4.231,4.842,4.842,0,0,0-3.07,1.072,5.5,5.5,0,0,0,.34.595,2.684,2.684,0,0,1,.142,2.727,3.453,3.453,0,0,0-.379,1.92l.114,1.242a4.865,4.865,0,0,0,2.852.906,4.436,4.436,0,0,0,4.616-4.231Z" transform="translate(-132.119 -50.993)" fill="url(#linear-gradient-3)"/>
      <ellipse id="Ellipse_60" data-name="Ellipse 60" cx="3.584" cy="2.087" rx="3.584" ry="2.087" transform="translate(1.961 6.448)" fill="url(#linear-gradient-4)"/>
      <g id="Group_79" data-name="Group 79" transform="translate(11.058)">
        <path id="Path_425" data-name="Path 425" d="M278.357,8.587a3.44,3.44,0,0,1,.379,1.92l-.136,1.477a2,2,0,0,1-2.858,1.622l-3.51-1.68a2.624,2.624,0,0,1-1.492-2.368V6.943a6.221,6.221,0,0,1,1.822-4.4L273.7,1.406A4.8,4.8,0,0,1,277.1,0a2.253,2.253,0,0,1,2.214,1.837A5.452,5.452,0,0,1,278.5,5.86,2.688,2.688,0,0,0,278.357,8.587Z" transform="translate(-270.741 0)" fill="url(#linear-gradient-5)"/>
      </g>
      <path id="Path_426" data-name="Path 426" d="M278.5,67.464a5.515,5.515,0,0,0,.435-.794h-7.9a6.211,6.211,0,0,0-.29,1.877v2.616a2.624,2.624,0,0,0,1.492,2.367l3.51,1.68a2,2,0,0,0,2.858-1.622l.135-1.477a3.438,3.438,0,0,0-.379-1.92A2.687,2.687,0,0,1,278.5,67.464Z" transform="translate(-259.682 -61.604)" fill="url(#linear-gradient-6)"/>
      <g id="Group_80" data-name="Group 80" transform="translate(10.593 4.194)">
        <path id="Path_427" data-name="Path 427" d="M276.177,59.418a4.436,4.436,0,0,1,4.616-4.231,4.842,4.842,0,0,1,3.07,1.072,5.5,5.5,0,0,1-.34.595,2.684,2.684,0,0,0-.142,2.727,3.453,3.453,0,0,1,.379,1.92l-.114,1.242a4.865,4.865,0,0,1-2.852.906,4.436,4.436,0,0,1-4.616-4.231Z" transform="translate(-275.299 -55.187)" fill="url(#linear-gradient-7)"/>
        <ellipse id="Ellipse_61" data-name="Ellipse 61" cx="3.584" cy="2.087" rx="3.584" ry="2.087" transform="translate(0 2.254)" fill="url(#linear-gradient-8)"/>
      </g>
    </g>
    <g id="Group_82" data-name="Group 82" transform="translate(6.988 5.663)">
      <path id="Path_428" data-name="Path 428" d="M222.938,77.347a2.873,2.873,0,1,1-2.914-2.831A2.873,2.873,0,0,1,222.938,77.347Z" transform="translate(-217.192 -74.515)" fill="url(#linear-gradient-9)"/>
    </g>
  </g>
  <g id="Group_84" data-name="Group 84" transform="translate(0 10.132)">
    <path id="Path_429" data-name="Path 429" d="M56.912,226.707H25.42a1.84,1.84,0,0,1-1.84-1.84v-19.18a1.84,1.84,0,0,1,1.84-1.84H56.912a1.84,1.84,0,0,1,1.84,1.84v19.18A1.84,1.84,0,0,1,56.912,226.707Z" transform="translate(-21.788 -198.488)" fill="url(#linear-gradient-10)"/>
    <path id="Path_430" data-name="Path 430" d="M56.912,203.848H25.42a1.84,1.84,0,0,0-1.84,1.84v1.931s10.352,10.9,18.462,19.089H56.912a1.84,1.84,0,0,0,1.84-1.84v-19.18A1.84,1.84,0,0,0,56.912,203.848Z" transform="translate(-21.788 -198.489)" fill="url(#linear-gradient-11)"/>
    <path id="Path_431" data-name="Path 431" d="M255,203.848h11.677v22.86H255Z" transform="translate(-235.622 -198.489)" fill="url(#linear-gradient-12)"/>
    <path id="Path_432" data-name="Path 432" d="M23.58,383v7.406a1.84,1.84,0,0,0,1.84,1.84H56.912a1.84,1.84,0,0,0,1.84-1.84V383Z" transform="translate(-21.788 -364.027)" fill="url(#linear-gradient-13)"/>
    <path id="Path_433" data-name="Path 433" d="M212.293,227.113h-5.486a1,1,0,0,1-1-1V204.843a1,1,0,0,1,1-1h5.486a1,1,0,0,1,1,1v21.275A1,1,0,0,1,212.293,227.113Z" transform="translate(-190.172 -198.489)" fill="url(#linear-gradient-14)"/>
    <path id="Path_434" data-name="Path 434" d="M205.812,204.843v17.165c1.561,1.6,3.125,3.2,4.614,4.7h2.667a.989.989,0,0,0,.195-.59V204.843a1,1,0,0,0-1-1h-5.486A1,1,0,0,0,205.812,204.843Z" transform="translate(-190.172 -198.489)" fill="url(#linear-gradient-15)"/>
    <path id="Path_435" data-name="Path 435" d="M36.2,148.15H2.557A2.557,2.557,0,0,1,0,145.592v-3.673a2.557,2.557,0,0,1,2.557-2.557H36.2a2.557,2.557,0,0,1,2.557,2.557v3.673A2.557,2.557,0,0,1,36.2,148.15Z" transform="translate(0 -138.904)" fill="url(#linear-gradient-16)"/>
    <path id="Path_436" data-name="Path 436" d="M167.156,139.362h-22.6l-2.824,2.824,5.964,5.964h19.465a2.557,2.557,0,0,0,2.557-2.557v-3.673A2.557,2.557,0,0,0,167.156,139.362Z" transform="translate(-130.957 -138.904)" fill="url(#linear-gradient-17)"/>
    <path id="Path_437" data-name="Path 437" d="M255,139.362h11.677v8.788H255Z" transform="translate(-235.622 -138.904)" fill="url(#linear-gradient-12)"/>
    <path id="Path_438" data-name="Path 438" d="M270.211,174.667H255V168.06h8.6Z" transform="translate(-235.622 -165.421)" fill="url(#linear-gradient-19)"/>
    <path id="Path_439" data-name="Path 439" d="M212.785,143.035h-6.471a.5.5,0,0,1-.5-.5v-8.7a.5.5,0,0,1,.5-.5h6.471a.5.5,0,0,1,.5.5v8.7A.5.5,0,0,1,212.785,143.035Z" transform="translate(-190.171 -133.331)" fill="url(#linear-gradient-20)"/>
    <path id="Path_440" data-name="Path 440" d="M213.286,133.832v8.7a.5.5,0,0,1-.5.5h-5.422l-1.552-1.552v-7.65a.415.415,0,0,1,0-.044.5.5,0,0,1,.5-.458h6.471a.5.5,0,0,1,.5.458A.415.415,0,0,1,213.286,133.832Z" transform="translate(-190.17 -133.33)" fill="url(#linear-gradient-21)"/>
  </g>
  <g id="Group_85" data-name="Group 85" transform="translate(10.639 9.229)">
    <path id="Path_441" data-name="Path 441" d="M148.74,122.345l-.06-.04a5.17,5.17,0,0,0-6.516.651l-2.028,2.028a.457.457,0,0,0,.323.78h.235a1.406,1.406,0,0,1,1.406,1.406.457.457,0,0,0,.78.323l4.556-4.556A2.035,2.035,0,0,1,148.74,122.345Z" transform="translate(-140.001 -121.441)" fill="url(#linear-gradient-22)"/>
    <path id="Path_442" data-name="Path 442" d="M255,122.345l.06-.04a5.17,5.17,0,0,1,6.516.651l2.028,2.028a.457.457,0,0,1-.323.78h-.235a1.406,1.406,0,0,0-1.406,1.406.457.457,0,0,1-.78.323l-4.556-4.556A2.035,2.035,0,0,0,255,122.345Z" transform="translate(-246.261 -121.441)" fill="url(#linear-gradient-23)"/>
  </g>
</svg>
