<svg width="24" height="24" viewBox="0 0 24 24" fill="none" xmlns="http://www.w3.org/2000/svg">
<path d="M3.01199 10.981L2.99999 11H4.99999V20C4.99999 20.2652 5.10535 20.5196 5.29288 20.7071C5.48042 20.8946 5.73477 21 5.99999 21H18C18.2652 21 18.5196 20.8946 18.7071 20.7071C18.8946 20.5196 19 20.2652 19 20V11H21C21.2146 11 21.4236 10.931 21.596 10.8032C21.7684 10.6753 21.895 10.4953 21.9573 10.2899C22.0195 10.0845 22.014 9.86453 21.9415 9.66249C21.8691 9.46044 21.7336 9.28707 21.555 9.168L12.555 3.168C12.3907 3.05836 12.1975 2.99985 12 2.99985C11.8024 2.99985 11.6093 3.05836 11.445 3.168L2.44499 9.168C2.33572 9.24087 2.24187 9.33455 2.16881 9.4437C2.09575 9.55285 2.0449 9.67532 2.01918 9.80412C1.99346 9.93292 1.99336 10.0655 2.01889 10.1944C2.04443 10.3232 2.09509 10.4457 2.16799 10.555C2.26133 10.6914 2.38766 10.802 2.53522 10.8765C2.68279 10.951 2.8468 10.9869 3.01199 10.981ZM9.99999 14C9.99999 13.7348 10.1053 13.4804 10.2929 13.2929C10.4804 13.1054 10.7348 13 11 13H13C13.2652 13 13.5196 13.1054 13.7071 13.2929C13.8946 13.4804 14 13.7348 14 14V19H9.99999V14Z" fill="#2772AF"/>
</svg>
