<svg width="28" height="28" viewBox="0 0 28 28" fill="none" xmlns="http://www.w3.org/2000/svg">
<path d="M12.25 24.0625V25.8125C12.25 26.1606 12.3883 26.4944 12.6344 26.7406C12.8806 26.9867 13.2144 27.125 13.5625 27.125H14.4375C14.7856 27.125 15.1194 26.9867 15.3656 26.7406C15.6117 26.4944 15.75 26.1606 15.75 25.8125V24.0625H12.25Z" fill="#CC3D3D"/>
<path d="M23.7506 11.5933C21.7375 11.4033 16.7986 11.0351 14 11.6632C11.2012 11.0353 6.2623 11.4033 4.24941 11.5933C3.92399 11.6231 3.62158 11.7739 3.40185 12.0157C3.18212 12.2576 3.06103 12.5731 3.0625 12.8998V25.0403C3.06362 25.2222 3.10235 25.4019 3.17623 25.5681C3.25012 25.7344 3.35757 25.8836 3.49185 26.0063C3.62613 26.1291 3.78433 26.2227 3.95653 26.2814C4.12873 26.3401 4.3112 26.3626 4.49249 26.3474C6.45269 26.1678 11.2936 25.8161 13.8992 26.4331C13.9656 26.4478 14.0344 26.4478 14.1008 26.4331C16.706 25.8161 21.5471 26.168 23.5077 26.3476C23.689 26.3627 23.8715 26.3402 24.0436 26.2814C24.2158 26.2227 24.3739 26.129 24.5082 26.0062C24.6424 25.8835 24.7499 25.7343 24.8237 25.5681C24.8976 25.4019 24.9363 25.2222 24.9375 25.0403V12.8998C24.939 12.5731 24.8179 12.2576 24.5982 12.0157C24.3784 11.7739 24.076 11.6231 23.7506 11.5933Z" fill="#CC3D3D"/>
<path d="M22.4986 10.6495C19.6896 10.1057 16.8001 10.128 14 10.7156C11.1999 10.1276 8.31056 10.105 5.50164 10.6493C5.30605 10.691 5.13056 10.7989 5.00508 10.9546C4.8796 11.1103 4.81159 11.3045 4.81249 11.5045V23.9583C4.81304 24.0804 4.83903 24.201 4.88882 24.3125C4.93861 24.424 5.01109 24.5239 5.10165 24.6058C5.1922 24.6877 5.29884 24.7499 5.41476 24.7882C5.53067 24.8266 5.65332 24.8404 5.77487 24.8288C7.08929 24.6918 11.5589 24.2906 13.8945 24.8713C13.964 24.8867 14.036 24.8867 14.1055 24.8713C16.4404 24.2913 20.9107 24.692 22.2253 24.8288C22.3469 24.8406 22.4696 24.8268 22.5855 24.7885C22.7015 24.7501 22.8082 24.688 22.8987 24.6061C22.9893 24.5241 23.0618 24.4242 23.1115 24.3126C23.1612 24.2011 23.1871 24.0804 23.1875 23.9583V11.5045C23.1884 11.3045 23.1204 11.1103 22.9949 10.9546C22.8694 10.7989 22.6941 10.6912 22.4986 10.6495Z" fill="#F2F6FA"/>
<path d="M21.3021 20.0349C19.4094 19.6979 17.472 19.6979 15.5793 20.0349C15.4655 20.0577 15.3655 20.1247 15.3012 20.2212C15.2368 20.3178 15.2135 20.4359 15.2362 20.5497C15.259 20.6635 15.326 20.7635 15.4226 20.8279C15.5191 20.8922 15.6373 20.9156 15.7511 20.8928C17.5309 20.5838 19.3507 20.5838 21.1305 20.8928C21.1869 20.904 21.2449 20.9041 21.3012 20.893C21.3576 20.8818 21.4112 20.8597 21.459 20.8278C21.5068 20.7959 21.5478 20.755 21.5798 20.7072C21.6117 20.6595 21.634 20.6059 21.6452 20.5496C21.6565 20.4933 21.6566 20.4353 21.6454 20.3789C21.6343 20.3226 21.6121 20.269 21.5803 20.2212C21.5484 20.1734 21.5074 20.1323 21.4597 20.1004C21.412 20.0684 21.3584 20.0461 21.3021 20.0349Z" fill="#424242"/>
<path d="M21.3021 17.2736C19.4094 16.9364 17.472 16.9364 15.5793 17.2736C15.4658 17.2966 15.3661 17.3637 15.3021 17.4602C15.238 17.5567 15.2148 17.6746 15.2375 17.7881C15.2602 17.9017 15.3271 18.0016 15.4233 18.0659C15.5196 18.1303 15.6375 18.1539 15.7511 18.1315C17.5309 17.8224 19.3507 17.8224 21.1305 18.1315C21.2442 18.1539 21.3621 18.1304 21.4584 18.066C21.5547 18.0016 21.6216 17.9017 21.6443 17.7881C21.667 17.6745 21.6437 17.5565 21.5796 17.4601C21.5154 17.3636 21.4156 17.2965 21.3021 17.2736Z" fill="#424242"/>
<path d="M15.6648 15.3503C17.473 15.0377 19.3213 15.0349 21.1305 15.3418C21.1868 15.353 21.2448 15.3531 21.3012 15.3419C21.3575 15.3308 21.4112 15.3086 21.459 15.2768C21.5067 15.2449 21.5478 15.2039 21.5798 15.1562C21.6117 15.1085 21.634 15.0549 21.6452 14.9986C21.6565 14.9422 21.6566 14.8842 21.6454 14.8279C21.6343 14.7715 21.6121 14.7179 21.5802 14.6701C21.5484 14.6223 21.5074 14.5813 21.4597 14.5493C21.4119 14.5174 21.3584 14.4951 21.3021 14.4839C19.4093 14.1471 17.472 14.1471 15.5793 14.4839C15.4729 14.5052 15.3783 14.5653 15.3137 14.6525C15.2492 14.7397 15.2193 14.8478 15.23 14.9557C15.2406 15.0637 15.291 15.1639 15.3713 15.2368C15.4517 15.3097 15.5563 15.3502 15.6648 15.3503Z" fill="#424242"/>
<path d="M12.4207 20.0349C10.528 19.6978 8.59063 19.6978 6.69793 20.0349C6.58416 20.0576 6.48409 20.1246 6.41973 20.2212C6.35537 20.3177 6.332 20.4358 6.35475 20.5496C6.37749 20.6634 6.4445 20.7634 6.54103 20.8278C6.63756 20.8921 6.7557 20.9155 6.86947 20.8928C8.64932 20.5839 10.4691 20.5839 12.2489 20.8928C12.3627 20.9156 12.4808 20.8922 12.5774 20.8279C12.6739 20.7635 12.741 20.6635 12.7638 20.5497C12.7865 20.4359 12.7632 20.3178 12.6988 20.2212C12.6345 20.1247 12.5344 20.0576 12.4207 20.0349Z" fill="#424242"/>
<path d="M12.4207 17.2736C10.528 16.9361 8.59059 16.9361 6.69793 17.2736C6.58445 17.2966 6.48475 17.3637 6.42068 17.4602C6.35661 17.5567 6.33339 17.6746 6.35612 17.7881C6.37886 17.9017 6.44568 18.0016 6.54195 18.0659C6.63821 18.1303 6.75607 18.1539 6.86968 18.1315C8.64934 17.8212 10.4693 17.8212 12.2489 18.1315C12.3053 18.1429 12.3634 18.1432 12.4199 18.1321C12.4764 18.1211 12.5302 18.099 12.5781 18.0672C12.6261 18.0353 12.6673 17.9943 12.6993 17.9465C12.7314 17.8987 12.7537 17.8451 12.765 17.7886C12.7763 17.7322 12.7764 17.6741 12.7652 17.6176C12.754 17.5612 12.7318 17.5075 12.6998 17.4596C12.6678 17.4118 12.6267 17.3707 12.5788 17.3388C12.5309 17.3069 12.4772 17.2847 12.4207 17.2736Z" fill="#424242"/>
<path d="M12.4207 14.4839C10.528 14.1467 8.59062 14.1467 6.69793 14.4839C6.58416 14.5066 6.48409 14.5736 6.41973 14.6702C6.35537 14.7667 6.332 14.8848 6.35475 14.9986C6.37749 15.1124 6.4445 15.2124 6.54103 15.2768C6.63756 15.3412 6.7557 15.3645 6.86947 15.3418C8.64933 15.033 10.4691 15.033 12.2489 15.3418C12.3627 15.3646 12.4808 15.3412 12.5774 15.2769C12.6739 15.2125 12.741 15.1125 12.7638 14.9987C12.7865 14.8849 12.7632 14.7668 12.6988 14.6702C12.6345 14.5737 12.5344 14.5066 12.4207 14.4839Z" fill="#424242"/>
<path d="M14.4375 10.6312V24.7975C14.3238 24.8194 14.21 24.8456 14.105 24.8719H14.1006C14.0831 24.8762 14.0612 24.8762 14.0437 24.8806C14.0306 24.8806 14.0175 24.885 14 24.885C13.9825 24.885 13.9694 24.8806 13.9562 24.8806C13.9387 24.8762 13.9169 24.8762 13.8994 24.8719H13.895C13.79 24.8456 13.6762 24.8194 13.5625 24.7975V10.6312C13.7069 10.6575 13.8512 10.6837 14 10.7144C14.1488 10.6837 14.2931 10.6575 14.4375 10.6312Z" fill="#CCD3D9"/>
<path d="M18.3686 2.54019C17.4816 1.74864 16.3963 1.21287 15.2286 0.990085C14.0609 0.767303 12.8546 0.865879 11.7385 1.27529C10.6224 1.6847 9.63849 2.38956 8.89181 3.31461C8.14513 4.23965 7.66373 5.35014 7.49902 6.52747C7.28883 7.99636 7.58521 9.49304 8.33933 10.771C9.09345 12.0489 10.2603 13.0319 11.6478 13.558L13.2416 16.2119C13.3187 16.3419 13.4285 16.4495 13.56 16.524C13.6915 16.5985 13.8403 16.6373 13.9915 16.6365H13.9998C14.1524 16.6359 14.3022 16.595 14.434 16.518C14.5658 16.4409 14.675 16.3305 14.7504 16.1978L16.2428 13.6014C17.3096 13.2138 18.2576 12.556 18.9941 11.6923C19.7306 10.8287 20.2304 9.78869 20.4446 8.67404C20.6588 7.55938 20.5801 6.40822 20.2163 5.33308C19.8524 4.25794 19.2157 3.29562 18.3686 2.54019Z" fill="#1F5B8C"/>
<path d="M14.9374 5.71698C15.1746 5.47141 15.3067 5.14295 15.3054 4.8015C15.3041 4.46005 15.1696 4.13258 14.9306 3.88879C14.683 3.64496 14.3497 3.508 14.0022 3.50736C13.6547 3.50673 13.3209 3.64246 13.0725 3.88538C12.8282 4.12778 12.6902 4.4573 12.6889 4.80143C12.6876 5.14556 12.823 5.47613 13.0654 5.7204C13.1857 5.84801 13.3309 5.94962 13.492 6.01897C13.6531 6.08831 13.8267 6.12392 14.0021 6.1236C14.1775 6.12328 14.351 6.08704 14.5118 6.0171C14.6727 5.94717 14.8175 5.84503 14.9374 5.71698Z" fill="#F2F6FA"/>
<path d="M14.8156 6.74494C14.1559 6.33427 12.6331 6.62056 12.6875 7.48387V11.406C12.6941 12.6417 15.2954 12.623 15.3125 11.406V7.48387C15.3102 7.3258 15.262 7.17179 15.1738 7.04059C15.0856 6.9094 14.9612 6.80668 14.8156 6.74494Z" fill="#F2F6FA"/>
</svg>
