<svg width="69" height="69" viewBox="0 0 69 69" fill="none" xmlns="http://www.w3.org/2000/svg">
<g clip-path="url(#clip0_74_139)">
<path fill-rule="evenodd" clip-rule="evenodd" d="M52.0503 66.5989L66.597 52.0698C67.8305 50.8378 67.8305 48.8199 66.597 47.5879L64.1986 45.1962C62.9651 43.9641 60.9486 43.9641 59.7151 45.1962L59.6502 45.2571L45.2295 59.6605L45.1683 59.7253C43.9348 60.9573 43.9348 62.9714 45.1683 64.2034L47.5667 66.5989C47.8112 66.8431 48.0899 67.0415 48.3877 67.1901H51.2291C51.5271 67.0415 51.802 66.8431 52.0503 66.5989Z" fill="#DAD0D3"/>
<path fill-rule="evenodd" clip-rule="evenodd" d="M45.2295 59.6605L59.6502 45.2573L53.3412 38.9557C43.8929 33.6042 36.2435 45.8714 38.3477 52.7869L45.2295 59.6605Z" fill="#FFDCD5"/>
<path fill-rule="evenodd" clip-rule="evenodd" d="M17.5302 67.1901H20.3716C20.6695 67.0414 20.9445 66.8431 21.1927 66.5989L23.5911 64.2034C24.8246 62.9714 24.8246 60.9573 23.5911 59.7253L23.5262 59.6605L9.10544 45.2573L9.04426 45.1963C7.81075 43.9642 5.79047 43.9642 4.55696 45.1963L2.16245 47.588C0.928804 48.8201 0.928804 50.8379 2.16245 52.0699L16.7053 66.599C16.9535 66.8431 17.2322 67.0414 17.5302 67.1901Z" fill="#9D9AE8"/>
<path fill-rule="evenodd" clip-rule="evenodd" d="M40.6849 51.593L49.5908 42.7015L53.3412 38.9557L54.5213 37.7772C55.8234 36.4725 55.8234 34.3442 54.5213 33.0434C53.2191 31.7389 51.0841 31.7389 49.7819 33.0434L50.9696 31.8533C52.2756 30.5527 52.2756 28.4204 50.9696 27.1197C49.6672 25.8151 47.5324 25.8151 46.2301 27.1197L47.4178 25.9296C48.724 24.6289 48.724 22.4967 47.4178 21.1959C46.1156 19.8952 43.9808 19.8952 42.6784 21.1959L43.87 20.0097C45.1722 18.7052 45.1722 16.5767 43.87 15.2722C43.0795 14.4863 41.9873 14.1737 40.9599 14.3415C40.2876 14.4483 39.6423 14.7572 39.1266 15.2722L34.3797 20.0173L34.5323 20.1698L34.559 20.1966C35.8614 21.4973 35.8614 23.6295 34.559 24.9303C33.2568 26.2348 31.122 26.2348 29.8196 24.9303C31.122 26.2348 31.122 28.3632 29.8196 29.6677C28.5136 30.9684 26.3825 30.9684 25.0764 29.6677C26.3825 30.9684 26.3825 33.1007 25.0764 34.4015C23.7741 35.7021 21.6431 35.7021 20.3369 34.4015C21.6431 35.7021 21.6431 37.8345 20.3369 39.1351C19.0347 40.4396 16.8999 40.4396 15.5975 39.1351L15.418 38.9557L9.10517 45.2572L23.5258 59.6605L29.5522 53.6413C31.2593 51.8753 35.2578 53.4201 38.3474 52.7869C39.2261 52.6076 40.028 52.249 40.6849 51.593Z" fill="#FFD0C7"/>
<path fill-rule="evenodd" clip-rule="evenodd" d="M29.8197 24.9303C31.1221 26.2348 33.2569 26.2348 34.5592 24.9303C35.8615 23.6295 35.8615 21.4973 34.5592 20.1966L34.5325 20.1698C32.5199 20.0249 28.6703 16.5348 28.4412 14.0858C27.1349 12.7813 25.004 12.7813 23.698 14.0858C22.3956 15.3866 22.3956 17.5188 23.698 18.8195L24.8895 20.0096L29.8197 24.9303Z" fill="#FFDCD5"/>
<path fill-rule="evenodd" clip-rule="evenodd" d="M25.0765 29.6676C26.3827 30.9684 28.5137 30.9684 29.8197 29.6676C31.1221 28.3631 31.1221 26.2347 29.8197 24.9302L24.8895 20.0096C23.5833 18.7051 21.4523 18.7051 20.15 20.0096C18.8439 21.3103 18.8439 23.4388 20.15 24.7433L21.3377 25.9296L25.0765 29.6676Z" fill="#FFDCD5"/>
<path fill-rule="evenodd" clip-rule="evenodd" d="M20.3371 34.4015C21.6432 35.7021 23.7743 35.7021 25.0765 34.4015C26.3827 33.1007 26.3827 30.9685 25.0765 29.6677L21.3377 25.9296C20.0355 24.6289 17.9006 24.6289 16.5983 25.9296C15.2923 27.2341 15.2923 29.3626 16.5983 30.6671L18.9776 33.0434L20.3371 34.4015Z" fill="#FFDCD5"/>
<path fill-rule="evenodd" clip-rule="evenodd" d="M15.5976 39.1351C16.9 40.4397 19.0348 40.4397 20.3371 39.1351C21.6432 37.8345 21.6432 35.7021 20.3371 34.4015L18.9776 33.0435C17.6714 31.7389 15.5404 31.7389 14.2343 33.0435C12.932 34.3442 12.932 36.4726 14.2343 37.7772L15.4183 38.9558L15.5976 39.1351Z" fill="#FFDCD5"/>
<path fill-rule="evenodd" clip-rule="evenodd" d="M34.3797 20.0172L39.1266 15.2721C39.6422 14.7572 40.2876 14.4483 40.9599 14.3414L31.7903 12.6059C29.9801 12.2626 28.2653 12.2512 28.4411 14.0859C28.6702 16.5348 32.5198 20.0249 34.5323 20.1699L34.3797 20.0172Z" fill="#FFDCD5"/>
<path d="M34.3797 8.76785C35.1292 8.76785 35.7369 8.16019 35.7369 7.41063V1.35722C35.7369 0.607658 35.1292 0 34.3797 0C33.6301 0 33.0224 0.607658 33.0224 1.35722V7.41063C33.0226 8.16019 33.6302 8.76785 34.3797 8.76785Z" fill="black"/>
<path d="M67.5553 46.6268L65.1577 44.236C64.3048 43.3841 63.168 42.9149 61.9567 42.9149C61.1823 42.9149 60.4388 43.1076 59.7799 43.4686L55.2617 38.9558L55.4818 38.736C57.3147 36.8995 57.3141 33.9151 55.4817 32.0847C54.8268 31.4287 54.0098 30.9912 53.1191 30.8071C53.2417 30.3838 53.3063 29.9404 53.3063 29.4867C53.3063 28.2259 52.8165 27.0438 51.93 26.1609C51.2751 25.5049 50.4581 25.0674 49.5675 24.8834C49.6901 24.4601 49.7547 24.0168 49.7547 23.5629C49.7547 22.3021 49.2649 21.12 48.377 20.2358C47.7064 19.566 46.882 19.1421 46.0164 18.9616C46.4795 17.365 46.0838 15.5688 44.8278 14.3106C43.7824 13.2695 42.3636 12.8221 40.9964 12.9671L32.0432 11.2724C30.6778 11.0134 28.9726 10.8421 27.8964 11.8239C27.8284 11.8859 27.7592 11.9572 27.6908 12.0366C26.0219 11.4282 24.0755 11.7905 22.7389 13.1255C21.8522 14.011 21.3639 15.1926 21.3639 16.4527C21.3639 16.9066 21.4281 17.3498 21.5506 17.7733C20.6609 17.9572 19.8449 18.3941 19.1922 19.048C18.3039 19.9327 17.814 21.113 17.8131 22.3716C17.8126 22.8266 17.8772 23.2713 18.0004 23.6958C17.1102 23.8794 16.2937 24.3155 15.639 24.9693C14.7506 25.8568 14.2614 27.0391 14.2614 28.2985C14.2614 29.2632 14.5494 30.1821 15.0831 30.9583C14.4093 31.1867 13.792 31.5669 13.2752 32.0832C11.4411 33.9151 11.4404 36.8996 13.2764 38.7389L13.4957 38.9572L8.97701 43.4677C7.29769 42.677 5.22864 42.9732 3.84284 44.3573L1.44374 46.7496C0.590407 47.6019 0.120614 48.7388 0.12048 49.9507C0.12048 51.1628 0.590407 52.2998 1.44374 53.1522L4.43783 56.1426C4.96813 56.6724 5.82753 56.6719 6.35716 56.1416C6.88693 55.6113 6.88639 54.7519 6.35609 54.2222L3.362 51.2318C3.02212 50.8923 2.83493 50.4373 2.83493 49.9508C2.83493 49.4645 3.02212 49.0096 3.36119 48.671L5.76042 46.2785C6.35986 45.6796 7.27734 45.5905 7.97408 46.0071C8.02314 46.0808 8.07987 46.151 8.14483 46.2159C8.261 46.3325 8.39374 46.4219 8.53484 46.4872L22.2935 60.2256C22.3588 60.3681 22.4486 60.5022 22.5657 60.6194C22.6797 60.7337 22.8098 60.8218 22.9478 60.8868C23.2387 61.2158 23.3995 61.636 23.3995 62.0842C23.3995 62.5707 23.2123 63.0255 22.8724 63.365L20.4756 65.759C19.7674 66.4641 18.6154 66.4639 17.9094 65.7611L14.9152 62.7668C14.3852 62.2367 13.5259 62.2367 12.9959 62.7666C12.4658 63.2967 12.4657 64.1559 12.9957 64.686L15.992 67.6825C16.874 68.5606 18.0322 68.9997 19.1908 68.9997C20.3497 68.9997 21.5093 68.5601 22.3923 67.681L24.7905 65.2855C25.6439 64.4332 26.1138 63.2963 26.1138 62.0841C26.1138 61.219 25.8733 60.3929 25.4258 59.6805L30.5113 54.6012C30.5167 54.5957 30.5223 54.5901 30.5277 54.5848C31.11 53.9828 32.7316 54.0954 34.2999 54.2043C35.4141 54.2817 36.6564 54.3679 37.8701 54.228L43.4391 59.7905C43.0784 60.4483 42.8858 61.1908 42.8858 61.9641C42.8858 63.175 43.3557 64.3112 44.2091 65.1636L46.6075 67.559C47.4603 68.4109 48.597 68.8801 49.8083 68.8801C51.0194 68.8801 52.1562 68.4109 53.0091 67.559L67.5559 53.03C68.4092 52.1777 68.8791 51.0408 68.8791 49.8287C68.8794 48.6168 68.4095 47.4799 67.5553 46.6268ZM31.5379 13.9394L37.4254 15.0538L33.9014 18.5765C33.3562 18.3145 32.6091 17.8258 31.7895 17.0417C30.6675 15.9685 29.8649 14.7293 29.792 13.9564C29.7918 13.956 29.7918 13.9556 29.7918 13.9552C29.7918 13.9551 29.7918 13.9549 29.7918 13.9548C29.7866 13.8993 29.7852 13.8549 29.7859 13.8211C29.9631 13.778 30.4348 13.7302 31.5379 13.9394ZM24.657 15.046C25.3446 14.3591 26.4127 14.2799 27.1896 14.806C27.6299 16.652 29.2047 18.3251 29.9131 19.003C30.4382 19.5054 32.1229 21.0117 33.8233 21.4257C34.0534 21.7554 34.1786 22.1486 34.1786 22.5634C34.1786 23.0977 33.9731 23.5973 33.5986 23.9714C33.2251 24.3455 32.7247 24.5514 32.1894 24.5514C31.654 24.5514 31.1536 24.3455 30.7785 23.9696L30.7783 23.9695L30.7776 23.9688L24.6569 17.8591C24.2837 17.4865 24.0782 16.9869 24.0782 16.4527C24.0783 15.9183 24.2838 15.4188 24.657 15.046ZM21.1105 20.9685C21.4839 20.5946 21.9838 20.3885 22.5183 20.3885C23.0534 20.3885 23.5549 20.595 23.9307 20.9704L28.8594 25.8892C29.6355 26.6666 29.6355 27.9315 28.8621 28.7061C28.4866 29.0801 27.9845 29.286 27.4483 29.286C26.912 29.286 26.4099 29.0801 26.036 28.7077L26.0359 28.7076L22.2968 24.9693C22.291 24.9635 22.2847 24.9581 22.2788 24.9522L21.109 23.783C20.7337 23.4081 20.5271 22.9076 20.5275 22.3736C20.528 21.8414 20.734 21.3435 21.1105 20.9685ZM17.5573 26.8899C17.931 26.5167 18.4319 26.3112 18.968 26.3112C19.4996 26.3112 19.9963 26.5137 20.3683 26.8804L24.1189 30.6292C24.4928 31.0017 24.6989 31.5008 24.6989 32.0344C24.6989 32.568 24.4928 33.067 24.1174 33.441C23.7438 33.814 23.2434 34.0195 22.7083 34.0195C22.1723 34.0195 21.6703 33.8135 21.2962 33.441L19.9366 32.0829C19.9363 32.0825 19.9359 32.0823 19.9356 32.082L17.5574 29.7066C17.1825 29.3321 16.976 28.8319 16.976 28.2982C16.976 27.7646 17.1825 27.2643 17.5573 26.8899ZM15.1935 34.0038C15.5688 33.6288 16.0704 33.4224 16.6058 33.4224C17.141 33.4224 17.6424 33.6287 18.0178 34.0033L19.3793 35.3633C19.7533 35.7358 19.9593 36.2348 19.9593 36.7685C19.9593 37.3021 19.7533 37.801 19.3765 38.1765C19.003 38.5505 18.5026 38.7565 17.9674 38.7565C17.4319 38.7565 16.9316 38.5506 16.5554 38.1738L16.3849 38.004C16.3827 38.0017 16.3809 37.9993 16.3787 37.9971C16.3762 37.9947 16.3735 37.9925 16.3709 37.9901L15.1948 36.8186C14.4187 36.0407 14.418 34.7781 15.1935 34.0038ZM42.852 49.4286C42.3222 48.8982 41.4628 48.8978 40.9326 49.4274L39.7251 50.6333C38.5777 51.7807 36.4987 51.6362 34.488 51.4967C32.3047 51.345 30.0469 51.1884 28.5859 52.6883L23.5868 57.6814L11.0856 45.1985L15.5096 40.7823C16.2409 41.2306 17.0846 41.4708 17.9675 41.4708C19.2286 41.4708 20.4115 40.9819 21.2949 40.0969C22.1842 39.2112 22.674 38.0292 22.674 36.7683C22.674 36.7566 22.6732 36.745 22.6732 36.7333C22.685 36.7334 22.6967 36.7341 22.7084 36.7341C23.9679 36.7341 25.1497 36.2467 26.0343 35.3631C26.9236 34.4775 27.4135 33.2953 27.4135 32.0346C27.4135 32.0228 27.4127 32.0112 27.4127 31.9995C27.4245 31.9995 27.4364 32.0003 27.4484 32.0003C28.7075 32.0003 29.8899 31.5134 30.7805 30.6265C31.705 29.7006 32.1622 28.4815 32.1535 27.2649C32.1656 27.2649 32.1777 27.2657 32.1898 27.2657C33.4511 27.2657 34.6337 26.7768 35.5184 25.8905C36.405 25.0049 36.8934 23.8233 36.8934 22.5632C36.8934 21.6821 36.6538 20.8397 36.2071 20.1098L40.0847 16.2338C40.3736 15.9461 40.7299 15.7655 41.1034 15.691C41.1438 15.6867 41.1837 15.6802 41.2232 15.6724C41.8224 15.5898 42.4516 15.7745 42.9098 16.231C43.6859 17.0085 43.6859 18.2734 42.9126 19.048L41.7317 20.2241C41.7278 20.228 41.7236 20.2315 41.7197 20.2356L40.3596 21.5935C39.8292 22.1231 39.8286 22.9825 40.3584 23.5128C40.8883 24.0432 41.7476 24.0436 42.2777 23.514L43.4634 22.33C43.4637 22.3297 43.4639 22.3294 43.4642 22.3291L43.6434 22.1506C44.4217 21.3794 45.6826 21.3811 46.46 22.1574C46.8342 22.5299 47.0402 23.029 47.0402 23.5626C47.0402 24.0962 46.8342 24.5952 46.4571 24.9707L45.2694 26.1608C45.2693 26.1609 45.2691 26.1611 45.269 26.1613L43.9089 27.5159C43.3778 28.0448 43.3761 28.9042 43.905 29.4352C44.434 29.9663 45.2932 29.9679 45.8244 29.4391L47.1906 28.0784C47.564 27.7043 48.0644 27.4983 48.5997 27.4983C49.1351 27.4983 49.6357 27.7043 50.0118 28.0811C50.3859 28.4537 50.5918 28.9527 50.5918 29.4863C50.5918 30.0198 50.3859 30.5188 50.0096 30.8935L47.6418 33.2623C47.1119 33.7924 47.112 34.6517 47.6421 35.1816C47.9072 35.4466 48.2543 35.5789 48.6016 35.5789C48.949 35.5789 49.2965 35.4463 49.5614 35.1812L50.7219 34.0203C50.7285 34.014 50.7356 34.0085 50.7422 34.0019C51.1157 33.6278 51.616 33.4218 52.1513 33.4218C52.6866 33.4218 53.1871 33.6278 53.5619 34.0032C54.3372 34.7777 54.3366 36.0405 53.5621 36.8164L52.3822 37.995C52.3818 37.9954 52.3812 37.9958 52.3808 37.9962C52.3804 37.9966 52.38 37.9971 52.3796 37.9975L50.5069 39.8679C49.9766 40.3977 49.9761 41.257 50.5057 41.7874C50.7708 42.0528 51.1185 42.1855 51.4661 42.1855C51.8132 42.1855 52.1602 42.0532 52.4252 41.7886L53.3412 40.8737L57.7314 45.2588L45.2313 57.7438L40.7525 53.2704C41.0647 53.0696 41.3635 52.8335 41.6439 52.553L42.8508 51.3477C43.3812 50.8183 43.3817 49.9589 42.852 49.4286ZM65.6379 51.1094L51.0911 65.6385C50.7509 65.9784 50.2953 66.1656 49.8086 66.1656C49.3218 66.1656 48.8663 65.9784 48.5259 65.6384L46.1274 63.2429C45.7876 62.9036 45.6004 62.4494 45.6004 61.9641C45.6004 61.479 45.7876 61.0248 46.1274 60.6853L60.6742 46.1562C61.0146 45.8162 61.4701 45.629 61.9569 45.629C62.4437 45.629 62.8992 45.8162 63.2403 46.1571L65.6379 48.5479C65.9777 48.8874 66.1649 49.3421 66.1649 49.8286C66.1649 50.3152 65.9777 50.7701 65.6379 51.1094Z" fill="black"/>
<path d="M16.3576 7.6237C16.6225 7.88811 16.9694 8.02018 17.3163 8.02018C17.664 8.02018 18.0118 7.8873 18.2769 7.62168C18.8064 7.09111 18.8056 6.23184 18.275 5.70235L13.3294 0.766556C12.799 0.236927 11.9396 0.237736 11.4101 0.768443C10.8806 1.29902 10.8814 2.15828 11.412 2.68778L16.3576 7.6237Z" fill="black"/>
<path d="M51.443 8.02025C51.79 8.02025 52.1372 7.88791 52.4021 7.62337L57.344 2.68744C57.8743 2.15781 57.8748 1.29841 57.3451 0.76811C56.8154 0.237672 55.9562 0.237268 55.4257 0.767032L50.4839 5.70296C49.9536 6.23259 49.953 7.09199 50.4828 7.62229C50.7479 7.88751 51.0954 8.02025 51.443 8.02025Z" fill="black"/>
<path d="M8.46598 58.381C7.94052 58.9154 7.9478 59.7748 8.48242 60.3003L8.48633 60.3041C8.75006 60.5634 9.0925 60.6925 9.43481 60.6925C9.78614 60.6925 10.1375 60.5565 10.4036 60.2857C10.9291 59.7513 10.9198 58.89 10.3853 58.3645C9.85083 57.8391 8.99156 57.8465 8.46598 58.381Z" fill="black"/>
<path d="M46.1715 47.4735C46.378 47.4735 46.5874 47.4264 46.784 47.3274C47.4533 46.9898 47.7221 46.1737 47.3847 45.5044C47.0471 44.8352 46.2308 44.5662 45.5617 44.9038L45.5541 44.9075C44.8849 45.2451 44.6198 46.0594 44.9573 46.7286C45.1955 47.2014 45.6748 47.4735 46.1715 47.4735Z" fill="black"/>
</g>
<defs>
<clipPath id="clip0_74_139">
<rect width="69" height="69" fill="white"/>
</clipPath>
</defs>
</svg>
