<svg width="229" height="199" viewBox="0 0 229 199" fill="none" xmlns="http://www.w3.org/2000/svg">
<path d="M111.439 62.4105C111.27 62.242 111.095 62.0712 110.915 61.8982C102.174 53.5398 89.4599 50.8262 77.963 54.5788L71.8744 56.5662C52.244 62.974 34.4025 73.9241 19.8007 88.5258C14.4709 93.8556 14.4709 102.496 19.8007 107.826L59.7791 147.805L65.1842 142.4L77.9913 155.207L141.113 92.0847L111.439 62.4105Z" fill="url(#paint0_linear_1_60)"/>
<path d="M111.439 62.4107C111.27 62.2422 111.095 62.0714 110.915 61.8984C102.174 53.5404 89.4599 50.8264 77.963 54.5789L71.8744 56.5663C52.244 62.9741 34.4025 73.9242 19.8007 88.526C14.4709 93.8558 14.4709 102.497 19.8007 107.826L59.7791 147.805L65.1842 142.4L77.9913 155.207L141.113 92.0849L111.439 62.4107Z" fill="url(#paint1_linear_1_60)"/>
<path d="M218.875 88.5263C204.273 73.9245 186.432 62.9744 166.801 56.5666L160.713 54.5792C149.216 50.8262 136.502 53.5402 127.761 61.8987C127.58 62.0712 54.6921 134.952 54.6921 134.952C50.3878 139.256 50.334 146.205 54.537 150.575C55.6141 151.695 57.0578 152.352 58.619 152.707C62.5584 153.604 65.5108 156.987 65.8757 161.01C66.0971 163.451 67.1191 165.833 68.9433 167.729C70.8886 169.751 73.4341 170.85 76.0495 171.048C80.1171 171.357 83.6697 174.078 84.7495 178.012C85.1157 179.346 85.7181 180.587 86.6638 181.571C88.7382 183.727 91.4957 184.834 94.2926 184.918C98.2979 185.038 101.865 187.541 103.171 191.328C103.595 192.557 104.223 193.713 105.134 194.66C109.473 199.171 116.8 199.088 121.226 194.662L173.491 142.4L178.896 147.806L218.875 107.827C224.205 102.497 224.205 93.8556 218.875 88.5263Z" fill="url(#paint2_linear_1_60)"/>
<path d="M152.419 83.0311L145.398 79.0688H110.584C88.9839 100.664 54.6926 134.951 54.6926 134.951C50.3883 139.256 50.3345 146.205 54.5375 150.575C55.6146 151.695 57.0583 152.352 58.6194 152.707C62.5589 153.603 65.5113 156.987 65.8762 161.01C66.0976 163.45 67.1195 165.832 68.9438 167.728C70.8891 169.751 73.4346 170.849 76.0499 171.048C80.1176 171.356 83.6702 174.078 84.75 178.012C85.1161 179.345 85.7186 180.587 86.6643 181.57C88.7387 183.727 91.4962 184.833 94.2931 184.918C98.2984 185.038 101.866 187.54 103.172 191.328C103.595 192.556 104.223 193.712 105.134 194.66C109.473 199.171 116.8 199.088 121.226 194.662L173.492 142.4L178.897 147.805L198.045 128.657L152.419 83.0311Z" fill="url(#paint3_linear_1_60)"/>
<path d="M93.7292 95.9202C74.6671 114.979 54.6921 134.952 54.6921 134.952C50.3878 139.256 50.334 146.205 54.537 150.575C55.6141 151.695 57.0578 152.352 58.619 152.707C62.5584 153.604 65.5108 156.987 65.8757 161.01C66.0971 163.451 67.1191 165.833 68.9433 167.729C70.8886 169.751 73.4341 170.85 76.0495 171.048C80.1171 171.357 83.6697 174.078 84.7495 178.012C85.1157 179.346 85.7181 180.587 86.6638 181.571C88.7382 183.727 91.4957 184.834 94.2926 184.918C98.2979 185.038 101.865 187.541 103.171 191.328C103.595 192.557 104.223 193.713 105.134 194.66C109.473 199.171 116.8 199.088 121.226 194.662L156.85 159.041L93.7292 95.9202Z" fill="url(#paint4_linear_1_60)"/>
<path d="M134.53 195.647C138.733 191.278 138.679 184.328 134.375 180.024L128.146 173.795C123.788 169.438 116.722 169.437 112.365 173.795C108.007 178.153 108.007 185.219 112.365 189.576L118.438 195.649C122.864 200.075 130.191 200.159 134.53 195.647Z" fill="url(#paint5_linear_1_60)"/>
<path d="M135.156 180.808L126.392 172.044C122.035 167.687 122.034 160.621 126.392 156.263C130.75 151.906 137.816 151.906 142.173 156.263L151.092 165.183C155.397 169.487 155.45 176.436 151.247 180.806C146.909 185.317 139.582 185.234 135.156 180.808Z" fill="url(#paint6_linear_1_60)"/>
<path d="M167.283 149.813L156.58 139.11C152.222 134.752 152.222 127.687 156.58 123.329C160.938 118.971 168.003 118.971 172.361 123.329L183.22 134.188C187.524 138.492 187.578 145.441 183.375 149.811C179.036 154.322 171.708 154.238 167.283 149.813Z" fill="url(#paint7_linear_1_60)"/>
<path d="M152.876 166.967L142.174 156.264C137.816 151.906 137.816 144.84 142.174 140.483C146.532 136.125 153.597 136.125 157.955 140.483L168.813 151.342C173.118 155.646 173.171 162.595 168.968 166.965C164.629 171.476 157.302 171.392 152.876 166.967Z" fill="url(#paint8_linear_1_60)"/>
<path d="M152.419 83.0311L131.863 62.4747C115.349 45.9612 88.5772 45.9612 72.0642 62.4747L72.0664 62.4751L62.8232 71.7184C58.6009 75.9406 58.6009 82.8011 62.8469 86.9952C62.9321 87.0803 63.019 87.1628 63.1037 87.2475C76.8987 100.611 99.1207 100.398 112.667 86.7863C114.178 85.2713 115.518 83.6519 116.696 81.9522L116.696 81.9513L130.889 96.1438C136.835 102.089 146.474 102.089 152.419 96.1438C156.04 92.5231 156.04 86.6523 152.419 83.0311Z" fill="url(#paint9_linear_1_60)"/>
<path d="M112.667 86.7833C99.1227 100.399 76.9003 100.611 63.1053 87.2463C63.0193 87.1602 62.9328 87.0809 62.8467 86.9949C58.6025 82.8008 58.5989 75.9394 62.8216 71.7167L72.0998 62.4385C76.5883 57.9648 81.8267 54.708 87.4102 52.6646L116.695 81.9496C115.518 83.6524 114.178 85.2719 112.667 86.7833Z" fill="url(#paint10_linear_1_60)"/>
<path d="M228.594 82.9586V117.686L208.733 129.151C203.693 132.059 197.251 130.334 194.337 125.295L154.047 55.5005C151.139 50.4607 152.863 44.0184 157.903 41.1108L183.671 26.2325C188.711 23.319 195.159 25.0487 198.067 30.0885L228.594 82.9586Z" fill="url(#paint11_linear_1_60)"/>
<path d="M228.594 82.9585V117.686L208.733 129.151C203.693 132.059 197.251 130.334 194.337 125.295L177.603 96.3021L221.623 70.8901L228.594 82.9585Z" fill="url(#paint12_linear_1_60)"/>
<path d="M215.482 1.18406L168.549 28.28C163.542 31.1706 161.827 37.5726 164.718 42.5792L211.528 123.657C214.053 128.031 219.646 129.53 224.021 127.004C226.851 125.371 228.594 122.351 228.594 119.084V8.7541C228.594 2.02538 221.31 -2.1803 215.482 1.18406Z" fill="url(#paint13_linear_1_60)"/>
<path d="M228.594 44.4912L213.471 29.3682L187.341 55.4982L228.594 96.7513V44.4912Z" fill="url(#paint14_linear_1_60)"/>
<path d="M200.406 60.9097C210.61 60.9097 218.882 52.6374 218.882 42.4331C218.882 32.2287 210.61 23.9564 200.406 23.9564C190.201 23.9564 181.929 32.2287 181.929 42.4331C181.929 52.6374 190.201 60.9097 200.406 60.9097Z" fill="url(#paint15_linear_1_60)"/>
<path d="M204.134 35.8536H196.677C193.043 35.8536 190.097 38.7994 190.097 42.4336C190.097 46.0677 193.043 49.0135 196.677 49.0135H204.134C207.768 49.0135 210.714 46.0677 210.714 42.4336C210.714 38.7994 207.768 35.8536 204.134 35.8536Z" fill="url(#paint16_linear_1_60)"/>
<path d="M74.5467 55.5011L34.2563 125.295C31.3429 130.335 24.9006 132.059 19.8608 129.151L0 117.687V82.9593L30.5267 30.0891C33.4343 25.0493 39.8824 23.3196 44.9223 26.2331L70.6906 41.1114C75.7304 44.019 77.4547 50.4613 74.5467 55.5011Z" fill="url(#paint17_linear_1_60)"/>
<path d="M50.9907 96.3029L34.2563 125.295C31.3429 130.335 24.9006 132.059 19.8608 129.151L0 117.687V82.9593L6.97076 70.8914L50.9907 96.3029Z" fill="url(#paint18_linear_1_60)"/>
<path d="M60.0449 28.28L13.1114 1.18406C7.28407 -2.1803 0 2.02538 0 8.7541V119.083C0 122.351 1.74314 125.37 4.57322 127.004C8.94743 129.529 14.5404 128.03 17.0661 123.656L63.8763 42.5792C66.7668 37.5726 65.0515 31.1706 60.0449 28.28Z" fill="url(#paint19_linear_1_60)"/>
<path d="M59.439 50.2648V47.5539L41.2532 29.3682L15.1232 55.4982L41.3025 81.6776L59.439 50.2648Z" fill="url(#paint20_linear_1_60)"/>
<path d="M28.1884 60.9097C38.3928 60.9097 46.6651 52.6374 46.6651 42.4331C46.6651 32.2287 38.3928 23.9564 28.1884 23.9564C17.9841 23.9564 9.71179 32.2287 9.71179 42.4331C9.71179 52.6374 17.9841 60.9097 28.1884 60.9097Z" fill="url(#paint21_linear_1_60)"/>
<path d="M31.9168 35.8536H24.4597C20.8259 35.8536 17.8798 38.7994 17.8798 42.4336C17.8798 46.0677 20.8255 49.0135 24.4597 49.0135H31.9168C35.5505 49.0135 38.4967 46.0677 38.4967 42.4336C38.4967 38.7994 35.551 35.8536 31.9168 35.8536Z" fill="url(#paint22_linear_1_60)"/>
<defs>
<linearGradient id="paint0_linear_1_60" x1="86.9169" y1="57.4988" x2="69.607" y2="132.921" gradientUnits="userSpaceOnUse">
<stop stop-color="#FFDFCF"/>
<stop offset="1" stop-color="#FFA78F"/>
</linearGradient>
<linearGradient id="paint1_linear_1_60" x1="62.8885" y1="91.616" x2="84.41" y2="103.722" gradientUnits="userSpaceOnUse">
<stop stop-color="#F89580" stop-opacity="0"/>
<stop offset="0.2599" stop-color="#F2917C" stop-opacity="0.261"/>
<stop offset="0.5954" stop-color="#E2856F" stop-opacity="0.597"/>
<stop offset="0.9709" stop-color="#C8725B" stop-opacity="0.974"/>
<stop offset="0.9972" stop-color="#C5715A"/>
</linearGradient>
<linearGradient id="paint2_linear_1_60" x1="102.604" y1="86.8239" x2="172.606" y2="156.826" gradientUnits="userSpaceOnUse">
<stop stop-color="#F89580"/>
<stop offset="1" stop-color="#C4573A"/>
</linearGradient>
<linearGradient id="paint3_linear_1_60" x1="124.191" y1="129.777" x2="117.961" y2="58.5322" gradientUnits="userSpaceOnUse">
<stop stop-color="#C4573A" stop-opacity="0"/>
<stop offset="1" stop-color="#883F2E"/>
</linearGradient>
<linearGradient id="paint4_linear_1_60" x1="101.237" y1="153.917" x2="82.5496" y2="183.505" gradientUnits="userSpaceOnUse">
<stop stop-color="#C4573A" stop-opacity="0"/>
<stop offset="0.2433" stop-color="#BB5438" stop-opacity="0.243"/>
<stop offset="0.6287" stop-color="#A44B33" stop-opacity="0.629"/>
<stop offset="1" stop-color="#883F2E"/>
</linearGradient>
<linearGradient id="paint5_linear_1_60" x1="128.43" y1="174.323" x2="118.417" y2="194.974" gradientUnits="userSpaceOnUse">
<stop stop-color="#FFDFCF"/>
<stop offset="1" stop-color="#FFA78F"/>
</linearGradient>
<linearGradient id="paint6_linear_1_60" x1="146.614" y1="160.447" x2="129.292" y2="177.769" gradientUnits="userSpaceOnUse">
<stop stop-color="#FFDFCF"/>
<stop offset="1" stop-color="#FFA78F"/>
</linearGradient>
<linearGradient id="paint7_linear_1_60" x1="177.766" y1="128.487" x2="160.444" y2="145.808" gradientUnits="userSpaceOnUse">
<stop stop-color="#FFDFCF"/>
<stop offset="1" stop-color="#FFA78F"/>
</linearGradient>
<linearGradient id="paint8_linear_1_60" x1="163.362" y1="145.638" x2="146.04" y2="162.96" gradientUnits="userSpaceOnUse">
<stop stop-color="#FFDFCF"/>
<stop offset="1" stop-color="#FFA78F"/>
</linearGradient>
<linearGradient id="paint9_linear_1_60" x1="114.449" y1="53.6387" x2="94.3448" y2="141.237" gradientUnits="userSpaceOnUse">
<stop stop-color="#FFDFCF"/>
<stop offset="1" stop-color="#FFA78F"/>
</linearGradient>
<linearGradient id="paint10_linear_1_60" x1="87.0089" y1="77.3701" x2="94.3687" y2="102.68" gradientUnits="userSpaceOnUse">
<stop stop-color="#F89580" stop-opacity="0"/>
<stop offset="0.2599" stop-color="#F2917C" stop-opacity="0.261"/>
<stop offset="0.5954" stop-color="#E2856F" stop-opacity="0.597"/>
<stop offset="0.9709" stop-color="#C8725B" stop-opacity="0.974"/>
<stop offset="0.9972" stop-color="#C5715A"/>
</linearGradient>
<linearGradient id="paint11_linear_1_60" x1="185.865" y1="82.7032" x2="173.223" y2="88.8331" gradientUnits="userSpaceOnUse">
<stop stop-color="#EAF9FA"/>
<stop offset="1" stop-color="#A8D3D8"/>
</linearGradient>
<linearGradient id="paint12_linear_1_60" x1="203.098" y1="96.1045" x2="203.098" y2="135.714" gradientUnits="userSpaceOnUse">
<stop stop-color="#7CA1B1" stop-opacity="0"/>
<stop offset="1" stop-color="#7CA1B1"/>
</linearGradient>
<linearGradient id="paint13_linear_1_60" x1="186.231" y1="30.7838" x2="223.586" y2="68.1378" gradientUnits="userSpaceOnUse">
<stop stop-color="#99E6FC"/>
<stop offset="1" stop-color="#01C0FA"/>
</linearGradient>
<linearGradient id="paint14_linear_1_60" x1="225.5" y1="67.5276" x2="196.712" y2="38.7392" gradientUnits="userSpaceOnUse">
<stop stop-color="#017BAE" stop-opacity="0"/>
<stop offset="1" stop-color="#017BAE"/>
</linearGradient>
<linearGradient id="paint15_linear_1_60" x1="190.597" y1="32.6246" x2="212.97" y2="54.9981" gradientUnits="userSpaceOnUse">
<stop stop-color="#FEE45A"/>
<stop offset="1" stop-color="#FEA613"/>
</linearGradient>
<linearGradient id="paint16_linear_1_60" x1="200.406" y1="48.4783" x2="200.406" y2="35.9881" gradientUnits="userSpaceOnUse">
<stop stop-color="#FEE45A"/>
<stop offset="1" stop-color="#FEA613"/>
</linearGradient>
<linearGradient id="paint17_linear_1_60" x1="42.9079" y1="84.4272" x2="53.252" y2="91.3231" gradientUnits="userSpaceOnUse">
<stop stop-color="#EAF9FA"/>
<stop offset="1" stop-color="#A8D3D8"/>
</linearGradient>
<linearGradient id="paint18_linear_1_60" x1="25.4954" y1="96.1048" x2="25.4954" y2="135.714" gradientUnits="userSpaceOnUse">
<stop stop-color="#7CA1B1" stop-opacity="0"/>
<stop offset="1" stop-color="#7CA1B1"/>
</linearGradient>
<linearGradient id="paint19_linear_1_60" x1="0.997744" y1="46.2973" x2="36.618" y2="81.9175" gradientUnits="userSpaceOnUse">
<stop stop-color="#FD8087"/>
<stop offset="1" stop-color="#FD3E2B"/>
</linearGradient>
<linearGradient id="paint20_linear_1_60" x1="44.1133" y1="58.3583" x2="25.8442" y2="40.0892" gradientUnits="userSpaceOnUse">
<stop stop-color="#E41F2D" stop-opacity="0"/>
<stop offset="0.3461" stop-color="#DE1E2B" stop-opacity="0.346"/>
<stop offset="0.8036" stop-color="#CE1B28" stop-opacity="0.804"/>
<stop offset="1" stop-color="#C41926"/>
</linearGradient>
<linearGradient id="paint21_linear_1_60" x1="18.3795" y1="32.6246" x2="40.753" y2="54.9981" gradientUnits="userSpaceOnUse">
<stop stop-color="#FEE45A"/>
<stop offset="1" stop-color="#FEA613"/>
</linearGradient>
<linearGradient id="paint22_linear_1_60" x1="28.1884" y1="48.4783" x2="28.1884" y2="35.9881" gradientUnits="userSpaceOnUse">
<stop stop-color="#FEE45A"/>
<stop offset="1" stop-color="#FEA613"/>
</linearGradient>
</defs>
</svg>
