<svg width="22" height="24" viewBox="0 0 22 24" fill="none" xmlns="http://www.w3.org/2000/svg">
<path d="M10.5502 19.6421H1.57136C0.703526 19.6421 4.57764e-05 18.9386 4.57764e-05 18.0708V16.4994H12.0596L10.5502 19.6421Z" fill="#D3DCFB"/>
<path d="M20.4294 7.07117V13.6727V18.0707H1.57136C0.703526 18.0707 4.57764e-05 17.3672 4.57764e-05 16.4994V7.07117L11.0004 3.14271L20.4294 7.07117Z" fill="#EBF5FC"/>
<path d="M2.77498 10.2139H1.9402C1.73682 10.2139 1.57191 10.049 1.57191 9.84564V9.01086C1.57191 8.80748 1.73682 8.64257 1.9402 8.64257H2.77498C2.97837 8.64257 3.14327 8.80748 3.14327 9.01086V9.84564C3.14327 10.049 2.97837 10.2139 2.77498 10.2139Z" fill="#3C58A0"/>
<path d="M5.91774 10.2139H5.08297C4.87958 10.2139 4.71468 10.049 4.71468 9.84564V9.01086C4.71468 8.80748 4.87958 8.64257 5.08297 8.64257H5.91774C6.12113 8.64257 6.28603 8.80748 6.28603 9.01086V9.84564C6.28603 10.049 6.12113 10.2139 5.91774 10.2139Z" fill="#3C58A0"/>
<path d="M9.06046 10.2139H8.22568C8.02229 10.2139 7.85739 10.049 7.85739 9.84564V9.01086C7.85739 8.80748 8.02229 8.64257 8.22568 8.64257H9.06046C9.26385 8.64257 9.42875 8.80748 9.42875 9.01086V9.84564C9.42875 10.049 9.26389 10.2139 9.06046 10.2139Z" fill="#3C58A0"/>
<path d="M12.2032 10.2139H11.3684C11.165 10.2139 11.0001 10.049 11.0001 9.84564V9.01086C11.0001 8.80748 11.165 8.64257 11.3684 8.64257H12.2032C12.4066 8.64257 12.5715 8.80748 12.5715 9.01086V9.84564C12.5715 10.049 12.4066 10.2139 12.2032 10.2139Z" fill="#3C58A0"/>
<path d="M15.3454 10.2139H14.5106C14.3073 10.2139 14.1423 10.049 14.1423 9.84564V9.01086C14.1423 8.80748 14.3073 8.64257 14.5106 8.64257H15.3454C15.5488 8.64257 15.7137 8.80748 15.7137 9.01086V9.84564C15.7137 10.049 15.5488 10.2139 15.3454 10.2139Z" fill="#3C58A0"/>
<path d="M18.4882 10.2139H17.6534C17.45 10.2139 17.2851 10.049 17.2851 9.84564V9.01086C17.2851 8.80748 17.45 8.64257 17.6534 8.64257H18.4882C18.6916 8.64257 18.8565 8.80748 18.8565 9.01086V9.84564C18.8565 10.049 18.6916 10.2139 18.4882 10.2139Z" fill="#3C58A0"/>
<path d="M2.77498 13.3566H1.9402C1.73682 13.3566 1.57191 13.1917 1.57191 12.9884V12.1536C1.57191 11.9502 1.73682 11.7853 1.9402 11.7853H2.77498C2.97837 11.7853 3.14327 11.9502 3.14327 12.1536V12.9884C3.14327 13.1918 2.97837 13.3566 2.77498 13.3566Z" fill="#3C58A0"/>
<path d="M5.91774 13.3566H5.08297C4.87958 13.3566 4.71468 13.1917 4.71468 12.9884V12.1536C4.71468 11.9502 4.87958 11.7853 5.08297 11.7853H5.91774C6.12113 11.7853 6.28603 11.9502 6.28603 12.1536V12.9884C6.28603 13.1918 6.12113 13.3566 5.91774 13.3566Z" fill="#3C58A0"/>
<path d="M9.06046 13.3566H8.22568C8.02229 13.3566 7.85739 13.1917 7.85739 12.9884V12.1536C7.85739 11.9502 8.02229 11.7853 8.22568 11.7853H9.06046C9.26385 11.7853 9.42875 11.9502 9.42875 12.1536V12.9884C9.42875 13.1918 9.26389 13.3566 9.06046 13.3566Z" fill="#3C58A0"/>
<path d="M12.5715 13.3566V12.1781C12.5715 11.9611 12.3956 11.7853 12.1787 11.7853H11.393C11.176 11.7853 11.0001 11.9611 11.0001 12.1781V12.9638C11.0001 13.1808 11.176 13.3566 11.393 13.3566H12.5715Z" fill="#3C58A0"/>
<path d="M2.77498 16.4994H1.9402C1.73682 16.4994 1.57191 16.3345 1.57191 16.1311V15.2963C1.57191 15.0929 1.73682 14.928 1.9402 14.928H2.77498C2.97837 14.928 3.14327 15.0929 3.14327 15.2963V16.1311C3.14327 16.3345 2.97837 16.4994 2.77498 16.4994Z" fill="#3C58A0"/>
<path d="M5.91774 16.4994H5.08297C4.87958 16.4994 4.71468 16.3345 4.71468 16.1311V15.2963C4.71468 15.0929 4.87958 14.928 5.08297 14.928H5.91774C6.12113 14.928 6.28603 15.0929 6.28603 15.2963V16.1311C6.28603 16.3345 6.12113 16.4994 5.91774 16.4994Z" fill="#3C58A0"/>
<path d="M9.06046 16.4994H8.22568C8.02229 16.4994 7.85739 16.3345 7.85739 16.1311V15.2963C7.85739 15.0929 8.02229 14.928 8.22568 14.928H9.06046C9.26385 14.928 9.42875 15.0929 9.42875 15.2963V16.1311C9.42875 16.3345 9.26389 16.4994 9.06046 16.4994Z" fill="#3C58A0"/>
<path d="M18.4771 8.64253H17.6645C17.6154 8.64253 17.5685 8.6522 17.5254 8.66918C17.666 8.7247 17.7657 8.86152 17.7657 9.02191V9.83445C17.7657 9.99484 17.666 10.1317 17.5254 10.1872C17.5685 10.2042 17.6154 10.2139 17.6645 10.2139H18.4771C18.6866 10.2139 18.8565 10.044 18.8565 9.8345V9.02196C18.8565 8.8124 18.6866 8.64253 18.4771 8.64253Z" fill="#174A73"/>
<path d="M15.3343 8.64253H14.5218C14.4726 8.64253 14.4258 8.6522 14.3827 8.66918C14.5233 8.7247 14.6229 8.86152 14.6229 9.02191V9.83445C14.6229 9.99484 14.5233 10.1317 14.3827 10.1872C14.4258 10.2042 14.4726 10.2139 14.5218 10.2139H15.3343C15.5439 10.2139 15.7137 10.044 15.7137 9.8345V9.02196C15.7137 8.8124 15.5439 8.64253 15.3343 8.64253Z" fill="#174A73"/>
<path d="M12.1921 8.64253H11.3796C11.3304 8.64253 11.2836 8.6522 11.2404 8.66918C11.3811 8.7247 11.4808 8.86152 11.4808 9.02191V9.83445C11.4808 9.99484 11.3811 10.1317 11.2404 10.1872C11.2836 10.2042 11.3304 10.2139 11.3796 10.2139H12.1921C12.4017 10.2139 12.5715 10.044 12.5715 9.8345V9.02196C12.5715 8.8124 12.4016 8.64253 12.1921 8.64253Z" fill="#174A73"/>
<path d="M9.04935 8.64253H8.23681C8.18764 8.64253 8.14082 8.6522 8.09769 8.66918C8.23833 8.7247 8.338 8.86152 8.338 9.02191V9.83445C8.338 9.99484 8.23833 10.1317 8.09769 10.1872C8.14082 10.2042 8.18764 10.2139 8.23681 10.2139H9.04935C9.25891 10.2139 9.42878 10.044 9.42878 9.8345V9.02196C9.42873 8.8124 9.25891 8.64253 9.04935 8.64253Z" fill="#174A73"/>
<path d="M5.90659 8.64253H5.09405C5.04488 8.64253 4.99806 8.6522 4.95493 8.66918C5.09557 8.7247 5.19519 8.86152 5.19519 9.02191V9.83445C5.19519 9.99484 5.09552 10.1317 4.95493 10.1872C4.99806 10.2042 5.04488 10.2139 5.09405 10.2139H5.90659C6.11614 10.2139 6.28602 10.044 6.28602 9.8345V9.02196C6.28602 8.8124 6.11614 8.64253 5.90659 8.64253Z" fill="#174A73"/>
<path d="M2.76387 8.64253H1.95133C1.90216 8.64253 1.85535 8.6522 1.81221 8.66918C1.95285 8.7247 2.05252 8.86152 2.05252 9.02191V9.83445C2.05252 9.99484 1.95285 10.1317 1.81221 10.1872C1.85535 10.2042 1.90216 10.2139 1.95133 10.2139H2.76387C2.97343 10.2139 3.1433 10.044 3.1433 9.8345V9.02196C3.14326 8.8124 2.97338 8.64253 2.76387 8.64253Z" fill="#174A73"/>
<path d="M2.76387 11.7853H1.95133C1.90216 11.7853 1.85535 11.795 1.81221 11.8119C1.95285 11.8675 2.05252 12.0043 2.05252 12.1647V12.9773C2.05252 13.1376 1.95285 13.2745 1.81221 13.33C1.85535 13.347 1.90216 13.3567 1.95133 13.3567H2.76387C2.97343 13.3567 3.1433 13.1868 3.1433 12.9773V12.1647C3.14326 11.9552 2.97338 11.7853 2.76387 11.7853Z" fill="#174A73"/>
<path d="M2.76387 14.928H1.95133C1.90216 14.928 1.85535 14.9377 1.81221 14.9547C1.95285 15.0102 2.05252 15.147 2.05252 15.3074V16.12C2.05252 16.2804 1.95285 16.4172 1.81221 16.4727C1.85535 16.4898 1.90216 16.4994 1.95133 16.4994H2.76387C2.97343 16.4994 3.1433 16.3296 3.1433 16.1201V15.3075C3.14326 15.0979 2.97338 14.928 2.76387 14.928Z" fill="#174A73"/>
<path d="M5.90659 11.7853H5.09405C5.04488 11.7853 4.99806 11.795 4.95493 11.8119C5.09557 11.8675 5.19519 12.0043 5.19519 12.1647V12.9773C5.19519 13.1376 5.09552 13.2745 4.95493 13.33C4.99806 13.347 5.04488 13.3567 5.09405 13.3567H5.90659C6.11614 13.3567 6.28602 13.1868 6.28602 12.9773V12.1647C6.28602 11.9552 6.11614 11.7853 5.90659 11.7853Z" fill="#174A73"/>
<path d="M5.90659 14.928H5.09405C5.04488 14.928 4.99806 14.9377 4.95493 14.9547C5.09557 15.0102 5.19519 15.147 5.19519 15.3074V16.12C5.19519 16.2804 5.09552 16.4172 4.95493 16.4727C4.99806 16.4898 5.04488 16.4994 5.09405 16.4994H5.90659C6.11614 16.4994 6.28602 16.3296 6.28602 16.1201V15.3075C6.28602 15.0979 6.11614 14.928 5.90659 14.928Z" fill="#174A73"/>
<path d="M9.04935 11.7853H8.23681C8.18764 11.7853 8.14082 11.795 8.09769 11.8119C8.23833 11.8675 8.338 12.0043 8.338 12.1647V12.9773C8.338 13.1376 8.23833 13.2745 8.09769 13.33C8.14082 13.347 8.18764 13.3567 8.23681 13.3567H9.04935C9.25891 13.3567 9.42878 13.1868 9.42878 12.9773V12.1647C9.42873 11.9552 9.25891 11.7853 9.04935 11.7853Z" fill="#174A73"/>
<path d="M12.5715 13.3566V12.1647C12.5715 11.9551 12.4016 11.7853 12.1921 11.7853H11.3795C11.3304 11.7853 11.2835 11.795 11.2404 11.8119C11.381 11.8675 11.4807 12.0043 11.4807 12.1647V12.9773C11.4807 13.1376 11.381 13.2745 11.2404 13.33C11.2835 13.347 11.3304 13.3567 11.3795 13.3567H12.5715V13.3566Z" fill="#174A73"/>
<path d="M9.04935 14.928H8.23681C8.18764 14.928 8.14082 14.9377 8.09769 14.9547C8.23833 15.0102 8.338 15.147 8.338 15.3074V16.12C8.338 16.2804 8.23833 16.4172 8.09769 16.4727C8.14082 16.4898 8.18764 16.4994 8.23681 16.4994H9.04935C9.25891 16.4994 9.42878 16.3296 9.42878 16.1201V15.3075C9.42873 15.0979 9.25891 14.928 9.04935 14.928Z" fill="#174A73"/>
<path d="M19.3378 6.61638V13.6727V18.0708H20.4294V13.6727V7.07117L19.3378 6.61638Z" fill="#D3DCFB"/>
<path d="M20.4294 7.07117V3.14271C20.4294 2.27488 19.7259 1.5714 18.8581 1.5714H1.57136C0.703526 1.5714 4.57764e-05 2.27488 4.57764e-05 3.14271V7.07117H20.4294Z" fill="#CC3D3D"/>
<path d="M4.95125 3.49844H3.92846C3.73198 3.49844 3.57278 3.3392 3.57278 3.14276C3.57278 2.94632 3.73202 2.78708 3.92846 2.78708H4.95125C5.14773 2.78708 5.30693 2.94632 5.30693 3.14276C5.30693 3.3392 5.14769 3.49844 4.95125 3.49844Z" fill="#CC3D3D"/>
<path d="M7.464 3.49843H6.44122C6.24473 3.49843 6.08554 3.33919 6.08554 3.14276C6.08554 2.94632 6.24478 2.78708 6.44122 2.78708H7.464C7.66049 2.78708 7.81968 2.94632 7.81968 3.14276C7.81968 3.33919 7.66049 3.49843 7.464 3.49843Z" fill="#CC3D3D"/>
<path d="M13.9872 3.49843H12.9643C12.7679 3.49843 12.6087 3.33919 12.6087 3.14276C12.6087 2.94632 12.7679 2.78708 12.9643 2.78708H13.9872C14.1837 2.78708 14.3428 2.94632 14.3428 3.14276C14.3428 3.33919 14.1837 3.49843 13.9872 3.49843Z" fill="#CC3D3D"/>
<path d="M16.5 3.49843H15.4771C15.2806 3.49843 15.1214 3.33919 15.1214 3.14276C15.1214 2.94632 15.2807 2.78708 15.4771 2.78708H16.5C16.6964 2.78708 16.8556 2.94632 16.8556 3.14276C16.8556 3.33919 16.6964 3.49843 16.5 3.49843Z" fill="#CC3D3D"/>
<path d="M6.67834 2.94632C6.67834 3.48872 6.23865 3.92841 5.69625 3.92841C5.15385 3.92841 4.71416 3.48872 4.71416 2.94632V0.982092C4.71411 0.439692 5.1538 0 5.6962 0C6.2386 0 6.67829 0.439692 6.67829 0.982092V2.94632H6.67834Z" fill="#EBF5FC"/>
<path d="M15.7143 2.94632C15.7143 3.48872 15.2746 3.92841 14.7322 3.92841C14.1898 3.92841 13.75 3.48872 13.75 2.94632V0.982092C13.75 0.439692 14.1897 0 14.7321 0C15.2745 0 15.7142 0.439692 15.7142 0.982092V2.94632H15.7143Z" fill="#EBF5FC"/>
<path d="M14.7321 0C14.5305 0 14.3432 0.060952 14.1872 0.165178C14.4508 0.341313 14.6245 0.641331 14.6245 0.982138V2.94632C14.6245 3.28708 14.4508 3.58715 14.1872 3.76328C14.3432 3.86746 14.5305 3.92846 14.7321 3.92846C15.2745 3.92846 15.7142 3.48877 15.7142 2.94637V0.982092C15.7142 0.439693 15.2746 0 14.7321 0Z" fill="#D3DCFB"/>
<path d="M5.69621 0C5.49457 0 5.30729 0.060952 5.15132 0.165178C5.41488 0.341313 5.58857 0.641331 5.58857 0.982138V2.94632C5.58857 3.28708 5.41488 3.58715 5.15132 3.76328C5.30725 3.86746 5.49457 3.92846 5.69621 3.92846C6.23861 3.92846 6.6783 3.48877 6.6783 2.94637V0.982092C6.67834 0.439693 6.23865 0 5.69621 0Z" fill="#D3DCFB"/>
<path d="M18.8581 1.57136H17.7669C18.6347 1.57136 19.3382 2.27484 19.3382 3.14267V7.07117H20.4293V3.14271C20.4294 2.27488 19.7259 1.57136 18.8581 1.57136Z" fill="#CC3D3D"/>
<path d="M0 5.14409H20.4294V5.85549H0V5.14409Z" fill="#CC3D3D"/>
<path d="M16.1073 23.5706C19.3618 23.5706 22 20.9323 22 17.6779C22 14.4235 19.3618 11.7853 16.1073 11.7853C12.8529 11.7853 10.2147 14.4235 10.2147 17.6779C10.2147 20.9323 12.8529 23.5706 16.1073 23.5706Z" fill="#3D8CCC"/>
<path d="M16.1074 21.9992C18.4939 21.9992 20.4286 20.0645 20.4286 17.6779C20.4286 15.2913 18.4939 13.3566 16.1074 13.3566C13.7208 13.3566 11.7861 15.2913 11.7861 17.6779C11.7861 20.0645 13.7208 21.9992 16.1074 21.9992Z" fill="#EBF5FC"/>
<path d="M16.1074 17.2479C15.9109 17.2479 15.7517 17.0887 15.7517 16.8922V14.928C15.7517 14.7316 15.9109 14.5723 16.1074 14.5723C16.3038 14.5723 16.463 14.7316 16.463 14.928V16.8922C16.463 17.0887 16.3038 17.2479 16.1074 17.2479Z" fill="#3C58A0"/>
<path d="M18.0716 18.0336H16.893C16.6965 18.0336 16.5373 17.8744 16.5373 17.6779C16.5373 17.4815 16.6966 17.3223 16.893 17.3223H18.0716C18.2681 17.3223 18.4273 17.4815 18.4273 17.6779C18.4273 17.8744 18.268 18.0336 18.0716 18.0336Z" fill="#3C58A0"/>
<path d="M16.1074 11.7853C15.9234 11.7853 15.7416 11.7942 15.562 11.8107C18.5606 12.0859 20.9092 14.6074 20.9092 17.6779C20.9092 20.7484 18.5606 23.27 15.5619 23.5452C15.7416 23.5617 15.9234 23.5706 16.1073 23.5706C19.3617 23.5706 22 20.9323 22 17.6779C22 14.4235 19.3618 11.7853 16.1074 11.7853Z" fill="#1F5B8C"/>
<path d="M16.1074 13.3566C15.9227 13.3566 15.7409 13.3683 15.5623 13.3908C17.6916 13.6587 19.3386 15.476 19.3386 17.6779C19.3386 19.8799 17.6916 21.6971 15.5623 21.9651C15.7409 21.9876 15.9227 21.9992 16.1074 21.9992C18.4939 21.9992 20.4286 20.0645 20.4286 17.6779C20.4286 15.2914 18.4939 13.3566 16.1074 13.3566Z" fill="#D3DCFB"/>
<path d="M16.1074 18.4636C16.5413 18.4636 16.8931 18.1119 16.8931 17.6779C16.8931 17.244 16.5413 16.8922 16.1074 16.8922C15.6734 16.8922 15.3217 17.244 15.3217 17.6779C15.3217 18.1119 15.6734 18.4636 16.1074 18.4636Z" fill="#FFDD40"/>
</svg>
