<svg width="54" height="56" viewBox="0 0 54 56" fill="none" xmlns="http://www.w3.org/2000/svg">
<path d="M27 48.8842C30.8264 48.8831 34.573 47.7541 37.8 45.6297L47.25 48.8842L44.1 39.1206C46.4928 35.1964 47.5547 30.5615 47.1186 25.9453C46.6826 21.3292 44.7733 16.9939 41.6913 13.6217C38.6092 10.2494 34.5294 8.03176 30.0939 7.31759C25.6583 6.60342 21.1188 7.43332 17.1897 9.67669C13.2607 11.9201 10.1651 15.4495 8.39024 19.7097C6.61535 23.9698 6.26187 28.7188 7.38544 33.2093C8.50901 37.6997 11.0458 41.6767 14.5967 44.5144C18.1476 47.352 22.5109 48.8893 27 48.8842ZM18 19.826H36C36.5967 19.826 37.169 20.0709 37.591 20.5068C38.0129 20.9428 38.25 21.5341 38.25 22.1506C38.25 22.7672 38.0129 23.3584 37.591 23.7944C37.169 24.2304 36.5967 24.4753 36 24.4753H18C17.4032 24.4753 16.8309 24.2304 16.409 23.7944C15.987 23.3584 15.75 22.7672 15.75 22.1506C15.75 21.5341 15.987 20.9428 16.409 20.5068C16.8309 20.0709 17.4032 19.826 18 19.826ZM18 31.4493H27C27.5967 31.4493 28.169 31.6942 28.591 32.1301C29.0129 32.5661 29.25 33.1574 29.25 33.7739C29.25 34.3905 29.0129 34.9817 28.591 35.4177C28.169 35.8537 27.5967 36.0986 27 36.0986H18C17.4032 36.0986 16.8309 35.8537 16.409 35.4177C15.987 34.9817 15.75 34.3905 15.75 33.7739C15.75 33.1574 15.987 32.5661 16.409 32.1301C16.8309 31.6942 17.4032 31.4493 18 31.4493Z" fill="white"/>
</svg>
