<svg width="23" height="23" viewBox="0 0 23 23" fill="none" xmlns="http://www.w3.org/2000/svg">
<g clip-path="url(#clip0_4_357)">
<path d="M5.55628 9.07534L0 7.55225V18.8053L5.55628 10.2376V9.07534Z" fill="#44C4A1"/>
<path d="M5.55628 0.52597L1.26219 1.59063C0.565112 1.76351 0 2.46875 0 3.16583V5.20192L5.55628 6.72501V0.52597Z" fill="#44C4A1"/>
<path d="M21.7378 0.423963L14.5825 2.03762V12.9489L15.6657 13.2701L23 2.12519V1.40154C23 0.704457 22.4349 0.266748 21.7378 0.423963Z" fill="#44C4A1"/>
<path d="M23 15.4451V4.11821L16.7631 13.5956L23 15.4451Z" fill="#44C4A1"/>
<path d="M14.5825 17.2922V22.608L21.7378 20.9944C22.4349 20.8371 23 20.1446 23 19.4475V17.7954L15.6799 15.6247L14.5825 17.2922Z" fill="#44C4A1"/>
<path d="M0 20.7983V21.2118C0 21.9089 0.565112 22.3339 1.26219 22.161L5.55628 21.0964V12.2307L0 20.7983Z" fill="#44C4A1"/>
<path d="M5.55628 6.72501L0 5.20192V7.55225L5.55628 9.07534V6.72501Z" fill="#FFFBE7"/>
<path d="M5.55628 10.2376L0 18.8053V20.7983L5.55628 12.2306V10.2376Z" fill="#FFFBE7"/>
<path d="M14.5825 12.9489V15.2992V17.2922L15.6799 15.6246L23 17.7954V15.4451L16.7631 13.5956L23 4.1182V2.12518L15.6657 13.2701L14.5825 12.9489Z" fill="#FFFBE7"/>
<path d="M5.55627 9.07535V10.2376L6.19624 9.5136L5.55627 9.07535Z" fill="#3EA69B"/>
<path d="M7.42076 8.00179L12.9633 1.73124L5.55627 0.52597V6.72501L7.42076 8.00179Z" fill="#3EA69B"/>
<path d="M8.51813 8.7533L14.5824 12.9059V1.99465L14.5035 1.98183L8.51813 8.7533Z" fill="#3EA69B"/>
<path d="M10.4746 21.8967L14.5825 22.5651V17.2493L10.4746 21.8967Z" fill="#3EA69B"/>
<path d="M14.5824 15.2563L7.29365 10.2651L5.55627 12.2307V21.0964L8.93452 21.6461L14.5824 15.2563Z" fill="#3EA69B"/>
<path d="M14.5035 1.98181L12.9633 1.73123L7.42076 8.00178L5.55627 6.725V9.07533L6.19624 9.51358L5.55627 10.2376V12.2306L7.29365 10.2651L14.5824 15.2562V12.9059L8.51813 8.75329L14.5035 1.98181Z" fill="#FFFBE7"/>
<path d="M10.4746 21.8966L14.5825 17.2493V15.2563L8.93452 21.6461L10.4746 21.8966Z" fill="#FFFBE7"/>
<path d="M5.17992 3.54356C5.17992 4.54446 3.36759 7.57316 3.36759 7.57316C3.4369 7.57316 1.55527 4.54451 1.55527 3.54356C1.55527 2.5426 2.36669 1.73123 3.36759 1.73123C4.3685 1.73123 5.17992 2.5426 5.17992 3.54356Z" fill="#CC3D3D"/>
<path d="M3.36749 4.59206C3.94571 4.59206 4.41446 4.12331 4.41446 3.54508C4.41446 2.96685 3.94571 2.49811 3.36749 2.49811C2.78926 2.49811 2.32051 2.96685 2.32051 3.54508C2.32051 4.12331 2.78926 4.59206 3.36749 4.59206Z" fill="white"/>
<path d="M18.5754 15.0824C18.5754 16.0833 16.7631 19.112 16.7631 19.112C16.8324 19.112 14.9508 16.0833 14.9508 15.0824C14.9508 14.0815 15.7622 13.2701 16.7631 13.2701C17.764 13.2701 18.5754 14.0815 18.5754 15.0824Z" fill="#CC3D3D"/>
<path d="M16.7624 16.1295C17.3406 16.1295 17.8094 15.6607 17.8094 15.0825C17.8094 14.5043 17.3406 14.0355 16.7624 14.0355C16.1842 14.0355 15.7154 14.5043 15.7154 15.0825C15.7154 15.6607 16.1842 16.1295 16.7624 16.1295Z" fill="white"/>
</g>
<defs>
<clipPath id="clip0_4_357">
<rect width="23" height="23" fill="white"/>
</clipPath>
</defs>
</svg>
