<svg width="22" height="22" viewBox="0 0 22 22" fill="none" xmlns="http://www.w3.org/2000/svg">
<g clip-path="url(#clip0_25_144)">
<path d="M21.9055 21.1015L18.0383 12.0781C17.9368 11.8411 17.7036 11.6875 17.4458 11.6875H4.55519C4.29738 11.6875 4.0644 11.8411 3.96286 12.0781L0.0956709 21.1015C-0.0862749 21.526 0.225249 22 0.688002 22H21.313C21.7747 22 22.0878 21.5268 21.9055 21.1015Z" fill="#E0F4FE"/>
<path d="M21.313 22H11.0005V11.6875H17.4458C17.7036 11.6875 17.9366 11.8412 18.0383 12.0781L21.9055 21.1015C22.0878 21.5268 21.7749 22 21.313 22Z" fill="#BCDCFE"/>
<path d="M2.78038 18.3235L2.24126 19.3665C2.24126 19.3665 1.8114 20.3699 1.66521 20.7109H9.44456L10.2789 20.6109L6.23869 16.5504L2.78038 18.3235Z" fill="#159BE1"/>
<path d="M19.1375 18.111L18.9323 17.4359C18.9323 17.4359 18.0274 15.3247 17.021 12.9766H14.7148L13.1541 13.0048L6.23869 16.5504L10.2789 20.6109L11.2674 20.7109H12.6085L14.1507 20.6678L19.1375 18.111Z" fill="#5DC983"/>
<path d="M19.1375 18.1108L14.1507 20.668L12.6085 20.7109H11.2674L11.0005 20.6839V14.1092L13.1541 13.0049L14.1966 12.986L14.7148 12.9766H17.0208C18.0272 15.3247 18.9321 17.4359 18.9321 17.4359L19.1375 18.1108Z" fill="#0EAB61"/>
<path d="M4.98018 12.9766C4.58507 13.8985 3.0397 17.5037 3.0397 17.5037L2.78038 18.3235L13.154 13.0048L11.8857 12.9766H4.98018Z" fill="#0EAB61"/>
<path d="M13.1541 13.0049L11.0005 14.1092V12.9766H11.8857L13.1541 13.0049Z" fill="#0EAB61"/>
<path d="M19.1375 18.111L14.1507 20.6678L15.4113 20.7109H20.3355C19.8796 19.6466 19.4413 18.6241 19.4413 18.6241L19.1375 18.111Z" fill="#159BE1"/>
<path d="M7.31862 16.7622L11.2674 20.7109H9.44456L6.11281 17.3792L2.24478 19.3583L3.0397 17.5037C3.14545 17.4497 11.78 13.0306 11.8857 12.9766H14.7148L7.31862 16.7622Z" fill="#FED941"/>
<path d="M11.0005 20.4441L11.2674 20.7109H11.0005V20.4441Z" fill="#FEB99E"/>
<path d="M14.7148 12.9766L13.9427 13.3718L11.0005 14.8774V13.4294C11.5299 13.1587 11.8656 12.9868 11.8857 12.9766H14.7148Z" fill="#FCBE29"/>
<path d="M19.4413 18.6239L15.4113 20.7109H12.6085L18.9321 17.4359L19.4413 18.6239Z" fill="#FCBE29"/>
<path d="M11.0005 0C7.84985 0 5.19972 2.30957 5.19972 6.31641C5.19972 10.378 10.2972 16.2867 10.5143 16.5363C10.7707 16.8313 11.2299 16.8318 11.4869 16.5363C11.7039 16.2867 16.8013 10.378 16.8013 6.31641C16.8013 2.3465 14.1026 0 11.0005 0ZM11.0005 7.73437C9.93434 7.73437 9.06691 6.86694 9.06691 5.80078C9.06691 4.73462 9.93434 3.86719 11.0005 3.86719C12.0667 3.86719 12.9341 4.73462 12.9341 5.80078C12.9341 6.86694 12.0667 7.73437 11.0005 7.73437Z" fill="#EE3616"/>
<path d="M11.0005 0V3.86719C12.0667 3.86719 12.9341 4.73479 12.9341 5.80078C12.9341 6.86678 12.0667 7.73438 11.0005 7.73438V16.7578C11.1798 16.7578 11.3585 16.684 11.4869 16.5361C13.388 14.3507 16.8013 9.59076 16.8013 6.31641C16.8013 2.3465 14.1025 0 11.0005 0Z" fill="#CB0010"/>
</g>
<defs>
<clipPath id="clip0_25_144">
<rect width="22" height="22" fill="white"/>
</clipPath>
</defs>
</svg>
