<svg width="512" height="512" viewBox="0 0 512 512" fill="none" xmlns="http://www.w3.org/2000/svg">
<path d="M485.214 426H26.786C11.993 426 0 414.007 0 399.214V112.786C0 97.993 11.993 86 26.786 86H485.213C500.007 86 512 97.993 512 112.786V399.213C512 414.007 500.007 426 485.214 426Z" fill="#EAE8E8"/>
<path d="M485.215 86H454.31C469.103 86 481.095 97.993 481.095 112.788V399.212C481.095 414.006 469.103 426 454.31 426H485.215C500.008 426 512 414.007 512 399.212V112.788C512 97.993 500.008 86 485.215 86Z" fill="#CACACA"/>
<path d="M330.212 127.212H181.788C172.706 127.212 165.344 119.85 165.344 110.768V86H346.656V110.768C346.656 119.85 339.294 127.212 330.212 127.212Z" fill="#2772AF"/>
<path d="M155.557 367.259C206.763 367.259 248.273 325.749 248.273 274.543C248.273 223.337 206.763 181.827 155.557 181.827C104.351 181.827 62.8409 223.337 62.8409 274.543C62.8409 325.749 104.351 367.259 155.557 367.259Z" fill="white"/>
<path d="M155.56 296.541C176.162 296.541 192.864 279.839 192.864 259.237C192.864 238.635 176.162 221.933 155.56 221.933C134.958 221.933 118.256 238.635 118.256 259.237C118.256 279.839 134.958 296.541 155.56 296.541Z" fill="#FFB6B6"/>
<path d="M221.268 339.95C204.478 356.816 181.24 367.259 155.557 367.259C129.875 367.259 106.637 356.816 89.8459 339.95C100.736 314.428 126.056 296.542 155.557 296.542C185.058 296.542 210.378 314.428 221.268 339.95Z" fill="#E95585"/>
<path d="M442.978 242.608H304.934C301.52 242.608 298.753 239.841 298.753 236.427V197.28C298.753 193.866 301.52 191.099 304.934 191.099H442.978C446.392 191.099 449.159 193.866 449.159 197.28V236.427C449.159 239.84 446.392 242.608 442.978 242.608Z" fill="#AAD2F2"/>
<path d="M306.994 283.073H440.917C445.059 283.073 448.417 279.715 448.417 275.573C448.417 271.431 445.059 268.073 440.917 268.073H306.994C302.852 268.073 299.494 271.431 299.494 275.573C299.494 279.715 302.852 283.073 306.994 283.073Z" fill="#737A80"/>
<path d="M440.917 304.13H306.994C302.852 304.13 299.494 307.488 299.494 311.63C299.494 315.772 302.852 319.13 306.994 319.13H440.917C445.059 319.13 448.417 315.772 448.417 311.63C448.417 307.488 445.06 304.13 440.917 304.13Z" fill="#737A80"/>
<path d="M440.917 340.186H306.994C302.852 340.186 299.494 343.544 299.494 347.686C299.494 351.828 302.852 355.186 306.994 355.186H440.917C445.059 355.186 448.417 351.828 448.417 347.686C448.417 343.544 445.06 340.186 440.917 340.186Z" fill="#737A80"/>
</svg>
