<svg xmlns="http://www.w3.org/2000/svg" width="323.665" height="44" viewBox="0 0 323.665 44">
  <g id="Group_67" data-name="Group 67" transform="translate(-33.168 -1667)">
    <g id="Layer_1" data-name="Layer 1" transform="translate(330.167 1667)" opacity="0.105">
      <path id="Path_357" data-name="Path 357" d="M26.554,6.4c-4,6.5-17.047,7.565-23.038,2L1.527,10.132a.363.363,0,0,1-.563-.113L.025,8.129a.222.222,0,0,1-.017-.153A.189.189,0,0,1,.051,7.9L1.75,6.01l.006,0a.078.078,0,0,1,0-.009l-.005,0L.051,4.124a.189.189,0,0,1-.044-.079.222.222,0,0,1,.017-.153L.963,2a.363.363,0,0,1,.563-.113L3.5,3.61C9.491-1.969,22.547-.911,26.554,5.6A.778.778,0,0,1,26.554,6.4Z" transform="translate(0 0)" fill="#fff"/>
      <circle id="Ellipse_41" data-name="Ellipse 41" cx="1.258" cy="1.258" r="1.258" transform="translate(19.352 2.894)" fill="#2673b0"/>
    </g>
    <g id="Layer_1-2" data-name="Layer 1" transform="translate(198.167 1667)" opacity="0.105">
      <path id="Path_357-2" data-name="Path 357" d="M26.554,6.4c-4,6.5-17.047,7.565-23.038,2L1.527,10.132a.363.363,0,0,1-.563-.113L.025,8.129a.222.222,0,0,1-.017-.153A.189.189,0,0,1,.051,7.9L1.75,6.01l.006,0a.078.078,0,0,1,0-.009l-.005,0L.051,4.124a.189.189,0,0,1-.044-.079.222.222,0,0,1,.017-.153L.963,2a.363.363,0,0,1,.563-.113L3.5,3.61C9.491-1.969,22.547-.911,26.554,5.6A.778.778,0,0,1,26.554,6.4Z" transform="translate(0 0)" fill="#fff"/>
      <circle id="Ellipse_41-2" data-name="Ellipse 41" cx="1.258" cy="1.258" r="1.258" transform="translate(19.352 2.894)" fill="#2673b0"/>
    </g>
    <g id="Layer_1-3" data-name="Layer 1" transform="translate(297.167 1667)" opacity="0.105">
      <path id="Path_357-3" data-name="Path 357" d="M26.554,6.4c-4,6.5-17.047,7.565-23.038,2L1.527,10.132a.363.363,0,0,1-.563-.113L.025,8.129a.222.222,0,0,1-.017-.153A.189.189,0,0,1,.051,7.9L1.75,6.01l.006,0a.078.078,0,0,1,0-.009l-.005,0L.051,4.124a.189.189,0,0,1-.044-.079.222.222,0,0,1,.017-.153L.963,2a.363.363,0,0,1,.563-.113L3.5,3.61C9.491-1.969,22.547-.911,26.554,5.6A.778.778,0,0,1,26.554,6.4Z" transform="translate(0 0)" fill="#fff"/>
      <circle id="Ellipse_41-3" data-name="Ellipse 41" cx="1.258" cy="1.258" r="1.258" transform="translate(19.352 2.894)" fill="#2673b0"/>
    </g>
    <g id="Layer_1-4" data-name="Layer 1" transform="translate(165.167 1667)" opacity="0.105">
      <path id="Path_357-4" data-name="Path 357" d="M26.554,6.4c-4,6.5-17.047,7.565-23.038,2L1.527,10.132a.363.363,0,0,1-.563-.113L.025,8.129a.222.222,0,0,1-.017-.153A.189.189,0,0,1,.051,7.9L1.75,6.01l.006,0a.078.078,0,0,1,0-.009l-.005,0L.051,4.124a.189.189,0,0,1-.044-.079.222.222,0,0,1,.017-.153L.963,2a.363.363,0,0,1,.563-.113L3.5,3.61C9.491-1.969,22.547-.911,26.554,5.6A.778.778,0,0,1,26.554,6.4Z" transform="translate(0 0)" fill="#fff"/>
      <circle id="Ellipse_41-4" data-name="Ellipse 41" cx="1.258" cy="1.258" r="1.258" transform="translate(19.352 2.894)" fill="#2673b0"/>
    </g>
    <g id="Layer_1-5" data-name="Layer 1" transform="translate(264.167 1667)" opacity="0.105">
      <path id="Path_357-5" data-name="Path 357" d="M26.554,6.4c-4,6.5-17.047,7.565-23.038,2L1.527,10.132a.363.363,0,0,1-.563-.113L.025,8.129a.222.222,0,0,1-.017-.153A.189.189,0,0,1,.051,7.9L1.75,6.01l.006,0a.078.078,0,0,1,0-.009l-.005,0L.051,4.124a.189.189,0,0,1-.044-.079.222.222,0,0,1,.017-.153L.963,2a.363.363,0,0,1,.563-.113L3.5,3.61C9.491-1.969,22.547-.911,26.554,5.6A.778.778,0,0,1,26.554,6.4Z" transform="translate(0 0)" fill="#fff"/>
      <circle id="Ellipse_41-5" data-name="Ellipse 41" cx="1.258" cy="1.258" r="1.258" transform="translate(19.352 2.894)" fill="#2673b0"/>
    </g>
    <g id="Layer_1-6" data-name="Layer 1" transform="translate(132.167 1667)" opacity="0.105">
      <path id="Path_357-6" data-name="Path 357" d="M26.554,6.4c-4,6.5-17.047,7.565-23.038,2L1.527,10.132a.363.363,0,0,1-.563-.113L.025,8.129a.222.222,0,0,1-.017-.153A.189.189,0,0,1,.051,7.9L1.75,6.01l.006,0a.078.078,0,0,1,0-.009l-.005,0L.051,4.124a.189.189,0,0,1-.044-.079.222.222,0,0,1,.017-.153L.963,2a.363.363,0,0,1,.563-.113L3.5,3.61C9.491-1.969,22.547-.911,26.554,5.6A.778.778,0,0,1,26.554,6.4Z" transform="translate(0 0)" fill="#fff"/>
      <circle id="Ellipse_41-6" data-name="Ellipse 41" cx="1.258" cy="1.258" r="1.258" transform="translate(19.352 2.894)" fill="#2673b0"/>
    </g>
    <g id="Layer_1-7" data-name="Layer 1" transform="translate(66.167 1667)" opacity="0.105">
      <path id="Path_357-7" data-name="Path 357" d="M26.554,6.4c-4,6.5-17.047,7.565-23.038,2L1.527,10.132a.363.363,0,0,1-.563-.113L.025,8.129a.222.222,0,0,1-.017-.153A.189.189,0,0,1,.051,7.9L1.75,6.01l.006,0a.078.078,0,0,1,0-.009l-.005,0L.051,4.124a.189.189,0,0,1-.044-.079.222.222,0,0,1,.017-.153L.963,2a.363.363,0,0,1,.563-.113L3.5,3.61C9.491-1.969,22.547-.911,26.554,5.6A.778.778,0,0,1,26.554,6.4Z" transform="translate(0 0)" fill="#fff"/>
      <circle id="Ellipse_41-7" data-name="Ellipse 41" cx="1.258" cy="1.258" r="1.258" transform="translate(19.352 2.894)" fill="#2673b0"/>
    </g>
    <g id="Layer_1-8" data-name="Layer 1" transform="translate(231.167 1667)" opacity="0.105">
      <path id="Path_357-8" data-name="Path 357" d="M26.554,6.4c-4,6.5-17.047,7.565-23.038,2L1.527,10.132a.363.363,0,0,1-.563-.113L.025,8.129a.222.222,0,0,1-.017-.153A.189.189,0,0,1,.051,7.9L1.75,6.01l.006,0a.078.078,0,0,1,0-.009l-.005,0L.051,4.124a.189.189,0,0,1-.044-.079.222.222,0,0,1,.017-.153L.963,2a.363.363,0,0,1,.563-.113L3.5,3.61C9.491-1.969,22.547-.911,26.554,5.6A.778.778,0,0,1,26.554,6.4Z" transform="translate(0 0)" fill="#fff"/>
      <circle id="Ellipse_41-8" data-name="Ellipse 41" cx="1.258" cy="1.258" r="1.258" transform="translate(19.352 2.894)" fill="#2673b0"/>
    </g>
    <g id="Layer_1-9" data-name="Layer 1" transform="translate(99.167 1667)" opacity="0.105">
      <path id="Path_357-9" data-name="Path 357" d="M26.554,6.4c-4,6.5-17.047,7.565-23.038,2L1.527,10.132a.363.363,0,0,1-.563-.113L.025,8.129a.222.222,0,0,1-.017-.153A.189.189,0,0,1,.051,7.9L1.75,6.01l.006,0a.078.078,0,0,1,0-.009l-.005,0L.051,4.124a.189.189,0,0,1-.044-.079.222.222,0,0,1,.017-.153L.963,2a.363.363,0,0,1,.563-.113L3.5,3.61C9.491-1.969,22.547-.911,26.554,5.6A.778.778,0,0,1,26.554,6.4Z" transform="translate(0 0)" fill="#fff"/>
      <circle id="Ellipse_41-9" data-name="Ellipse 41" cx="1.258" cy="1.258" r="1.258" transform="translate(19.352 2.894)" fill="#2673b0"/>
    </g>
    <g id="Layer_1-10" data-name="Layer 1" transform="translate(33.167 1667)" opacity="0.105">
      <path id="Path_357-10" data-name="Path 357" d="M26.554,6.4c-4,6.5-17.047,7.565-23.038,2L1.527,10.132a.363.363,0,0,1-.563-.113L.025,8.129a.222.222,0,0,1-.017-.153A.189.189,0,0,1,.051,7.9L1.75,6.01l.006,0a.078.078,0,0,1,0-.009l-.005,0L.051,4.124a.189.189,0,0,1-.044-.079.222.222,0,0,1,.017-.153L.963,2a.363.363,0,0,1,.563-.113L3.5,3.61C9.491-1.969,22.547-.911,26.554,5.6A.778.778,0,0,1,26.554,6.4Z" transform="translate(0 0)" fill="#fff"/>
      <circle id="Ellipse_41-10" data-name="Ellipse 41" cx="1.258" cy="1.258" r="1.258" transform="translate(19.352 2.894)" fill="#2673b0"/>
    </g>
    <g id="Layer_1-11" data-name="Layer 1" transform="translate(330.167 1683)" opacity="0.105">
      <path id="Path_357-11" data-name="Path 357" d="M26.554,6.4c-4,6.5-17.047,7.565-23.038,2L1.527,10.132a.363.363,0,0,1-.563-.113L.025,8.129a.222.222,0,0,1-.017-.153A.189.189,0,0,1,.051,7.9L1.75,6.01l.006,0a.078.078,0,0,1,0-.009l-.005,0L.051,4.124a.189.189,0,0,1-.044-.079.222.222,0,0,1,.017-.153L.963,2a.363.363,0,0,1,.563-.113L3.5,3.61C9.491-1.969,22.547-.911,26.554,5.6A.778.778,0,0,1,26.554,6.4Z" transform="translate(0 0)" fill="#fff"/>
      <circle id="Ellipse_41-11" data-name="Ellipse 41" cx="1.258" cy="1.258" r="1.258" transform="translate(19.352 2.894)" fill="#2673b0"/>
    </g>
    <g id="Layer_1-12" data-name="Layer 1" transform="translate(198.167 1683)" opacity="0.105">
      <path id="Path_357-12" data-name="Path 357" d="M26.554,6.4c-4,6.5-17.047,7.565-23.038,2L1.527,10.132a.363.363,0,0,1-.563-.113L.025,8.129a.222.222,0,0,1-.017-.153A.189.189,0,0,1,.051,7.9L1.75,6.01l.006,0a.078.078,0,0,1,0-.009l-.005,0L.051,4.124a.189.189,0,0,1-.044-.079.222.222,0,0,1,.017-.153L.963,2a.363.363,0,0,1,.563-.113L3.5,3.61C9.491-1.969,22.547-.911,26.554,5.6A.778.778,0,0,1,26.554,6.4Z" transform="translate(0 0)" fill="#fff"/>
      <circle id="Ellipse_41-12" data-name="Ellipse 41" cx="1.258" cy="1.258" r="1.258" transform="translate(19.352 2.894)" fill="#2673b0"/>
    </g>
    <g id="Layer_1-13" data-name="Layer 1" transform="translate(297.167 1683)" opacity="0.105">
      <path id="Path_357-13" data-name="Path 357" d="M26.554,6.4c-4,6.5-17.047,7.565-23.038,2L1.527,10.132a.363.363,0,0,1-.563-.113L.025,8.129a.222.222,0,0,1-.017-.153A.189.189,0,0,1,.051,7.9L1.75,6.01l.006,0a.078.078,0,0,1,0-.009l-.005,0L.051,4.124a.189.189,0,0,1-.044-.079.222.222,0,0,1,.017-.153L.963,2a.363.363,0,0,1,.563-.113L3.5,3.61C9.491-1.969,22.547-.911,26.554,5.6A.778.778,0,0,1,26.554,6.4Z" transform="translate(0 0)" fill="#fff"/>
      <circle id="Ellipse_41-13" data-name="Ellipse 41" cx="1.258" cy="1.258" r="1.258" transform="translate(19.352 2.894)" fill="#2673b0"/>
    </g>
    <g id="Layer_1-14" data-name="Layer 1" transform="translate(165.167 1683)" opacity="0.105">
      <path id="Path_357-14" data-name="Path 357" d="M26.554,6.4c-4,6.5-17.047,7.565-23.038,2L1.527,10.132a.363.363,0,0,1-.563-.113L.025,8.129a.222.222,0,0,1-.017-.153A.189.189,0,0,1,.051,7.9L1.75,6.01l.006,0a.078.078,0,0,1,0-.009l-.005,0L.051,4.124a.189.189,0,0,1-.044-.079.222.222,0,0,1,.017-.153L.963,2a.363.363,0,0,1,.563-.113L3.5,3.61C9.491-1.969,22.547-.911,26.554,5.6A.778.778,0,0,1,26.554,6.4Z" transform="translate(0 0)" fill="#fff"/>
      <circle id="Ellipse_41-14" data-name="Ellipse 41" cx="1.258" cy="1.258" r="1.258" transform="translate(19.352 2.894)" fill="#2673b0"/>
    </g>
    <g id="Layer_1-15" data-name="Layer 1" transform="translate(264.167 1683)" opacity="0.105">
      <path id="Path_357-15" data-name="Path 357" d="M26.554,6.4c-4,6.5-17.047,7.565-23.038,2L1.527,10.132a.363.363,0,0,1-.563-.113L.025,8.129a.222.222,0,0,1-.017-.153A.189.189,0,0,1,.051,7.9L1.75,6.01l.006,0a.078.078,0,0,1,0-.009l-.005,0L.051,4.124a.189.189,0,0,1-.044-.079.222.222,0,0,1,.017-.153L.963,2a.363.363,0,0,1,.563-.113L3.5,3.61C9.491-1.969,22.547-.911,26.554,5.6A.778.778,0,0,1,26.554,6.4Z" transform="translate(0 0)" fill="#fff"/>
      <circle id="Ellipse_41-15" data-name="Ellipse 41" cx="1.258" cy="1.258" r="1.258" transform="translate(19.352 2.894)" fill="#2673b0"/>
    </g>
    <g id="Layer_1-16" data-name="Layer 1" transform="translate(132.167 1683)" opacity="0.105">
      <path id="Path_357-16" data-name="Path 357" d="M26.554,6.4c-4,6.5-17.047,7.565-23.038,2L1.527,10.132a.363.363,0,0,1-.563-.113L.025,8.129a.222.222,0,0,1-.017-.153A.189.189,0,0,1,.051,7.9L1.75,6.01l.006,0a.078.078,0,0,1,0-.009l-.005,0L.051,4.124a.189.189,0,0,1-.044-.079.222.222,0,0,1,.017-.153L.963,2a.363.363,0,0,1,.563-.113L3.5,3.61C9.491-1.969,22.547-.911,26.554,5.6A.778.778,0,0,1,26.554,6.4Z" transform="translate(0 0)" fill="#fff"/>
      <circle id="Ellipse_41-16" data-name="Ellipse 41" cx="1.258" cy="1.258" r="1.258" transform="translate(19.352 2.894)" fill="#2673b0"/>
    </g>
    <g id="Layer_1-17" data-name="Layer 1" transform="translate(66.167 1683)" opacity="0.105">
      <path id="Path_357-17" data-name="Path 357" d="M26.554,6.4c-4,6.5-17.047,7.565-23.038,2L1.527,10.132a.363.363,0,0,1-.563-.113L.025,8.129a.222.222,0,0,1-.017-.153A.189.189,0,0,1,.051,7.9L1.75,6.01l.006,0a.078.078,0,0,1,0-.009l-.005,0L.051,4.124a.189.189,0,0,1-.044-.079.222.222,0,0,1,.017-.153L.963,2a.363.363,0,0,1,.563-.113L3.5,3.61C9.491-1.969,22.547-.911,26.554,5.6A.778.778,0,0,1,26.554,6.4Z" transform="translate(0 0)" fill="#fff"/>
      <circle id="Ellipse_41-17" data-name="Ellipse 41" cx="1.258" cy="1.258" r="1.258" transform="translate(19.352 2.894)" fill="#2673b0"/>
    </g>
    <g id="Layer_1-18" data-name="Layer 1" transform="translate(231.167 1683)" opacity="0.105">
      <path id="Path_357-18" data-name="Path 357" d="M26.554,6.4c-4,6.5-17.047,7.565-23.038,2L1.527,10.132a.363.363,0,0,1-.563-.113L.025,8.129a.222.222,0,0,1-.017-.153A.189.189,0,0,1,.051,7.9L1.75,6.01l.006,0a.078.078,0,0,1,0-.009l-.005,0L.051,4.124a.189.189,0,0,1-.044-.079.222.222,0,0,1,.017-.153L.963,2a.363.363,0,0,1,.563-.113L3.5,3.61C9.491-1.969,22.547-.911,26.554,5.6A.778.778,0,0,1,26.554,6.4Z" transform="translate(0 0)" fill="#fff"/>
      <circle id="Ellipse_41-18" data-name="Ellipse 41" cx="1.258" cy="1.258" r="1.258" transform="translate(19.352 2.894)" fill="#2673b0"/>
    </g>
    <g id="Layer_1-19" data-name="Layer 1" transform="translate(99.167 1683)" opacity="0.105">
      <path id="Path_357-19" data-name="Path 357" d="M26.554,6.4c-4,6.5-17.047,7.565-23.038,2L1.527,10.132a.363.363,0,0,1-.563-.113L.025,8.129a.222.222,0,0,1-.017-.153A.189.189,0,0,1,.051,7.9L1.75,6.01l.006,0a.078.078,0,0,1,0-.009l-.005,0L.051,4.124a.189.189,0,0,1-.044-.079.222.222,0,0,1,.017-.153L.963,2a.363.363,0,0,1,.563-.113L3.5,3.61C9.491-1.969,22.547-.911,26.554,5.6A.778.778,0,0,1,26.554,6.4Z" transform="translate(0 0)" fill="#fff"/>
      <circle id="Ellipse_41-19" data-name="Ellipse 41" cx="1.258" cy="1.258" r="1.258" transform="translate(19.352 2.894)" fill="#2673b0"/>
    </g>
    <g id="Layer_1-20" data-name="Layer 1" transform="translate(33.167 1683)" opacity="0.105">
      <path id="Path_357-20" data-name="Path 357" d="M26.554,6.4c-4,6.5-17.047,7.565-23.038,2L1.527,10.132a.363.363,0,0,1-.563-.113L.025,8.129a.222.222,0,0,1-.017-.153A.189.189,0,0,1,.051,7.9L1.75,6.01l.006,0a.078.078,0,0,1,0-.009l-.005,0L.051,4.124a.189.189,0,0,1-.044-.079.222.222,0,0,1,.017-.153L.963,2a.363.363,0,0,1,.563-.113L3.5,3.61C9.491-1.969,22.547-.911,26.554,5.6A.778.778,0,0,1,26.554,6.4Z" transform="translate(0 0)" fill="#fff"/>
      <circle id="Ellipse_41-20" data-name="Ellipse 41" cx="1.258" cy="1.258" r="1.258" transform="translate(19.352 2.894)" fill="#2673b0"/>
    </g>
    <g id="Layer_1-21" data-name="Layer 1" transform="translate(330.167 1699)" opacity="0.105">
      <path id="Path_357-21" data-name="Path 357" d="M26.554,6.4c-4,6.5-17.047,7.565-23.038,2L1.527,10.132a.363.363,0,0,1-.563-.113L.025,8.129a.222.222,0,0,1-.017-.153A.189.189,0,0,1,.051,7.9L1.75,6.01l.006,0a.078.078,0,0,1,0-.009l-.005,0L.051,4.124a.189.189,0,0,1-.044-.079.222.222,0,0,1,.017-.153L.963,2a.363.363,0,0,1,.563-.113L3.5,3.61C9.491-1.969,22.547-.911,26.554,5.6A.778.778,0,0,1,26.554,6.4Z" transform="translate(0 0)" fill="#fff"/>
      <circle id="Ellipse_41-21" data-name="Ellipse 41" cx="1.258" cy="1.258" r="1.258" transform="translate(19.352 2.894)" fill="#2673b0"/>
    </g>
    <g id="Layer_1-22" data-name="Layer 1" transform="translate(198.167 1699)" opacity="0.105">
      <path id="Path_357-22" data-name="Path 357" d="M26.554,6.4c-4,6.5-17.047,7.565-23.038,2L1.527,10.132a.363.363,0,0,1-.563-.113L.025,8.129a.222.222,0,0,1-.017-.153A.189.189,0,0,1,.051,7.9L1.75,6.01l.006,0a.078.078,0,0,1,0-.009l-.005,0L.051,4.124a.189.189,0,0,1-.044-.079.222.222,0,0,1,.017-.153L.963,2a.363.363,0,0,1,.563-.113L3.5,3.61C9.491-1.969,22.547-.911,26.554,5.6A.778.778,0,0,1,26.554,6.4Z" transform="translate(0 0)" fill="#fff"/>
      <circle id="Ellipse_41-22" data-name="Ellipse 41" cx="1.258" cy="1.258" r="1.258" transform="translate(19.352 2.894)" fill="#2673b0"/>
    </g>
    <g id="Layer_1-23" data-name="Layer 1" transform="translate(297.167 1699)" opacity="0.105">
      <path id="Path_357-23" data-name="Path 357" d="M26.554,6.4c-4,6.5-17.047,7.565-23.038,2L1.527,10.132a.363.363,0,0,1-.563-.113L.025,8.129a.222.222,0,0,1-.017-.153A.189.189,0,0,1,.051,7.9L1.75,6.01l.006,0a.078.078,0,0,1,0-.009l-.005,0L.051,4.124a.189.189,0,0,1-.044-.079.222.222,0,0,1,.017-.153L.963,2a.363.363,0,0,1,.563-.113L3.5,3.61C9.491-1.969,22.547-.911,26.554,5.6A.778.778,0,0,1,26.554,6.4Z" transform="translate(0 0)" fill="#fff"/>
      <circle id="Ellipse_41-23" data-name="Ellipse 41" cx="1.258" cy="1.258" r="1.258" transform="translate(19.352 2.894)" fill="#2673b0"/>
    </g>
    <g id="Layer_1-24" data-name="Layer 1" transform="translate(165.167 1699)" opacity="0.105">
      <path id="Path_357-24" data-name="Path 357" d="M26.554,6.4c-4,6.5-17.047,7.565-23.038,2L1.527,10.132a.363.363,0,0,1-.563-.113L.025,8.129a.222.222,0,0,1-.017-.153A.189.189,0,0,1,.051,7.9L1.75,6.01l.006,0a.078.078,0,0,1,0-.009l-.005,0L.051,4.124a.189.189,0,0,1-.044-.079.222.222,0,0,1,.017-.153L.963,2a.363.363,0,0,1,.563-.113L3.5,3.61C9.491-1.969,22.547-.911,26.554,5.6A.778.778,0,0,1,26.554,6.4Z" transform="translate(0 0)" fill="#fff"/>
      <circle id="Ellipse_41-24" data-name="Ellipse 41" cx="1.258" cy="1.258" r="1.258" transform="translate(19.352 2.894)" fill="#2673b0"/>
    </g>
    <g id="Layer_1-25" data-name="Layer 1" transform="translate(264.167 1699)" opacity="0.105">
      <path id="Path_357-25" data-name="Path 357" d="M26.554,6.4c-4,6.5-17.047,7.565-23.038,2L1.527,10.132a.363.363,0,0,1-.563-.113L.025,8.129a.222.222,0,0,1-.017-.153A.189.189,0,0,1,.051,7.9L1.75,6.01l.006,0a.078.078,0,0,1,0-.009l-.005,0L.051,4.124a.189.189,0,0,1-.044-.079.222.222,0,0,1,.017-.153L.963,2a.363.363,0,0,1,.563-.113L3.5,3.61C9.491-1.969,22.547-.911,26.554,5.6A.778.778,0,0,1,26.554,6.4Z" transform="translate(0 0)" fill="#fff"/>
      <circle id="Ellipse_41-25" data-name="Ellipse 41" cx="1.258" cy="1.258" r="1.258" transform="translate(19.352 2.894)" fill="#2673b0"/>
    </g>
    <g id="Layer_1-26" data-name="Layer 1" transform="translate(132.167 1699)" opacity="0.105">
      <path id="Path_357-26" data-name="Path 357" d="M26.554,6.4c-4,6.5-17.047,7.565-23.038,2L1.527,10.132a.363.363,0,0,1-.563-.113L.025,8.129a.222.222,0,0,1-.017-.153A.189.189,0,0,1,.051,7.9L1.75,6.01l.006,0a.078.078,0,0,1,0-.009l-.005,0L.051,4.124a.189.189,0,0,1-.044-.079.222.222,0,0,1,.017-.153L.963,2a.363.363,0,0,1,.563-.113L3.5,3.61C9.491-1.969,22.547-.911,26.554,5.6A.778.778,0,0,1,26.554,6.4Z" transform="translate(0 0)" fill="#fff"/>
      <circle id="Ellipse_41-26" data-name="Ellipse 41" cx="1.258" cy="1.258" r="1.258" transform="translate(19.352 2.894)" fill="#2673b0"/>
    </g>
    <g id="Layer_1-27" data-name="Layer 1" transform="translate(66.167 1699)" opacity="0.105">
      <path id="Path_357-27" data-name="Path 357" d="M26.554,6.4c-4,6.5-17.047,7.565-23.038,2L1.527,10.132a.363.363,0,0,1-.563-.113L.025,8.129a.222.222,0,0,1-.017-.153A.189.189,0,0,1,.051,7.9L1.75,6.01l.006,0a.078.078,0,0,1,0-.009l-.005,0L.051,4.124a.189.189,0,0,1-.044-.079.222.222,0,0,1,.017-.153L.963,2a.363.363,0,0,1,.563-.113L3.5,3.61C9.491-1.969,22.547-.911,26.554,5.6A.778.778,0,0,1,26.554,6.4Z" transform="translate(0 0)" fill="#fff"/>
      <circle id="Ellipse_41-27" data-name="Ellipse 41" cx="1.258" cy="1.258" r="1.258" transform="translate(19.352 2.894)" fill="#2673b0"/>
    </g>
    <g id="Layer_1-28" data-name="Layer 1" transform="translate(231.167 1699)" opacity="0.105">
      <path id="Path_357-28" data-name="Path 357" d="M26.554,6.4c-4,6.5-17.047,7.565-23.038,2L1.527,10.132a.363.363,0,0,1-.563-.113L.025,8.129a.222.222,0,0,1-.017-.153A.189.189,0,0,1,.051,7.9L1.75,6.01l.006,0a.078.078,0,0,1,0-.009l-.005,0L.051,4.124a.189.189,0,0,1-.044-.079.222.222,0,0,1,.017-.153L.963,2a.363.363,0,0,1,.563-.113L3.5,3.61C9.491-1.969,22.547-.911,26.554,5.6A.778.778,0,0,1,26.554,6.4Z" transform="translate(0 0)" fill="#fff"/>
      <circle id="Ellipse_41-28" data-name="Ellipse 41" cx="1.258" cy="1.258" r="1.258" transform="translate(19.352 2.894)" fill="#2673b0"/>
    </g>
    <g id="Layer_1-29" data-name="Layer 1" transform="translate(99.167 1699)" opacity="0.105">
      <path id="Path_357-29" data-name="Path 357" d="M26.554,6.4c-4,6.5-17.047,7.565-23.038,2L1.527,10.132a.363.363,0,0,1-.563-.113L.025,8.129a.222.222,0,0,1-.017-.153A.189.189,0,0,1,.051,7.9L1.75,6.01l.006,0a.078.078,0,0,1,0-.009l-.005,0L.051,4.124a.189.189,0,0,1-.044-.079.222.222,0,0,1,.017-.153L.963,2a.363.363,0,0,1,.563-.113L3.5,3.61C9.491-1.969,22.547-.911,26.554,5.6A.778.778,0,0,1,26.554,6.4Z" transform="translate(0 0)" fill="#fff"/>
      <circle id="Ellipse_41-29" data-name="Ellipse 41" cx="1.258" cy="1.258" r="1.258" transform="translate(19.352 2.894)" fill="#2673b0"/>
    </g>
    <g id="Layer_1-30" data-name="Layer 1" transform="translate(33.167 1699)" opacity="0.105">
      <path id="Path_357-30" data-name="Path 357" d="M26.554,6.4c-4,6.5-17.047,7.565-23.038,2L1.527,10.132a.363.363,0,0,1-.563-.113L.025,8.129a.222.222,0,0,1-.017-.153A.189.189,0,0,1,.051,7.9L1.75,6.01l.006,0a.078.078,0,0,1,0-.009l-.005,0L.051,4.124a.189.189,0,0,1-.044-.079.222.222,0,0,1,.017-.153L.963,2a.363.363,0,0,1,.563-.113L3.5,3.61C9.491-1.969,22.547-.911,26.554,5.6A.778.778,0,0,1,26.554,6.4Z" transform="translate(0 0)" fill="#fff"/>
      <circle id="Ellipse_41-30" data-name="Ellipse 41" cx="1.258" cy="1.258" r="1.258" transform="translate(19.352 2.894)" fill="#2673b0"/>
    </g>
  </g>
</svg>
