<svg width="45" height="45" viewBox="0 0 45 45" fill="none" xmlns="http://www.w3.org/2000/svg">
<g clip-path="url(#clip0_644_13)">
<path d="M40.0856 31.7119C37.2506 29.3156 35.625 25.8131 35.625 22.1025V16.875C35.625 10.2769 30.7238 4.815 24.375 3.9V1.875C24.375 0.838125 23.535 0 22.5 0C21.465 0 20.625 0.838125 20.625 1.875V3.9C14.2744 4.815 9.375 10.2769 9.375 16.875V22.1025C9.375 25.8131 7.74938 29.3156 4.8975 31.7269C4.16813 32.3513 3.75 33.2588 3.75 34.2188C3.75 36.0281 5.22188 37.5 7.03125 37.5H37.9688C39.7781 37.5 41.25 36.0281 41.25 34.2188C41.25 33.2588 40.8319 32.3513 40.0856 31.7119Z" fill="white"/>
<path d="M22.5 45C25.8956 45 28.7363 42.5794 29.3888 39.375H15.6113C16.2638 42.5794 19.1044 45 22.5 45Z" fill="white"/>
</g>
<defs>
<clipPath id="clip0_644_13">
<rect width="45" height="45" fill="white"/>
</clipPath>
</defs>
</svg>
