<svg width="48" height="48" viewBox="0 0 48 48" fill="none" xmlns="http://www.w3.org/2000/svg">
<path d="M40 37.1233H8L12 32.4829V18.5617C12.0029 15.2742 13.0085 12.094 14.8388 9.58425C16.669 7.0745 19.2059 5.39714 22 4.84923V2.32021C22 1.70485 22.2107 1.1147 22.5858 0.679573C22.9609 0.24445 23.4696 0 24 0C24.5304 0 25.0391 0.24445 25.4142 0.679573C25.7893 1.1147 26 1.70485 26 2.32021V4.84923C26.8946 5.04128 27.7671 5.35271 28.6 5.77732C28.1009 7.18561 27.9088 8.71494 28.0406 10.2299C28.1725 11.7449 28.6243 13.1988 29.356 14.4629C30.0877 15.727 31.0768 16.7624 32.2356 17.4773C33.3945 18.1922 34.6875 18.5647 36 18.5617V32.4829L40 37.1233ZM24 46.4041C25.0609 46.4041 26.0783 45.9152 26.8284 45.045C27.5786 44.1747 28 42.9944 28 41.7637H20C20 42.9944 20.4214 44.1747 21.1716 45.045C21.9217 45.9152 22.9391 46.4041 24 46.4041ZM36 4.64041C35.2089 4.64041 34.4355 4.91257 33.7777 5.42247C33.1199 5.93236 32.6072 6.65709 32.3045 7.50502C32.0017 8.35294 31.9225 9.28598 32.0769 10.1861C32.2312 11.0863 32.6122 11.9131 33.1716 12.5621C33.731 13.2111 34.4437 13.653 35.2196 13.8321C35.9956 14.0111 36.7998 13.9192 37.5307 13.568C38.2616 13.2168 38.8864 12.622 39.3259 11.8589C39.7654 11.0958 40 10.1986 40 9.28083C40 8.05011 39.5786 6.86981 38.8284 5.99956C38.0783 5.12931 37.0609 4.64041 36 4.64041Z" fill="white"/>
</svg>
