<svg xmlns="http://www.w3.org/2000/svg" width="40.857" height="40.412" viewBox="0 0 40.857 40.412">
  <g id="party" transform="translate(0 -2.788)">
    <g id="Group_63" data-name="Group 63" transform="translate(0.596 3.384)">
      <path id="Path_335" data-name="Path 335" d="M97.751,88.375a17.075,17.075,0,0,1-5.763,12.809c-3.021,2.68-6.661,3.182-11.017,3.182-9.453,0-16.582-6.594-16.582-16.047,0-3.687.294-7.045,2.277-9.839a17.117,17.117,0,0,1,31.084,9.895Z" transform="translate(-59.848 -66.392)" fill="#ffd764"/>
      <path id="Path_336" data-name="Path 336" d="M81.4,146.333a17.117,17.117,0,0,1-21.657-26.514,17.12,17.12,0,0,0,21.292,25.956c.995-.531,1.254-.168.365.557Z" transform="translate(-49.799 -111.077)" fill="#ffaa4d"/>
      <path id="Path_337" data-name="Path 337" d="M27.931,16.43A16.82,16.82,0,0,1,18.882,25.1a.319.319,0,0,1-.431-.191L14,11.551c-.233-.7-.12-1.436.567-1.169l3.011,1.169,1.094,1.412L21.3,13l3.722,1.446,2.743,1.541A.32.32,0,0,1,27.931,16.43Z" transform="translate(-13.373 -10.32)" fill="#fcf7ed"/>
      <path id="Path_338" data-name="Path 338" d="M22.284,16.37a16.778,16.778,0,0,1-3.9,4.873c-1.325,1.245-2.44,2.74-4.093,3.634q-.792.428-1.631.8a.318.318,0,0,1-.431-.192l-1.139-3.4-.457-3.765L9.263,16.617,7.517,11.4A.869.869,0,0,1,8.66,10.322l.247.1,4.139,12.956a.4.4,0,0,0,.58.224,25.856,25.856,0,0,0,8.036-8.228l.454.553A.32.32,0,0,1,22.284,16.37Z" transform="translate(-7.47 -10.261)" fill="#f7e5c1"/>
      <path id="Path_339" data-name="Path 339" d="M112.438,64.056c-1.991,3.845-2.534,4.895-6.3,6.9l-.327-.946,3.8-8.087,2.545.988.556.776C112.438,64.056,112.526,63.887,112.438,64.056Z" transform="translate(-97.966 -57.797)" fill="#95d6a4"/>
      <path id="Path_340" data-name="Path 340" d="M36.065,27.122l-4.3,9.152-.457-3.765L29.933,30.8l2.409-5.126Z" transform="translate(-28.141 -24.446)" fill="#95d6a4"/>
      <g id="Group_62" data-name="Group 62" transform="translate(1.792 4.298)">
        <path id="Path_341" data-name="Path 341" d="M198.287,84.029a3.7,3.7,0,0,1-.217.431A4.128,4.128,0,0,0,198.287,84.029Z" transform="translate(-184.653 -82.44)" fill="#ffaa4d"/>
        <g id="Group_61" data-name="Group 61">
          <path id="Path_342" data-name="Path 342" d="M99.935,75a19.939,19.939,0,0,1-8.755,8.882L92.347,81.4a28.122,28.122,0,0,0,6.345-7.1l1.04.4A.322.322,0,0,1,99.935,75Z" transform="translate(-86.292 -73.487)" fill="#78c2a4"/>
          <path id="Path_343" data-name="Path 343" d="M32.68,69.7l-.918,1.953L29.93,66.178l.968-2.059Z" transform="translate(-29.93 -64.119)" fill="#78c2a4"/>
        </g>
      </g>
      <path id="Path_344" data-name="Path 344" d="M330.213,294.638l9.256-3.453,1.443,2.582-.362,3.547-4.419-1.021-5.567.794Z" transform="translate(-304.459 -268.768)" fill="#95d6a4"/>
      <path id="Path_345" data-name="Path 345" d="M340.547,336.2l-9.986-.227-.351-2.45.217-.081.134.935,9.7.22.59.772Z" transform="translate(-304.456 -307.65)" fill="#78c2a4"/>
      <path id="Path_346" data-name="Path 346" d="M454.536,269.955c-.955.168-1.462,0-1.63-.951l-1.059-6.791c-.146-.83-.335-1.933.416-2.237a1.757,1.757,0,0,1,2.391,1.322l1.247,7.073a1.748,1.748,0,0,1-.042.794C455.677,269.785,455.218,269.834,454.536,269.955Z" transform="translate(-416.264 -239.93)" fill="#95d6a4"/>
      <path id="Path_347" data-name="Path 347" d="M449.583,270.666a1.756,1.756,0,0,1-3.415-.184l-1.247-7.072a1.755,1.755,0,0,1,1.068-1.93l1.376,7.806a1.756,1.756,0,0,0,2.034,1.424A1.708,1.708,0,0,0,449.583,270.666Z" transform="translate(-409.989 -241.433)" fill="#78c2a4"/>
      <path id="Path_348" data-name="Path 348" d="M18.846,302.76l1.791,3.275a.159.159,0,0,0,.063.063l3.275,1.791a.16.16,0,0,1,0,.28L20.7,309.961a.16.16,0,0,0-.063.063l-.05.092-1.72,2.609a.16.16,0,0,1-.28,0L17,309.784a.159.159,0,0,0-.063-.063l-3.18-1.551a.16.16,0,0,1,0-.28l2.91-1.768.043-.024a.16.16,0,0,0,.063-.063l1.791-3.275A.16.16,0,0,1,18.846,302.76Z" transform="translate(-13.18 -279.343)" fill="#95d6a4"/>
      <path id="Path_349" data-name="Path 349" d="M16.871,349.844l-1.741,3.183a.159.159,0,0,1-.279,0l-1.791-3.275a.164.164,0,0,0-.064-.064L9.721,347.9a.159.159,0,0,1,0-.279l3.232-1.768A7.276,7.276,0,0,0,16.871,349.844Z" transform="translate(-9.465 -319.07)" fill="#78c2a4"/>
      <path id="Path_350" data-name="Path 350" d="M364.874,403.01l1.262,2.308a.159.159,0,0,0,.063.063l2.308,1.262a.16.16,0,0,1,0,.28l-2.308,1.262a.159.159,0,0,0-.063.063l-.058.105-1.213,1.84a.16.16,0,0,1-.28,0l-1.146-2.1a.159.159,0,0,0-.063-.063l-1.831-1.11a.16.16,0,0,1,0-.28l1.724-1.262a.16.16,0,0,0,.063-.063l1.262-2.308A.16.16,0,0,1,364.874,403.01Z" transform="translate(-333.214 -371.593)" fill="#86bff2"/>
      <path id="Path_351" data-name="Path 351" d="M359.339,436.368l-1.2,2.2a.159.159,0,0,1-.279,0l-1.262-2.308a.165.165,0,0,0-.064-.064l-2.308-1.262a.159.159,0,0,1,0-.279l2.308-1.262a.155.155,0,0,0,.034-.026A6.155,6.155,0,0,0,359.339,436.368Z" transform="translate(-326.475 -399.606)" fill="#62a4fb"/>
      <path id="Path_352" data-name="Path 352" d="M308.21,46.01l1.206,2.2a.16.16,0,0,0,.063.063l2.2,1.206a.16.16,0,0,1,0,.28l-2.2,1.206a.159.159,0,0,0-.063.063l-.045.082-1.161,1.827a.16.16,0,0,1-.28,0l-1.058-2.065a.159.159,0,0,0-.063-.063l-1.986-1.1a.16.16,0,0,1,0-.28l1.784-1.126.053-.029a.159.159,0,0,0,.063-.063l1.206-2.2A.159.159,0,0,1,308.21,46.01Z" transform="translate(-281.019 -43.081)" fill="#e27c48"/>
      <path id="Path_353" data-name="Path 353" d="M305.136,78.567l-1.162,2.123a.159.159,0,0,1-.279,0l-1.207-2.2a.16.16,0,0,0-.063-.063l-2.2-1.207a.159.159,0,0,1,0-.279l2.151-1.177a5.361,5.361,0,0,0,2.764,2.808Z" transform="translate(-276.784 -70.532)" fill="#d1653f"/>
    </g>
    <g id="Group_64" data-name="Group 64" transform="translate(0 2.788)">
      <path id="Path_354" data-name="Path 354" d="M197.477,219.284a3.661,3.661,0,0,1,5.234,0,.635.635,0,0,0,.845-.04.6.6,0,0,0-.04-.845,4.869,4.869,0,0,0-6.845,0,.6.6,0,0,0,.805.886Z" transform="translate(-180.798 -199.899)"/>
      <path id="Path_355" data-name="Path 355" d="M345.459,219.284a3.661,3.661,0,0,1,5.235,0,.636.636,0,0,0,.845-.04.6.6,0,0,0-.04-.845,4.869,4.869,0,0,0-6.845,0,.6.6,0,0,0,.805.886Z" transform="translate(-316.971 -199.899)"/>
      <path id="Path_356" data-name="Path 356" d="M40.82,31.719l-.542-3.072a.6.6,0,1,0-1.179.208l.542,3.072a1.157,1.157,0,1,1-2.279.4l-1.247-7.072a1.2,1.2,0,0,1,.938-1.34,1.158,1.158,0,0,1,1.34.938l.22,1.25a.6.6,0,1,0,1.179-.208l-.22-1.25a2.34,2.34,0,0,0-.579-1.176,17.78,17.78,0,0,0-7.662-12.759l.471-.258a.6.6,0,0,0,0-1.05L29.455,8.12,28.171,5.772a.6.6,0,0,0-1.05,0L25.837,8.12l-.125.068a17.819,17.819,0,0,0-9.512.238L2,2.889A1.459,1.459,0,0,0,.455,3.2,1.45,1.45,0,0,0,.078,4.721L4.886,18.906a17.658,17.658,0,0,0-.667,2.07.6.6,0,0,0,.432.728.626.626,0,0,0,.728-.432,16.444,16.444,0,0,1,.612-1.9,21.894,21.894,0,0,0,7.65-5.488.6.6,0,0,0-.9-.792A19.61,19.61,0,0,1,8.635,16.6l3.906-8.312L15.32,9.367c-.287.535-.6,1.054-.921,1.549a.6.6,0,1,0,1,.657,21.776,21.776,0,0,0,1.165-2.007,16.631,16.631,0,0,1,7.528-.493l-.6.33a.6.6,0,0,0,0,1.05l2.348,1.284,1.284,2.348a.6.6,0,0,0,1.05,0l1.284-2.348.684-.374a16.591,16.591,0,0,1,7.55,11.379,2.341,2.341,0,0,0-.844,0,2.385,2.385,0,0,0-1.917,2.676L26.71,28.48a6.257,6.257,0,0,0-.63-1.252.6.6,0,1,0-1,.656,5.307,5.307,0,0,1,.829,2.45,5.234,5.234,0,0,1-.516,2.806.6.6,0,1,0,1.069.538,6.161,6.161,0,0,0,.494-1.371l3.909.089h.014a.6.6,0,0,0,.013-1.2l-3.773-.086a6.8,6.8,0,0,0-.018-.882q-.026-.3-.077-.591l8.116-3.028.829,4.7-2.285-.052a.6.6,0,1,0-.027,1.2l2.524.057c.01.059,0,.01.027.138A16.5,16.5,0,0,1,33.759,36.3l-1.12-2.048a.6.6,0,0,0-1.05,0l-1.341,2.451L27.8,38.047a.6.6,0,0,0,0,1.05l1.453.795A16.522,16.522,0,0,1,8.115,35.2l.4-.738,3.418-1.869a.6.6,0,0,0,0-1.05L8.518,29.675,6.649,26.257a.6.6,0,0,0-1.05,0l-.609,1.114a16.7,16.7,0,0,1-.122-2c0-.463.019-.931.058-1.39a.6.6,0,1,0-1.193-.1c-.041.492-.062.993-.062,1.489a17.828,17.828,0,0,0,.39,3.7l-.331.6L.311,31.545a.6.6,0,0,0,0,1.05l3.418,1.869L5.6,37.882a.6.6,0,0,0,1.05,0l.838-1.532a17.716,17.716,0,0,0,22.872,4.29l1.23,2.249a.6.6,0,0,0,1.05,0l1.341-2.451,2.451-1.34a.6.6,0,0,0,0-1.05l-1.763-.964a17.7,17.7,0,0,0,2.256-3.21,2.354,2.354,0,0,0,3.9-2.154ZM3.047,9.752,5.1,5.382,7.7,6.4,4.338,13.559ZM1.281,4.062A.268.268,0,0,1,1.57,4l2.413.941L2.493,8.117,1.212,4.339a.255.255,0,0,1,.069-.276ZM6.819,17.647q-.461.239-.939.461l-.987-2.913L8.821,6.833l2.6,1.015Zm21.908-6.875a.6.6,0,0,0-.238.238l-.843,1.541L26.8,11.01a.6.6,0,0,0-.238-.238l-1.541-.843,1.541-.843a.6.6,0,0,0,.238-.238l.843-1.541.843,1.541a.6.6,0,0,0,.238.238l1.541.843ZM6.124,36.348,4.7,33.736a.6.6,0,0,0-.238-.238L1.846,32.07l2.612-1.428A.6.6,0,0,0,4.7,30.4l1.428-2.612L7.552,30.4a.6.6,0,0,0,.238.238L10.4,32.07,7.79,33.5a.6.6,0,0,0-.238.238Zm27.128,3.124a.6.6,0,0,0-.238.238l-.9,1.645-.9-1.645a.6.6,0,0,0-.238-.238l-.215-.117,0,0-1.426-.78,1.645-.9a.6.6,0,0,0,.238-.238l.9-1.645.9,1.645a.6.6,0,0,0,.238.238l1.645.9Z" transform="translate(0 -2.788)"/>
    </g>
  </g>
</svg>
