<svg width="24" height="24" viewBox="0 0 24 24" fill="none" xmlns="http://www.w3.org/2000/svg">
<path d="M5 22H19C19.5304 22 20.0391 21.7893 20.4142 21.4142C20.7893 21.0391 21 20.5304 21 20V11C21 10.4696 20.7893 9.96086 20.4142 9.58579C20.0391 9.21071 19.5304 9 19 9H17V7C17 5.67392 16.4732 4.40215 15.5355 3.46447C14.5979 2.52678 13.3261 2 12 2C10.6739 2 9.40215 2.52678 8.46447 3.46447C7.52678 4.40215 7 5.67392 7 7V9H5C4.46957 9 3.96086 9.21071 3.58579 9.58579C3.21071 9.96086 3 10.4696 3 11V20C3 20.5304 3.21071 21.0391 3.58579 21.4142C3.96086 21.7893 4.46957 22 5 22ZM12 17.5C11.6044 17.5 11.2178 17.3827 10.8889 17.1629C10.56 16.9432 10.3036 16.6308 10.1522 16.2654C10.0009 15.8999 9.96126 15.4978 10.0384 15.1098C10.1156 14.7219 10.3061 14.3655 10.5858 14.0858C10.8655 13.8061 11.2219 13.6156 11.6098 13.5384C11.9978 13.4613 12.3999 13.5009 12.7654 13.6522C13.1308 13.8036 13.4432 14.06 13.6629 14.3889C13.8827 14.7178 14 15.1044 14 15.5C14 16.0304 13.7893 16.5391 13.4142 16.9142C13.0391 17.2893 12.5304 17.5 12 17.5ZM9 9V7C9 6.20435 9.31607 5.44129 9.87868 4.87868C10.4413 4.31607 11.2044 4 12 4C12.7956 4 13.5587 4.31607 14.1213 4.87868C14.6839 5.44129 15 6.20435 15 7V9H9Z" fill="#2772AF"/>
</svg>
