<svg xmlns="http://www.w3.org/2000/svg" width="23.98" height="23.962" viewBox="0 0 23.98 23.962">
  <path id="badge-percent" d="M24,12a5.27,5.27,0,0,0-1.925-4.124,5.489,5.489,0,0,0-1.59-4.362,5.263,5.263,0,0,0-4.277-1.555,5.476,5.476,0,0,0-8.332-.035A5.475,5.475,0,0,0,1.96,7.792a5.477,5.477,0,0,0-.035,8.333,5.489,5.489,0,0,0,1.59,4.362,5.266,5.266,0,0,0,4.277,1.555,5.476,5.476,0,0,0,8.332.035,5.49,5.49,0,0,0,4.361-1.59A5.276,5.276,0,0,0,22.04,16.21,5.487,5.487,0,0,0,24,12ZM8,9a1,1,0,0,1,2,0A1,1,0,0,1,8,9Zm2.832,6.555a1,1,0,0,1-1.664-1.11l4-6a1,1,0,1,1,1.664,1.11ZM15,16a1,1,0,0,1,0-2A1,1,0,0,1,15,16Z" transform="translate(-0.02 -0.02)" fill="#1ba76b"/>
</svg>
