<svg xmlns="http://www.w3.org/2000/svg" xmlns:xlink="http://www.w3.org/1999/xlink" width="40.598" height="45.178" viewBox="0 0 40.598 45.178">
  <defs>
    <linearGradient id="linear-gradient" x1="0.5" y1="0.137" x2="0.5" y2="0.825" gradientUnits="objectBoundingBox">
      <stop offset="0" stop-color="#fef0ae"/>
      <stop offset="1" stop-color="#fac600"/>
    </linearGradient>
    <linearGradient id="linear-gradient-2" x1="0.464" y1="0.548" x2="1.027" y2="0.64" gradientUnits="objectBoundingBox">
      <stop offset="0" stop-color="#fe9738" stop-opacity="0"/>
      <stop offset="1" stop-color="#fe9738"/>
    </linearGradient>
    <linearGradient id="linear-gradient-3" x1="0.5" y1="0.282" x2="0.5" y2="0.978" xlink:href="#linear-gradient-2"/>
    <linearGradient id="linear-gradient-4" x1="0.248" y1="0.248" x2="0.777" y2="0.777" xlink:href="#linear-gradient"/>
    <linearGradient id="linear-gradient-5" x1="0.772" y1="0.772" x2="0.011" y2="0.01" xlink:href="#linear-gradient"/>
    <linearGradient id="linear-gradient-6" x1="0.5" y1="0.216" x2="0.5" y2="1.029" xlink:href="#linear-gradient-2"/>
    <linearGradient id="linear-gradient-7" x1="0.441" y1="0.446" x2="0.898" y2="0.84" xlink:href="#linear-gradient-2"/>
    <linearGradient id="linear-gradient-8" x1="0.919" y1="0.919" x2="0.202" y2="0.202" xlink:href="#linear-gradient-2"/>
    <linearGradient id="linear-gradient-11" x1="0.441" y1="0.446" x2="0.898" y2="0.84" xlink:href="#linear-gradient-2"/>
    <linearGradient id="linear-gradient-12" x1="0.322" y1="0.57" x2="0.866" y2="0.57" gradientUnits="objectBoundingBox">
      <stop offset="0" stop-color="#ffa1ae"/>
      <stop offset="1" stop-color="#ff4565"/>
    </linearGradient>
    <linearGradient id="linear-gradient-13" x1="0.68" y1="0.611" x2="0.68" y2="1.039" gradientUnits="objectBoundingBox">
      <stop offset="0" stop-color="#fe0364" stop-opacity="0"/>
      <stop offset="0.234" stop-color="#f90362" stop-opacity="0.235"/>
      <stop offset="0.517" stop-color="#ea035b" stop-opacity="0.518"/>
      <stop offset="0.824" stop-color="#d20250" stop-opacity="0.824"/>
      <stop offset="1" stop-color="#c00148"/>
    </linearGradient>
    <linearGradient id="linear-gradient-14" x1="0.575" y1="0.57" x2="1.043" y2="0.57" xlink:href="#linear-gradient-13"/>
    <linearGradient id="linear-gradient-15" x1="0.014" y1="-0.007" x2="0.614" y2="0.692" xlink:href="#linear-gradient-12"/>
    <linearGradient id="linear-gradient-16" x1="1.383" y1="0.786" x2="1.724" y2="0.741" xlink:href="#linear-gradient-13"/>
    <linearGradient id="linear-gradient-17" x1="0.321" y1="0.125" x2="0.676" y2="0.869" xlink:href="#linear-gradient-12"/>
    <linearGradient id="linear-gradient-18" x1="0.5" y1="0.311" x2="0.5" y2="0.955" xlink:href="#linear-gradient-13"/>
    <linearGradient id="linear-gradient-19" x1="0.162" y1="0.47" x2="0.843" y2="0.757" xlink:href="#linear-gradient-13"/>
    <linearGradient id="linear-gradient-20" x1="0.191" y1="0.467" x2="-0.234" y2="0.415" xlink:href="#linear-gradient-13"/>
    <linearGradient id="linear-gradient-21" x1="0.795" y1="0.779" x2="0.303" y2="0.423" xlink:href="#linear-gradient-13"/>
    <linearGradient id="linear-gradient-22" x1="0.334" y1="0.113" x2="0.663" y2="0.881" xlink:href="#linear-gradient-12"/>
    <linearGradient id="linear-gradient-24" x1="0.179" y1="0.47" x2="0.832" y2="0.776" xlink:href="#linear-gradient-13"/>
    <linearGradient id="linear-gradient-25" x1="0.147" y1="0.329" x2="0.741" y2="0.617" gradientUnits="objectBoundingBox">
      <stop offset="0" stop-color="#5a5a5a"/>
      <stop offset="1" stop-color="#444"/>
    </linearGradient>
    <linearGradient id="linear-gradient-26" x1="0.653" y1="0.5" x2="-0.02" y2="0.5" gradientUnits="objectBoundingBox">
      <stop offset="0" stop-color="#433f43" stop-opacity="0"/>
      <stop offset="1" stop-color="#1a1a1a"/>
    </linearGradient>
    <linearGradient id="linear-gradient-27" x1="0.646" y1="0.614" x2="0.111" y2="0.196" xlink:href="#linear-gradient-26"/>
    <linearGradient id="linear-gradient-28" x1="0.147" y1="0.329" x2="0.741" y2="0.617" xlink:href="#linear-gradient-25"/>
    <linearGradient id="linear-gradient-31" x1="0.307" y1="0.307" x2="0.761" y2="0.761" xlink:href="#linear-gradient-25"/>
    <linearGradient id="linear-gradient-32" x1="0.5" y1="0.264" x2="0.5" y2="1.141" xlink:href="#linear-gradient-26"/>
    <linearGradient id="linear-gradient-33" x1="-78.573" y1="-3.453" x2="-78.573" y2="-2.803" xlink:href="#linear-gradient-26"/>
    <linearGradient id="linear-gradient-36" x1="-77.844" y1="-5.212" x2="-77.844" y2="-4.562" xlink:href="#linear-gradient-26"/>
    <linearGradient id="linear-gradient-37" x1="-0.113" y1="0.009" x2="0.486" y2="0.009" xlink:href="#linear-gradient-12"/>
    <linearGradient id="linear-gradient-38" x1="0.225" y1="-0.312" x2="0.225" y2="0.195" xlink:href="#linear-gradient-13"/>
    <linearGradient id="linear-gradient-39" x1="0.335" y1="0.009" x2="0.895" y2="0.009" xlink:href="#linear-gradient-13"/>
    <linearGradient id="linear-gradient-40" x1="-3.242" y1="0.723" x2="-2.698" y2="0.723" xlink:href="#linear-gradient-12"/>
    <linearGradient id="linear-gradient-41" x1="-3.161" y1="0.816" x2="-3.161" y2="1.243" xlink:href="#linear-gradient-13"/>
    <linearGradient id="linear-gradient-42" x1="-3.567" y1="0.723" x2="-3.1" y2="0.723" xlink:href="#linear-gradient-13"/>
    <linearGradient id="linear-gradient-43" x1="0.219" y1="-0.007" x2="0.819" y2="0.692" xlink:href="#linear-gradient-12"/>
    <linearGradient id="linear-gradient-44" x1="0.996" y1="0.397" x2="0.647" y2="0.103" xlink:href="#linear-gradient-13"/>
    <linearGradient id="linear-gradient-45" x1="0.907" y1="0.339" x2="1.249" y2="0.295" xlink:href="#linear-gradient-13"/>
    <linearGradient id="linear-gradient-46" x1="0.428" y1="-0.388" x2="1.084" y2="0.763" xlink:href="#linear-gradient-13"/>
  </defs>
  <g id="_3d-piggy-bank" data-name="3d-piggy-bank" transform="translate(-25.951)">
    <g id="Group_90" data-name="Group 90" transform="translate(40.86 0)">
      <path id="Path_443" data-name="Path 443" d="M286.513,0H283.95V15.713h2.563a7.857,7.857,0,1,0,0-15.713Z" transform="translate(-276.093 0)" fill="url(#linear-gradient)"/>
      <path id="Path_444" data-name="Path 444" d="M286.513,0H283.95V15.713h2.563a7.857,7.857,0,1,0,0-15.713Z" transform="translate(-276.093 0)" fill="url(#linear-gradient-2)"/>
      <path id="Path_445" data-name="Path 445" d="M283.949,65.23h2.563a7.861,7.861,0,0,0,7.237-10.921h-9.8Z" transform="translate(-276.092 -49.517)" fill="url(#linear-gradient-3)"/>
      <g id="Group_89" data-name="Group 89" transform="translate(0 0)">
        <g id="Group_87" data-name="Group 87">
          <g id="Group_86" data-name="Group 86">
            <circle id="Ellipse_62" data-name="Ellipse 62" cx="7.857" cy="7.857" r="7.857" fill="url(#linear-gradient-4)"/>
            <circle id="Ellipse_63" data-name="Ellipse 63" cx="6.202" cy="6.202" r="6.202" transform="translate(1.654 1.654)" fill="url(#linear-gradient-5)"/>
            <path id="Path_446" data-name="Path 446" d="M194.91,61.389a7.857,7.857,0,1,0,15.245-2.676H195.378A7.841,7.841,0,0,0,194.91,61.389Z" transform="translate(-194.91 -53.532)" fill="url(#linear-gradient-6)"/>
            <path id="Path_447" data-name="Path 447" d="M204.857,21.058a7.857,7.857,0,1,0,8.888-12.672L203.3,18.835A7.841,7.841,0,0,0,204.857,21.058Z" transform="translate(-202.556 -7.646)" fill="url(#linear-gradient-7)"/>
          </g>
        </g>
        <path id="Path_448" data-name="Path 448" d="M247,58.609l4.5,4.5a7.85,7.85,0,0,0,6.521-6.521l-4.5-4.5Z" transform="translate(-242.401 -47.492)" fill="url(#linear-gradient-8)"/>
        <g id="Group_88" data-name="Group 88" transform="translate(3.246 3.246)">
          <circle id="Ellipse_64" data-name="Ellipse 64" cx="4.611" cy="4.611" r="4.611" fill="url(#linear-gradient-4)"/>
          <path id="Path_449" data-name="Path 449" d="M231.691,72.812a4.611,4.611,0,1,0,8.948-1.571h-8.673A4.6,4.6,0,0,0,231.691,72.812Z" transform="translate(-231.691 -68.2)" fill="url(#linear-gradient-6)"/>
          <path id="Path_450" data-name="Path 450" d="M237.53,49.14a4.611,4.611,0,1,0,5.216-7.437l-6.133,6.133A4.6,4.6,0,0,0,237.53,49.14Z" transform="translate(-236.18 -41.269)" fill="url(#linear-gradient-11)"/>
        </g>
      </g>
    </g>
    <g id="Group_107" data-name="Group 107" transform="translate(25.951 11.09)">
      <g id="Group_91" data-name="Group 91" transform="translate(2.036 22.955)">
        <path id="Path_451" data-name="Path 451" d="M54.374,395.942l-4.6-2.147a1.293,1.293,0,0,1-.625-1.718l1.879-4.029a3.833,3.833,0,0,1,6.948,3.24l-1.879,4.029A1.293,1.293,0,0,1,54.374,395.942Z" transform="translate(-49.023 -385.834)" fill="url(#linear-gradient-12)"/>
        <path id="Path_452" data-name="Path 452" d="M50.85,415.143,49.145,418.8a1.293,1.293,0,0,0,.625,1.718l4.6,2.147a1.293,1.293,0,0,0,1.718-.625l1.705-3.657Z" transform="translate(-49.024 -412.557)" fill="url(#linear-gradient-13)"/>
        <path id="Path_453" data-name="Path 453" d="M73.816,386.231a3.821,3.821,0,0,0-1.46-.356l-3.921,8.408,3.638,1.7a1.293,1.293,0,0,0,1.718-.625l1.879-4.029A3.833,3.833,0,0,0,73.816,386.231Z" transform="translate(-66.722 -385.871)" fill="url(#linear-gradient-14)"/>
      </g>
      <g id="Group_93" data-name="Group 93" transform="translate(5.765)">
        <g id="Group_92" data-name="Group 92" transform="translate(0)">
          <path id="Path_454" data-name="Path 454" d="M91.683,133.014a.286.286,0,0,0,.5.17,14.5,14.5,0,0,1,6.613-3.982q.189-.055.378-.1a.287.287,0,0,0,.081-.519l-3.879-2.473a2.653,2.653,0,0,0-4.07,2.464Z" transform="translate(-91.291 -125.684)" fill="url(#linear-gradient-15)"/>
        </g>
        <path id="Path_455" data-name="Path 455" d="M91.3,128.571a2.657,2.657,0,0,1,3.358-2.786l1.318,4.54a13.791,13.791,0,0,0-3.8,2.861.286.286,0,0,1-.5-.17Z" transform="translate(-91.29 -125.685)" fill="url(#linear-gradient-16)"/>
      </g>
      <g id="Group_94" data-name="Group 94" transform="translate(3.322 0.682)">
        <ellipse id="Ellipse_65" data-name="Ellipse 65" cx="17.487" cy="15.184" rx="17.487" ry="15.184" transform="translate(0 0)" fill="url(#linear-gradient-17)"/>
        <path id="Path_456" data-name="Path 456" d="M63.594,255.076c0,8.386,7.829,15.184,17.487,15.184s17.487-6.8,17.487-15.184a13.366,13.366,0,0,0-.923-4.88H64.517a13.368,13.368,0,0,0-.923,4.88Z" transform="translate(-63.594 -239.892)" fill="url(#linear-gradient-18)"/>
        <path id="Path_457" data-name="Path 457" d="M221.393,133.418a20.092,20.092,0,0,0-3.907.381v29.607a20.092,20.092,0,0,0,3.907.381c9.658,0,17.487-6.8,17.487-15.184S231.051,133.418,221.393,133.418Z" transform="translate(-203.907 -133.418)" fill="url(#linear-gradient-19)"/>
        <path id="Path_458" data-name="Path 458" d="M291.984,135.406v6.642l13.707,13.707a13.394,13.394,0,0,0,1.113-5.34C306.8,142.816,300.376,136.521,291.984,135.406Z" transform="translate(-271.831 -135.231)" fill="url(#linear-gradient-20)"/>
      </g>
      <path id="Path_459" data-name="Path 459" d="M119,305.631a19.192,19.192,0,0,0,10.529-3.061l-13.581-13.581-10.764,10.764A18.5,18.5,0,0,0,119,305.631Z" transform="translate(-98.195 -274.579)" fill="url(#linear-gradient-21)"/>
      <g id="Group_99" data-name="Group 99" transform="translate(0 11.22)">
        <g id="Group_95" data-name="Group 95">
          <ellipse id="Ellipse_66" data-name="Ellipse 66" cx="9.812" cy="7.657" rx="9.812" ry="7.657" fill="url(#linear-gradient-22)"/>
          <path id="Path_460" data-name="Path 460" d="M25.951,314.186c0,4.229,4.393,7.657,9.812,7.657s9.812-3.428,9.812-7.657a6.145,6.145,0,0,0-.518-2.461H26.469A6.145,6.145,0,0,0,25.951,314.186Z" transform="translate(-25.951 -306.529)" fill="url(#linear-gradient-18)"/>
          <path id="Path_461" data-name="Path 461" d="M114.491,252.835a12.506,12.506,0,0,0-2.192.192v14.93a12.507,12.507,0,0,0,2.192.192c5.419,0,9.812-3.428,9.812-7.657S119.91,252.835,114.491,252.835Z" transform="translate(-104.68 -252.835)" fill="url(#linear-gradient-24)"/>
        </g>
        <g id="Group_98" data-name="Group 98" transform="translate(1.314 3.579)">
          <g id="Group_96" data-name="Group 96">
            <ellipse id="Ellipse_67" data-name="Ellipse 67" cx="2.822" cy="4.079" rx="2.822" ry="4.079" fill="url(#linear-gradient-25)"/>
            <ellipse id="Ellipse_68" data-name="Ellipse 68" cx="2.822" cy="4.079" rx="2.822" ry="4.079" fill="url(#linear-gradient-26)"/>
            <ellipse id="Ellipse_69" data-name="Ellipse 69" cx="2.822" cy="4.079" rx="2.822" ry="4.079" fill="url(#linear-gradient-27)"/>
          </g>
          <g id="Group_97" data-name="Group 97" transform="translate(7.504)">
            <ellipse id="Ellipse_70" data-name="Ellipse 70" cx="2.822" cy="4.079" rx="2.822" ry="4.079" fill="url(#linear-gradient-28)"/>
            <ellipse id="Ellipse_71" data-name="Ellipse 71" cx="2.822" cy="4.079" rx="2.822" ry="4.079" fill="url(#linear-gradient-26)"/>
            <ellipse id="Ellipse_72" data-name="Ellipse 72" cx="2.822" cy="4.079" rx="2.822" ry="4.079" fill="url(#linear-gradient-27)"/>
          </g>
        </g>
      </g>
      <g id="Group_102" data-name="Group 102" transform="translate(3.814 7.356)">
        <g id="Group_100" data-name="Group 100" transform="translate(9.291)">
          <circle id="Ellipse_73" data-name="Ellipse 73" cx="1.96" cy="1.96" r="1.96" fill="url(#linear-gradient-31)"/>
          <path id="Path_462" data-name="Path 462" d="M174.468,224.362a1.96,1.96,0,1,0,3.8-.668h-3.686A1.955,1.955,0,0,0,174.468,224.362Z" transform="translate(-174.468 -222.402)" fill="url(#linear-gradient-32)"/>
          <path id="Path_463" data-name="Path 463" d="M176.949,214.3a1.96,1.96,0,1,0,2.217-3.161l-2.606,2.606A1.959,1.959,0,0,0,176.949,214.3Z" transform="translate(-176.375 -210.957)" fill="url(#linear-gradient-33)"/>
        </g>
        <g id="Group_101" data-name="Group 101">
          <circle id="Ellipse_74" data-name="Ellipse 74" cx="1.96" cy="1.96" r="1.96" fill="url(#linear-gradient-31)"/>
          <path id="Path_464" data-name="Path 464" d="M69.173,224.362a1.96,1.96,0,1,0,3.8-.668H69.29A1.957,1.957,0,0,0,69.173,224.362Z" transform="translate(-69.173 -222.402)" fill="url(#linear-gradient-32)"/>
          <path id="Path_465" data-name="Path 465" d="M71.653,214.3a1.96,1.96,0,1,0,2.217-3.161l-2.606,2.606A1.958,1.958,0,0,0,71.653,214.3Z" transform="translate(-71.079 -210.957)" fill="url(#linear-gradient-36)"/>
        </g>
      </g>
      <g id="Group_103" data-name="Group 103" transform="translate(16.364 23.155)">
        <path id="Path_466" data-name="Path 466" d="M214.03,399.011l5.478-1.029a1.418,1.418,0,0,0,1.132-1.656l-.9-4.793a4.205,4.205,0,0,0-8.266,1.552l.9,4.793A1.418,1.418,0,0,0,214.03,399.011Z" transform="translate(-211.401 -388.104)" fill="url(#linear-gradient-37)"/>
        <path id="Path_467" data-name="Path 467" d="M221.438,431.994l.817,4.351A1.418,1.418,0,0,1,221.123,438l-5.478,1.029a1.418,1.418,0,0,1-1.656-1.132l-.817-4.351Z" transform="translate(-213.016 -428.121)" fill="url(#linear-gradient-38)"/>
        <path id="Path_468" data-name="Path 468" d="M214.831,388.179a4.193,4.193,0,0,1,1.649.019l1.878,10-4.329.813a1.418,1.418,0,0,1-1.656-1.132l-.9-4.793A4.205,4.205,0,0,1,214.831,388.179Z" transform="translate(-211.401 -388.106)" fill="url(#linear-gradient-39)"/>
      </g>
      <g id="Group_104" data-name="Group 104" transform="translate(31.291 20.408)">
        <path id="Path_469" data-name="Path 469" d="M384.521,367.076l4.6-2.147a1.293,1.293,0,0,0,.625-1.718l-1.879-4.029a3.833,3.833,0,0,0-6.948,3.24l1.879,4.029A1.293,1.293,0,0,0,384.521,367.076Z" transform="translate(-380.564 -356.968)" fill="url(#linear-gradient-40)"/>
        <path id="Path_470" data-name="Path 470" d="M393.56,386.278l1.705,3.657a1.293,1.293,0,0,1-.625,1.718l-4.6,2.147a1.293,1.293,0,0,1-1.718-.625l-1.705-3.657Z" transform="translate(-386.078 -383.692)" fill="url(#linear-gradient-41)"/>
        <path id="Path_471" data-name="Path 471" d="M382.778,357.366a3.821,3.821,0,0,1,1.46-.356l3.921,8.408-3.638,1.7a1.293,1.293,0,0,1-1.718-.625l-1.879-4.029A3.833,3.833,0,0,1,382.778,357.366Z" transform="translate(-380.564 -357.006)" fill="url(#linear-gradient-42)"/>
      </g>
      <g id="Group_106" data-name="Group 106" transform="translate(16.269)">
        <g id="Group_105" data-name="Group 105">
          <path id="Path_472" data-name="Path 472" d="M218.031,133.014a.286.286,0,0,1-.5.17,14.5,14.5,0,0,0-6.613-3.982q-.189-.055-.378-.1a.287.287,0,0,1-.081-.519l3.879-2.473a2.653,2.653,0,0,1,4.07,2.464Z" transform="translate(-210.331 -125.684)" fill="url(#linear-gradient-43)"/>
          <path id="Path_473" data-name="Path 473" d="M229.673,153.469a14.78,14.78,0,0,0-4.567-2.506l2.184-1.392a1.684,1.684,0,0,1,2.583,1.563Z" transform="translate(-223.802 -147.218)" fill="url(#linear-gradient-44)"/>
        </g>
        <path id="Path_474" data-name="Path 474" d="M253.6,128.571a2.657,2.657,0,0,0-3.358-2.786l-1.318,4.54a13.791,13.791,0,0,1,3.8,2.861.286.286,0,0,0,.5-.17Z" transform="translate(-245.516 -125.685)" fill="url(#linear-gradient-45)"/>
        <path id="Path_475" data-name="Path 475" d="M229.673,153.469a14.78,14.78,0,0,0-4.567-2.506l2.184-1.392a1.684,1.684,0,0,1,2.583,1.563Z" transform="translate(-223.802 -147.218)" fill="url(#linear-gradient-46)"/>
      </g>
    </g>
  </g>
</svg>
