<svg width="15" height="15" viewBox="0 0 15 15" fill="none" xmlns="http://www.w3.org/2000/svg">
<path d="M14.5389 11.8129C14.7141 11.9887 14.8455 12.2034 14.9223 12.4394C14.9992 12.6755 15.0194 12.9263 14.9812 13.1717C14.9431 13.417 14.8478 13.6499 14.7029 13.8515C14.558 14.0531 14.3677 14.2177 14.1474 14.3321C12.8882 15.0051 11.4211 15.1771 10.0405 14.8136C6.37604 13.8911 1.10891 8.62396 0.186431 4.95954C-0.177068 3.57886 -0.00507087 2.11179 0.66792 0.852629C0.78229 0.632286 0.946943 0.441974 1.14855 0.297103C1.35015 0.152231 1.58304 0.056874 1.82835 0.0187516C2.07366 -0.0193708 2.3245 0.000813384 2.56057 0.07767C2.79663 0.154527 3.01127 0.285895 3.18711 0.461138L4.75083 2.0241C4.97633 2.24734 5.12892 2.53365 5.1885 2.84532C5.24807 3.15699 5.21184 3.47939 5.08457 3.77006C4.9453 4.09619 4.74755 4.39408 4.50108 4.64904C2.71312 6.437 8.56374 12.2876 10.351 10.4989C10.606 10.2516 10.9041 10.053 11.2307 9.91318C11.5213 9.7857 11.8438 9.74935 12.1555 9.80894C12.4672 9.86852 12.7535 10.0212 12.9766 10.2469L14.5389 11.8129Z" fill="#174A73"/>
</svg>
