<svg id="remove" xmlns="http://www.w3.org/2000/svg" width="29" height="29" viewBox="0 0 29 29">
  <path id="Path_361" data-name="Path 361" d="M14.5,0A14.5,14.5,0,1,0,29,14.5,14.516,14.516,0,0,0,14.5,0Zm0,0" fill="#f44336"/>
  <path id="Path_362" data-name="Path 362" d="M166.505,164.8a1.208,1.208,0,1,1-1.709,1.709l-3.631-3.631-3.631,3.631a1.208,1.208,0,0,1-1.709-1.709l3.631-3.631-3.631-3.631a1.208,1.208,0,0,1,1.709-1.709l3.631,3.631,3.631-3.631a1.208,1.208,0,0,1,1.709,1.709l-3.631,3.631Zm0,0" transform="translate(-146.666 -146.666)" fill="#fafafa"/>
</svg>
