<svg width="12" height="12" viewBox="0 0 12 12" fill="none" xmlns="http://www.w3.org/2000/svg">
<g clip-path="url(#clip0_74_132)">
<path d="M11.9207 5.80774L9.19348 3.0805C9.09551 2.96611 8.92334 2.95277 8.80895 3.05076C8.69455 3.14873 8.68122 3.3209 8.77921 3.43529C8.78835 3.44596 8.79828 3.45592 8.80895 3.46503L11.0698 5.72864H0.272714C0.122107 5.72864 0 5.85074 0 6.00137C0 6.152 0.122107 6.27409 0.272714 6.27409H11.0698L8.80895 8.53495C8.69455 8.63291 8.68122 8.80508 8.77921 8.91948C8.8772 9.03387 9.04934 9.04721 9.16374 8.94922C9.1744 8.94008 9.18436 8.93014 9.19348 8.91948L11.9207 6.19224C12.0264 6.08591 12.0264 5.91412 11.9207 5.80774Z" fill="black"/>
</g>
<defs>
<clipPath id="clip0_74_132">
<rect width="12" height="12" fill="white"/>
</clipPath>
</defs>
</svg>
