<svg id="Glyph" enable-background="new 0 0 32 32" height="512" viewBox="0 0 32 32" width="512" xmlns="http://www.w3.org/2000/svg"><path fill="#2772af" id="XMLID_208_" d="m27 6.5c0-2.481-2.019-4.5-4.5-4.5s-4.5 2.019-4.5 4.5c0 1.953 1.258 3.602 3 4.224v10.276c0 3.309-2.691 6-6 6s-6-2.691-6-6h2c.404 0 .769-.244.924-.617.155-.374.069-.804-.217-1.09l-4-4c-.287-.287-.717-.372-1.09-.217s-.617.52-.617.924v5c0 4.962 4.038 9 9 9s9-4.038 9-9v-10.276c1.742-.622 3-2.271 3-4.224zm-4.5 2.5c-1.378 0-2.5-1.122-2.5-2.5s1.122-2.5 2.5-2.5 2.5 1.122 2.5 2.5-1.122 2.5-2.5 2.5z"/></svg>