<svg width="11" height="11" viewBox="0 0 11 11" fill="none" xmlns="http://www.w3.org/2000/svg">
<path d="M10.6399 7.35112C10.2512 7.35112 9.88221 7.18178 9.62758 6.8865C9.55921 6.80721 9.45964 6.76156 9.3549 6.76156C9.25017 6.76156 9.15064 6.80717 9.08223 6.8865C8.82768 7.18174 8.45871 7.35108 8.06994 7.35108C7.68117 7.35108 7.31224 7.18174 7.0576 6.88646C6.98924 6.80717 6.88966 6.76152 6.78493 6.76152C6.68019 6.76152 6.58066 6.80713 6.51225 6.88646C6.2577 7.1817 5.88873 7.35104 5.49996 7.35104C5.11119 7.35104 4.74226 7.1817 4.48767 6.88646C4.41926 6.80713 4.31973 6.76152 4.21499 6.76152C4.11026 6.76152 4.01073 6.80713 3.94232 6.88646C3.68772 7.18174 3.31875 7.35108 2.92998 7.35108C2.54121 7.35108 2.17228 7.18174 1.91769 6.8865C1.84928 6.80717 1.74975 6.76156 1.64502 6.76156C1.54028 6.76156 1.44075 6.80717 1.37234 6.8865C1.11775 7.18182 0.748778 7.35112 0.360047 7.35112C0.161181 7.35112 0 7.5123 0 7.71116C0 7.91003 0.161181 8.07121 0.360047 8.07121C0.778862 8.07121 1.18247 7.94339 1.52136 7.71116C1.56356 7.68224 1.60497 7.65196 1.64506 7.61983C1.68514 7.65196 1.72655 7.68224 1.76875 7.71116C2.1076 7.94339 2.51125 8.07121 2.93002 8.07121C3.3488 8.07121 3.75245 7.94339 4.09134 7.71116C4.13354 7.68224 4.17495 7.65196 4.21503 7.61983C4.25512 7.65196 4.29652 7.68224 4.33873 7.71116C4.67757 7.94339 5.08122 8.07121 5.5 8.07121C5.91877 8.07121 6.32243 7.94339 6.66127 7.71116C6.70348 7.68224 6.74484 7.65196 6.78497 7.61983C6.82505 7.65196 6.86646 7.68224 6.90866 7.71116C7.24751 7.94339 7.65116 8.07121 8.06998 8.07121C8.48879 8.07121 8.8924 7.94339 9.23125 7.71116C9.27345 7.68224 9.31482 7.65196 9.35494 7.61983C9.39503 7.65196 9.43643 7.68224 9.47864 7.71116C9.81748 7.94339 10.2211 8.07121 10.64 8.07121C10.8388 8.07121 11 7.91003 11 7.71116C11 7.5123 10.8388 7.35112 10.6399 7.35112Z" fill="#F2F6FA"/>
<path d="M10.6399 5.43475C10.2512 5.43475 9.88221 5.26541 9.62758 4.97013C9.55921 4.89084 9.45964 4.84519 9.3549 4.84519C9.25017 4.84519 9.15064 4.8908 9.08223 4.97013C8.82768 5.26537 8.45871 5.43471 8.06994 5.43471C7.68117 5.43471 7.31224 5.26537 7.0576 4.97009C6.98924 4.8908 6.88966 4.84515 6.78493 4.84515C6.68019 4.84515 6.58066 4.89076 6.51225 4.97009C6.2577 5.26533 5.88873 5.43467 5.49996 5.43467C5.11119 5.43467 4.74226 5.26533 4.48767 4.97009C4.41926 4.89076 4.31973 4.84515 4.21499 4.84515C4.11026 4.84515 4.01073 4.89076 3.94232 4.97009C3.68772 5.26537 3.31875 5.43471 2.92998 5.43471C2.54121 5.43471 2.17228 5.26537 1.91769 4.97013C1.84928 4.8908 1.74975 4.84519 1.64502 4.84519C1.54028 4.84519 1.44075 4.8908 1.37234 4.97013C1.11775 5.26541 0.748778 5.43475 0.360047 5.43475C0.161181 5.43475 0 5.59593 0 5.7948C0 5.99366 0.161181 6.15485 0.360047 6.15485C0.778862 6.15485 1.18247 6.02703 1.52136 5.7948C1.56356 5.76587 1.60493 5.73559 1.64506 5.70347C1.68514 5.73559 1.72655 5.76587 1.76875 5.7948C2.1076 6.02703 2.51125 6.15485 2.93002 6.15485C3.3488 6.15485 3.75245 6.02703 4.09134 5.7948C4.13354 5.76587 4.17491 5.73559 4.21503 5.70347C4.25512 5.73559 4.29652 5.76587 4.33873 5.7948C4.67757 6.02703 5.08122 6.15485 5.5 6.15485C5.91877 6.15485 6.32243 6.02703 6.66127 5.7948C6.70348 5.76587 6.74484 5.73559 6.78497 5.70347C6.82505 5.73559 6.86646 5.76587 6.90866 5.7948C7.24755 6.02703 7.65116 6.15485 8.06998 6.15485C8.48879 6.15485 8.8924 6.02703 9.23125 5.7948C9.27345 5.76587 9.31482 5.73559 9.35494 5.70347C9.39503 5.73559 9.43643 5.76587 9.47864 5.7948C9.81752 6.02703 10.2211 6.15485 10.64 6.15485C10.8388 6.15485 11 5.99366 11 5.7948C11 5.59597 10.8388 5.43475 10.6399 5.43475Z" fill="#F2F6FA"/>
<path d="M0.360047 4.23843C0.778862 4.23843 1.18247 4.11062 1.52136 3.87839C1.56356 3.84946 1.60493 3.81918 1.64506 3.78705C1.68514 3.81918 1.72655 3.84946 1.76875 3.87839C2.1076 4.11062 2.51125 4.23843 2.93002 4.23843C3.3488 4.23843 3.75245 4.11062 4.09134 3.87839C4.13354 3.84946 4.17491 3.81918 4.21503 3.78705C4.25512 3.81918 4.29652 3.84946 4.33873 3.87839C4.67757 4.11062 5.08122 4.23843 5.5 4.23843C5.91877 4.23843 6.32243 4.11062 6.66127 3.87839C6.70348 3.84946 6.74484 3.81918 6.78497 3.78705C6.82505 3.81918 6.86646 3.84946 6.90866 3.87839C7.24755 4.11062 7.65116 4.23843 8.06998 4.23843C8.48879 4.23843 8.8924 4.11062 9.23125 3.87839C9.27345 3.84946 9.31482 3.81918 9.35494 3.78705C9.39503 3.81918 9.43643 3.84946 9.47864 3.87839C9.81752 4.11062 10.2211 4.23843 10.64 4.23843C10.8388 4.23843 11 4.07725 11 3.87839C11 3.67952 10.8388 3.51834 10.64 3.51834C10.2512 3.51834 9.88225 3.349 9.62762 3.05372C9.55925 2.97443 9.45968 2.92878 9.35494 2.92878C9.25021 2.92878 9.15068 2.97439 9.08227 3.05372C8.82771 3.34896 8.45875 3.5183 8.06998 3.5183C7.68121 3.5183 7.31228 3.34896 7.05764 3.05368C6.98927 2.97439 6.8897 2.92874 6.78497 2.92874C6.68023 2.92874 6.5807 2.97435 6.51229 3.05368C6.25774 3.34892 5.88877 3.51826 5.5 3.51826C5.11123 3.51826 4.7423 3.34892 4.48771 3.05368C4.4193 2.97435 4.31977 2.92874 4.21503 2.92874C4.1103 2.92874 4.01077 2.97435 3.94236 3.05368C3.68776 3.34896 3.31879 3.5183 2.93002 3.5183C2.54125 3.5183 2.17228 3.349 1.91773 3.05376C1.84932 2.97443 1.74979 2.92882 1.64506 2.92882C1.54032 2.92882 1.44079 2.97443 1.37238 3.05376C1.11775 3.34904 0.748778 3.51834 0.360047 3.51834C0.161181 3.51834 0 3.67952 0 3.87839C0 4.07725 0.161181 4.23843 0.360047 4.23843Z" fill="#F2F6FA"/>
</svg>
