<svg width="54" height="54" viewBox="0 0 54 54" fill="none" xmlns="http://www.w3.org/2000/svg">
<path d="M22.5787 40.6552C25.6839 40.6581 28.7368 39.8558 31.4392 38.3265L38.9362 45.8235C39.8496 46.7368 41.0883 47.2499 42.3799 47.2499C43.6715 47.2499 44.9102 46.7368 45.8235 45.8235C46.7368 44.9102 47.2499 43.6715 47.2499 42.3799C47.2499 41.0883 46.7368 39.8496 45.8235 38.9362L38.3265 31.4392C40.4704 27.633 41.163 23.179 40.2762 18.9015C39.3894 14.6239 36.9831 10.8124 33.5027 8.17219C30.0224 5.53198 25.7034 4.24181 21.3451 4.54043C16.9868 4.83906 12.8842 6.70625 9.7965 9.7965C7.26836 12.3245 5.54666 15.5455 4.84914 19.0521C4.15161 22.5586 4.50959 26.1933 5.8778 29.4964C7.246 32.7995 9.56298 35.6227 12.5357 37.609C15.5085 39.5952 19.0035 40.6553 22.5787 40.6552ZM12.978 12.978C15.1991 10.758 18.1211 9.37667 21.2464 9.06948C24.3717 8.7623 27.5068 9.54822 30.1176 11.2933C32.7284 13.0385 34.6534 15.6348 35.5645 18.6401C36.4757 21.6453 36.3167 24.8735 35.1146 27.7747C33.9126 30.6758 31.7418 33.0704 28.9721 34.5506C26.2025 36.0307 23.0053 36.5047 19.9254 35.8919C16.8454 35.2791 14.0732 33.6174 12.081 31.1898C10.0889 28.7623 9.00002 25.7191 9 22.5787C8.99455 20.7948 9.34338 19.0275 10.0262 17.3795C10.7091 15.7314 11.7124 14.2353 12.978 12.978Z" fill="white"/>
</svg>
