<svg width="18" height="18" viewBox="0 0 18 18" fill="none" xmlns="http://www.w3.org/2000/svg">
<g clip-path="url(#clip0_7_14)">
<g filter="url(#filter0_d_7_14)">
<path d="M7.52625 13.5518C8.5613 13.5527 9.57892 13.2853 10.4797 12.7755L12.9787 15.2745C13.2832 15.5789 13.6961 15.75 14.1266 15.75C14.5572 15.75 14.9701 15.5789 15.2745 15.2745C15.5789 14.9701 15.75 14.5572 15.75 14.1266C15.75 13.6961 15.5789 13.2832 15.2745 12.9788L12.7755 10.4798C13.4901 9.21101 13.721 7.72635 13.4254 6.3005C13.1298 4.87465 12.3277 3.60414 11.1676 2.72407C10.0074 1.844 8.5678 1.41395 7.11504 1.51349C5.66228 1.61303 4.29475 2.23543 3.2655 3.26551C2.42278 4.10819 1.84889 5.18185 1.61638 6.3507C1.38387 7.51955 1.50319 8.7311 1.95926 9.83214C2.41533 10.9332 3.18766 11.8742 4.17858 12.5363C5.16949 13.1984 6.33449 13.5518 7.52625 13.5518ZM4.326 4.32601C5.06635 3.58599 6.04038 3.12557 7.08214 3.02317C8.1239 2.92078 9.16893 3.18275 10.0392 3.76446C10.9095 4.34616 11.5511 5.21161 11.8548 6.21336C12.1586 7.21511 12.1056 8.29118 11.7049 9.25823C11.3042 10.2253 10.5806 11.0235 9.65738 11.5169C8.73416 12.0102 7.66844 12.1683 6.64179 11.964C5.61513 11.7597 4.69106 11.2058 4.02701 10.3966C3.36295 9.58743 3 8.57304 3 7.52626C2.99818 6.93161 3.11446 6.34252 3.34208 5.79316C3.5697 5.2438 3.90414 4.74511 4.326 4.32601Z" fill="#2772AF"/>
<path d="M2.5 7.52703C2.50018 8.68921 2.90322 9.8154 3.64049 10.7138C4.37793 11.6124 5.40411 12.2275 6.54421 12.4544C7.68432 12.6812 8.86781 12.5057 9.89304 11.9578C10.9183 11.41 11.7218 10.5235 12.1668 9.44962C12.6118 8.37571 12.6706 7.18073 12.3333 6.06829C11.9961 4.95584 11.2835 3.99475 10.3171 3.34877C9.35062 2.70278 8.19011 2.41186 7.03323 2.52557C5.87661 2.63925 4.79516 3.15036 3.97306 3.97184C3.5045 4.43748 3.13302 4.99149 2.88016 5.60177C2.6273 6.21205 2.49808 6.86645 2.5 7.52703ZM2.5 7.52703C2.5 7.52728 2.5 7.52753 2.5 7.52779L3 7.52626L2.5 7.52626C2.5 7.52652 2.5 7.52677 2.5 7.52703ZM7.52671 13.0518H7.52623C6.43337 13.0518 5.36505 12.7277 4.45635 12.1206C3.54767 11.5134 2.83943 10.6505 2.4212 9.6408C2.00298 8.63112 1.89355 7.52011 2.10677 6.44825C2.31998 5.37639 2.84626 4.39182 3.61904 3.61907L3.61919 3.61892C4.56301 2.67434 5.81704 2.1036 7.14922 2.01232C8.4814 1.92104 9.80155 2.3154 10.8654 3.12242C11.9292 3.92945 12.6647 5.0945 12.9358 6.402C13.2069 7.7095 12.9952 9.07094 12.3399 10.2344L12.1536 10.565L12.4219 10.8333L14.9209 13.3323C15.1316 13.543 15.25 13.8287 15.25 14.1266C15.25 14.4246 15.1316 14.7103 14.9209 14.921C14.7103 15.1316 14.4245 15.25 14.1266 15.25C13.8287 15.25 13.543 15.1316 13.3323 14.921L10.8333 12.422L10.5644 12.1531L10.2335 12.3404C9.40792 12.8075 8.47531 13.0526 7.52671 13.0518ZM4.17858 12.5363C5.16949 13.1984 6.33449 13.5518 7.52625 13.5518L12.7755 10.4798C13.4901 9.21101 13.721 7.72635 13.4254 6.3005C13.1298 4.87465 12.3277 3.60414 11.1676 2.72407C10.0074 1.844 8.5678 1.41395 7.11504 1.51349C5.66228 1.61303 4.29475 2.23543 3.2655 3.26551C2.42278 4.10819 1.84889 5.18185 1.61638 6.3507C1.38387 7.51955 1.50319 8.7311 1.95926 9.83214C2.41533 10.9332 3.18766 11.8742 4.17858 12.5363Z" stroke="black"/>
</g>
</g>
<defs>
<filter id="filter0_d_7_14" x="-2.49941" y="1.49939" width="22.2494" height="22.2506" filterUnits="userSpaceOnUse" color-interpolation-filters="sRGB">
<feFlood flood-opacity="0" result="BackgroundImageFix"/>
<feColorMatrix in="SourceAlpha" type="matrix" values="0 0 0 0 0 0 0 0 0 0 0 0 0 0 0 0 0 0 127 0" result="hardAlpha"/>
<feOffset dy="4"/>
<feGaussianBlur stdDeviation="2"/>
<feComposite in2="hardAlpha" operator="out"/>
<feColorMatrix type="matrix" values="0 0 0 0 0 0 0 0 0 0 0 0 0 0 0 0 0 0 0.25 0"/>
<feBlend mode="normal" in2="BackgroundImageFix" result="effect1_dropShadow_7_14"/>
<feBlend mode="normal" in="SourceGraphic" in2="effect1_dropShadow_7_14" result="shape"/>
</filter>
<clipPath id="clip0_7_14">
<rect width="18" height="18" fill="white"/>
</clipPath>
</defs>
</svg>
