<svg width="49" height="51" viewBox="0 0 49 51" fill="none" xmlns="http://www.w3.org/2000/svg">
<path d="M13.5628 27.7402L35.5536 5.01755C35.9468 4.61153 36.4799 4.38345 37.0358 4.38345C37.5917 4.38345 38.1249 4.61153 38.5181 5.01755L42.2625 8.88621C42.6555 9.29245 42.8762 9.8433 42.8762 10.4177C42.8762 10.992 42.6555 11.5428 42.2625 11.9491L20.2696 34.6696L10.2083 38.1354L13.5628 27.7402ZM42.875 42.3542H6.12498C5.5835 42.3542 5.06419 42.5764 4.6813 42.972C4.29842 43.3676 4.08331 43.9041 4.08331 44.4636C4.08331 45.023 4.29842 45.5596 4.6813 45.9552C5.06419 46.3508 5.5835 46.573 6.12498 46.573H42.875C43.4165 46.573 43.9358 46.3508 44.3187 45.9552C44.7015 45.5596 44.9166 45.023 44.9166 44.4636C44.9166 43.9041 44.7015 43.3676 44.3187 42.972C43.9358 42.5764 43.4165 42.3542 42.875 42.3542Z" fill="white"/>
</svg>
