<svg width="14" height="14" viewBox="0 0 14 14" fill="none" xmlns="http://www.w3.org/2000/svg">
<g clip-path="url(#clip0_13_86)">
<path d="M9.91616 4.66808H4.08372V4.08484C4.08328 2.47426 5.38856 1.16825 6.99913 1.16781C8.06032 1.16751 9.03791 1.74369 9.55164 2.67223C9.70803 2.95391 10.0632 3.05551 10.3448 2.89912C10.6265 2.74274 10.7281 2.3876 10.5717 2.10592C9.47955 0.133281 6.99501 -0.580475 5.02234 0.511716C3.72292 1.23116 2.91673 2.59956 2.91722 4.08487V4.91542C1.85573 5.37869 1.16901 6.42618 1.16748 7.58434V11.0838C1.16942 12.6936 2.47393 13.9981 4.08372 14.0001H9.91616C11.5259 13.9981 12.8305 12.6936 12.8324 11.0838V7.58434C12.8305 5.9745 11.5259 4.66999 9.91616 4.66808ZM7.58319 9.91729C7.58319 10.2394 7.32207 10.5005 6.99995 10.5005C6.67784 10.5005 6.41672 10.2394 6.41672 9.91729V8.75079C6.41672 8.42867 6.67784 8.16755 6.99995 8.16755C7.32207 8.16755 7.58319 8.42867 7.58319 8.75079V9.91729Z" fill="#0AA06E"/>
</g>
<defs>
<clipPath id="clip0_13_86">
<rect width="14" height="14" fill="white"/>
</clipPath>
</defs>
</svg>
