<svg width="22" height="22" viewBox="0 0 22 22" fill="none" xmlns="http://www.w3.org/2000/svg">
<g clip-path="url(#clip0_4_250)">
<path fill-rule="evenodd" clip-rule="evenodd" d="M1.79172 0H20.2083V22H1.79172V0Z" fill="#1F5B8C"/>
<path fill-rule="evenodd" clip-rule="evenodd" d="M3.42265 1.63094H18.5786V20.3703H3.42265V1.63094Z" fill="#D9EEFF"/>
<path fill-rule="evenodd" clip-rule="evenodd" d="M7.25214 0H14.7491V1.84044C14.7491 2.40195 14.2887 2.86114 13.7272 2.86114H8.27284C7.71133 2.86114 7.25214 2.40195 7.25214 1.84044V0Z" fill="#A1A1A1"/>
<path fill-rule="evenodd" clip-rule="evenodd" d="M4.81729 9.80024C4.66139 9.64312 4.66139 9.38977 4.81729 9.23386C4.97442 9.07673 5.22777 9.07673 5.38489 9.23386L5.93301 9.78197L7.60779 8.10597C7.7637 7.95006 8.01827 7.95006 8.17418 8.10597C8.3313 8.26309 8.3313 8.51644 8.17418 8.67357L6.21559 10.6309C6.05968 10.7881 5.80511 10.7881 5.64921 10.6309L4.81729 9.80024Z" fill="#CC3D3D"/>
<path fill-rule="evenodd" clip-rule="evenodd" d="M9.66138 8.97564C9.4397 8.97564 9.26065 8.79537 9.26065 8.57491C9.26065 8.35323 9.4397 8.17296 9.66138 8.17296H14.4434C14.665 8.17296 14.8441 8.35323 14.8441 8.57491C14.8441 8.79537 14.665 8.97564 14.4434 8.97564H9.66138Z" fill="#3C3B41"/>
<path fill-rule="evenodd" clip-rule="evenodd" d="M9.66138 10.7491C9.4397 10.7491 9.26065 10.57 9.26065 10.3484C9.26065 10.1267 9.4397 9.94762 9.66138 9.94762H16.8989C17.1206 9.94762 17.2996 10.1267 17.2996 10.3484C17.2996 10.57 17.1206 10.7491 16.8989 10.7491H9.66138Z" fill="#3C3B41"/>
<path fill-rule="evenodd" clip-rule="evenodd" d="M4.81729 13.8758C4.66139 13.7199 4.66139 13.4665 4.81729 13.3094C4.97442 13.1535 5.22777 13.1535 5.38489 13.3094L5.93301 13.8575L7.60779 12.1827C7.7637 12.0256 8.01827 12.0256 8.17418 12.1827C8.3313 12.3386 8.3313 12.5932 8.17418 12.7491L6.21559 14.7077C6.05968 14.8636 5.80511 14.8636 5.64921 14.7077L4.81729 13.8758Z" fill="#CC3D3D"/>
<path fill-rule="evenodd" clip-rule="evenodd" d="M9.66138 13.0512C9.4397 13.0512 9.26065 12.8721 9.26065 12.6504C9.26065 12.4287 9.4397 12.2497 9.66138 12.2497H14.4434C14.665 12.2497 14.8441 12.4287 14.8441 12.6504C14.8441 12.8721 14.665 13.0512 14.4434 13.0512H9.66138Z" fill="#3C3B41"/>
<path fill-rule="evenodd" clip-rule="evenodd" d="M9.66138 14.8246C9.4397 14.8246 9.26065 14.6456 9.26065 14.4239C9.26065 14.2034 9.4397 14.0231 9.66138 14.0231H16.8989C17.1206 14.0231 17.2996 14.2034 17.2996 14.4239C17.2996 14.6456 17.1206 14.8246 16.8989 14.8246H9.66138Z" fill="#3C3B41"/>
<path fill-rule="evenodd" clip-rule="evenodd" d="M4.81729 17.9525C4.66139 17.7954 4.66139 17.542 4.81729 17.3861C4.97442 17.229 5.22777 17.229 5.38489 17.3861L5.93301 17.933L7.60779 16.2582C7.7637 16.1023 8.01827 16.1023 8.17418 16.2582C8.3313 16.4153 8.3313 16.6687 8.17418 16.8258L6.21559 18.7832C6.05968 18.9403 5.80511 18.9403 5.64921 18.7832L4.81729 17.9525Z" fill="#CC3D3D"/>
<path fill-rule="evenodd" clip-rule="evenodd" d="M9.66138 17.1279C9.4397 17.1279 9.26065 16.9476 9.26065 16.7259C9.26065 16.5055 9.4397 16.3252 9.66138 16.3252H14.4434C14.665 16.3252 14.8441 16.5055 14.8441 16.7259C14.8441 16.9476 14.665 17.1279 14.4434 17.1279H9.66138Z" fill="#3C3B41"/>
<path fill-rule="evenodd" clip-rule="evenodd" d="M9.66138 18.9013C9.4397 18.9013 9.26065 18.7223 9.26065 18.5006C9.26065 18.2789 9.4397 18.0999 9.66138 18.0999H16.8989C17.1206 18.0999 17.2996 18.2789 17.2996 18.5006C17.2996 18.7223 17.1206 18.9013 16.8989 18.9013H9.66138Z" fill="#3C3B41"/>
<path fill-rule="evenodd" clip-rule="evenodd" d="M6.65165 4.33009H15.3484C15.57 4.33009 15.7491 4.50914 15.7491 4.73082V6.59927C15.7491 6.81973 15.57 7 15.3484 7H6.65165C6.42997 7 6.25092 6.81973 6.25092 6.59927V4.73082C6.25092 4.50914 6.42997 4.33009 6.65165 4.33009Z" fill="#CC3D3D"/>
</g>
<defs>
<clipPath id="clip0_4_250">
<rect width="22" height="22" fill="white"/>
</clipPath>
</defs>
</svg>
