<svg width="24" height="24" viewBox="0 0 24 24" fill="none" xmlns="http://www.w3.org/2000/svg">
<g clip-path="url(#clip0_4_428)">
<path d="M8.02715 23.4551L9.75448 19.4363L11.0466 19.9917L9.31928 24.0105L8.02715 23.4551Z" fill="#AAD2F2"/>
<path d="M11.5224 23.4546L13.2497 19.4358L14.5419 19.9912L12.8145 24.01L11.5224 23.4546Z" fill="#AAD2F2"/>
<path d="M13.24 19.427L13.0233 19.9315V23.4955L14.5319 19.9817L13.24 19.427Z" fill="#8ABCE5"/>
<path d="M15.0176 23.4544L16.745 19.4356L18.0371 19.991L16.3098 24.0098L15.0176 23.4544Z" fill="#AAD2F2"/>
<path d="M15.0176 23.4544L16.745 19.4356L18.0371 19.991L16.3098 24.0098L15.0176 23.4544Z" fill="#8ABCE5"/>
<path d="M15.5822 8.49311C15.4296 7.07163 14.7591 5.75873 13.6944 4.79622C12.6217 3.82649 11.2339 3.29239 9.78669 3.29239C6.57239 3.29239 3.95734 5.90744 3.95734 9.12179C3.95734 10.9064 4.75905 12.5686 6.15696 13.6825L6.5236 13.9746L15.6322 8.95832L15.5822 8.49311Z" fill="#FED943"/>
<path d="M15.5822 8.49311C15.4296 7.07163 14.7591 5.75873 13.6944 4.79622C12.6217 3.82649 11.2339 3.29239 9.78668 3.29239V12.1775L15.6322 8.95827L15.5822 8.49311Z" fill="#FCBE2C"/>
<path d="M9.08461 0H10.4906V1.99903H9.08461V0Z" fill="#FCBE2C"/>
<path d="M4.61766 1.57307L5.83527 0.870065L6.83479 2.60123L5.61718 3.30424L4.61766 1.57307Z" fill="#FCBE2C"/>
<path d="M1.53584 5.16888L2.23885 3.95127L3.97001 4.95079L3.267 6.1684L1.53584 5.16888Z" fill="#FCBE2C"/>
<path d="M0.664902 8.41779H2.66398V9.8238H0.664902V8.41779Z" fill="#FCBE2C"/>
<path d="M1.5349 13.0728L3.26606 12.0732L3.96907 13.2909L2.23791 14.2904L1.5349 13.0728Z" fill="#FCBE2C"/>
<path d="M15.6037 4.95238L17.3349 3.95286L18.0379 5.17047L16.3068 6.16999L15.6037 4.95238Z" fill="#FCBE2C"/>
<path d="M12.7399 2.60258L13.7395 0.871383L14.9571 1.57439L13.9576 3.30559L12.7399 2.60258Z" fill="#FCBE2C"/>
<path d="M20.3276 12.3966C20.1245 11.2276 19.5467 10.156 18.668 9.33597C17.651 8.38691 16.3245 7.8642 14.9327 7.8642C13.819 7.8642 12.7469 8.19677 11.8324 8.82596C11.0881 9.33803 10.4881 10.0171 10.0755 10.8095C10.0043 10.8063 9.93309 10.8047 9.86209 10.8047C7.8212 10.8047 6.03139 12.0804 5.34938 13.9627C4.69412 14.0812 4.09183 14.3982 3.61627 14.8821C3.01567 15.4931 2.68488 16.3016 2.68488 17.1585C2.68488 18.95 4.14231 20.4073 5.93372 20.4073H19.2584C21.5063 20.4073 23.3352 18.5785 23.3352 16.3305C23.3351 14.4744 22.0758 12.8708 20.3276 12.3966Z" fill="#DCE1E5"/>
<path d="M15.6037 4.95238L17.3349 3.95286L18.0379 5.17047L16.3068 6.16999L15.6037 4.95238Z" fill="#F7AA00"/>
<path d="M12.7399 2.60258L13.7395 0.871383L14.9571 1.57439L13.9576 3.30559L12.7399 2.60258Z" fill="#F7AA00"/>
<path d="M9.78664 0H10.4906V1.99903H9.78664V0Z" fill="#F7AA00"/>
<path d="M20.3276 12.3966C20.1245 11.2276 19.5467 10.156 18.668 9.33597C17.651 8.38691 16.3245 7.8642 14.9327 7.8642C14.2735 7.8642 13.6293 7.9816 13.0233 8.20717V20.4074H19.2583C21.5063 20.4074 23.3351 18.5785 23.3351 16.3305C23.3351 14.4744 22.0758 12.8708 20.3276 12.3966Z" fill="#CCD3D9"/>
</g>
<defs>
<clipPath id="clip0_4_428">
<rect width="24" height="24" fill="white"/>
</clipPath>
</defs>
</svg>
