<svg width="9" height="9" viewBox="0 0 9 9" fill="none" xmlns="http://www.w3.org/2000/svg">
<g clip-path="url(#clip0_72_263)">
<path d="M8.97675 3.99525L7.82513 0.869623C7.6665 0.437998 7.21237 0.201748 6.76612 0.320248L4.875 0.824623V0.374998C4.87275 -0.115502 4.12725 -0.115127 4.125 0.374998V1.0245L2.15475 1.54987C1.68412 1.6755 1.30237 2.0235 1.13362 2.48062L0.0232492 5.49525C0.00787421 5.53687 -7.90489e-07 5.73787 -7.90489e-07 5.73787C-0.0292508 7.20937 1.78087 8.088 2.84925 7.03612C3.18337 6.71887 3.375 6.27262 3.375 5.81212C3.375 5.81212 3.36712 5.53762 3.3525 5.49637L2.20125 2.331C2.24775 2.30737 2.29687 2.28825 2.34825 2.27475L4.125 1.80075V8.25H1.875C1.3845 8.25225 1.38487 8.99775 1.875 9H7.125C7.6155 8.99775 7.61513 8.25225 7.125 8.25H4.875V1.6005L6.711 1.11075L5.64825 3.99487C5.63287 4.0365 5.625 4.2375 5.625 4.2375C5.625 5.17725 6.32663 5.95012 7.2225 5.997C7.69088 6.02175 8.13525 5.85787 8.47425 5.53612C8.80838 5.21887 9 4.77262 9 4.31212C9 4.31212 8.99213 4.0365 8.97675 3.99487V3.99525ZM2.4645 5.25H0.912749L1.69387 3.13012L2.4645 5.25ZM7.3125 1.64737L8.08725 3.75H6.53775L7.3125 1.64737Z" fill="#D9EEFF"/>
</g>
<defs>
<clipPath id="clip0_72_263">
<rect width="9" height="9" fill="white"/>
</clipPath>
</defs>
</svg>
